<mxfile host="app.diagrams.net" modified="2022-01-13T17:05:44.450Z" agent="5.0 (Windows NT 10.0; WOW64) AppleWebKit/537.36 (KHTML, like Gecko) Chrome/97.0.4692.71 Safari/537.36" etag="eunVWWnO7C7kFqxHA1Ct" version="16.2.6" type="github" pages="6">
  <diagram id="ur1e6bcljdTBcvMDHhtI" name="Page-1">
    <mxGraphModel dx="1422" dy="762" grid="1" gridSize="10" guides="1" tooltips="1" connect="1" arrows="1" fold="1" page="1" pageScale="1" pageWidth="850" pageHeight="1100" math="0" shadow="0">
      <root>
        <mxCell id="0" />
        <mxCell id="1" parent="0" />
        <mxCell id="bhcDy4zmcFov0MsNiiyC-1" value="Flowchart" parent="0" />
        <mxCell id="bhcDy4zmcFov0MsNiiyC-2" value="&lt;div style=&quot;font-size: 1px&quot;&gt;&lt;font style=&quot;font-size:11.29px;font-family:Calibri;color:#feffff;direction:ltr;letter-spacing:0px;line-height:120%;opacity:1&quot;&gt;Non Chat &lt;br/&gt;Widget is closed&lt;br/&gt;&lt;/font&gt;&lt;/div&gt;" style="verticalAlign=middle;align=center;vsdxID=1;fillColor=#5b9bd5;gradientColor=none;shape=stencil(nZBLDoAgDERP0z3SIyjew0SURgSD+Lu9kMZoXLhwN9O+tukAlrNpJg1SzDH4QW/URgNYgZTkjA4UkwJUgGXng+6DX1zLfmoymdXo17xh5zmRJ6Q42BWCfc2oJfdAr+Yv+AP9Cb7OJ3H/2JG1HNGz/84klThPVCc=);strokeColor=#c8c8c8;spacingTop=-1;spacingBottom=-1;spacingLeft=-1;spacingRight=-1;labelBackgroundColor=none;rounded=0;html=1;whiteSpace=wrap;" vertex="1" parent="bhcDy4zmcFov0MsNiiyC-1">
          <mxGeometry x="69" y="63" width="101" height="76" as="geometry" />
        </mxCell>
        <mxCell id="bhcDy4zmcFov0MsNiiyC-3" value="&lt;div style=&quot;font-size: 1px&quot;&gt;&lt;font style=&quot;font-size:11.29px;font-family:Calibri;color:#4f88bb;direction:ltr;letter-spacing:0px;line-height:120%;opacity:1&quot;&gt;EW Hosted js file&lt;br/&gt;&lt;/font&gt;&lt;font style=&quot;font-size:8.47px;font-family:Themed;color:#4f88bb;direction:ltr;letter-spacing:0px;line-height:120%;opacity:1&quot;&gt;[drives all UX for the widget and the frame around it] &lt;br/&gt;&lt;/font&gt;&lt;/div&gt;" style="verticalAlign=middle;align=center;vsdxID=2;fillColor=#feffff;gradientColor=#6cb9ff;shape=stencil(tZLRDoIgFIafhkscQphdm70HS1QWiTtQ2tsH4ZbmvKitu3P+8/3wMw5ihW1FLxEl1oG5yEFVrkXsiChVXStBOV8hViJW1AZkA+bWVbHvRSBDdTX3cMIYfSQ4KHnELs+T/PBSThHWqtuEyTaYkp/RVQQBZz+FCd+lSbaPBpgcnCecR2mC+NaRZMRiVBaDccIp0y2epQU0EvvrcK1FsxjZQcp+JX8TMFsE/He+dJ7PF+/fr5XWcXnm889t8VLcNFY+AQ==);strokeColor=#4f88bb;spacingTop=-1;spacingBottom=-1;spacingLeft=-1;spacingRight=-1;labelBackgroundColor=none;rounded=0;html=1;whiteSpace=wrap;" vertex="1" parent="bhcDy4zmcFov0MsNiiyC-1">
          <mxGeometry x="69" y="152" width="101" height="76" as="geometry" />
        </mxCell>
        <mxCell id="bhcDy4zmcFov0MsNiiyC-4" value="&lt;div style=&quot;font-size: 1px&quot;&gt;&lt;font style=&quot;font-size:11.29px;font-family:Calibri;color:#feffff;direction:ltr;letter-spacing:0px;line-height:120%;opacity:1&quot;&gt;Data collection from the app&lt;br/&gt;&lt;/font&gt;&lt;/div&gt;" style="verticalAlign=middle;align=center;vsdxID=3;fillColor=#5b9bd5;gradientColor=none;shape=stencil(nZBLDoAgDERP0z3SIyjew0SURgSD+Lu9kMZoXLhwN9O+tukAlrNpJg1SzDH4QW/URgNYgZTkjA4UkwJUgGXng+6DX1zLfmoymdXo17xh5zmRJ6Q42BWCfc2oJfdAr+Yv+AP9Cb7OJ3H/2JG1HNGz/84klThPVCc=);strokeColor=#c8c8c8;spacingTop=-1;spacingBottom=-1;spacingLeft=-1;spacingRight=-1;labelBackgroundColor=none;rounded=0;html=1;whiteSpace=wrap;" vertex="1" parent="bhcDy4zmcFov0MsNiiyC-1">
          <mxGeometry x="69" y="237" width="101" height="76" as="geometry" />
        </mxCell>
        <mxCell id="bhcDy4zmcFov0MsNiiyC-5" value="&lt;div style=&quot;font-size: 1px&quot;&gt;&lt;font style=&quot;font-size:11.29px;font-family:Calibri;color:#feffff;direction:ltr;letter-spacing:0px;line-height:120%;opacity:1&quot;&gt;Load Widget&lt;br/&gt;Outer Frame&lt;br/&gt;&lt;/font&gt;&lt;/div&gt;" style="verticalAlign=middle;align=center;vsdxID=5;fillColor=#5b9bd5;gradientColor=none;shape=stencil(nZBLDoAgDERP0z3SIyjew0SURgSD+Lu9kMZoXLhwN9O+tukAlrNpJg1SzDH4QW/URgNYgZTkjA4UkwJUgGXng+6DX1zLfmoymdXo17xh5zmRJ6Q42BWCfc2oJfdAr+Yv+AP9Cb7OJ3H/2JG1HNGz/84klThPVCc=);strokeColor=#c8c8c8;spacingTop=-1;spacingBottom=-1;spacingLeft=-1;spacingRight=-1;labelBackgroundColor=none;rounded=0;html=1;whiteSpace=wrap;" vertex="1" parent="bhcDy4zmcFov0MsNiiyC-1">
          <mxGeometry x="69" y="337" width="101" height="76" as="geometry" />
        </mxCell>
        <mxCell id="bhcDy4zmcFov0MsNiiyC-6" value="&lt;div style=&quot;font-size: 1px&quot;&gt;&lt;font style=&quot;font-size:11.29px;font-family:Calibri;color:#4f88bb;direction:ltr;letter-spacing:0px;line-height:120%;opacity:1&quot;&gt;EW Wrapper builds the HTML &lt;br/&gt;&lt;/font&gt;&lt;/div&gt;" style="verticalAlign=middle;align=center;vsdxID=6;fillColor=#feffff;gradientColor=#6cb9ff;shape=stencil(tZLRDoIgFIafhkscQphdm70HS1QWiTtQ2tsH4ZbmvKitu3P+8/3wMw5ihW1FLxEl1oG5yEFVrkXsiChVXStBOV8hViJW1AZkA+bWVbHvRSBDdTX3cMIYfSQ4KHnELs+T/PBSThHWqtuEyTaYkp/RVQQBZz+FCd+lSbaPBpgcnCecR2mC+NaRZMRiVBaDccIp0y2epQU0EvvrcK1FsxjZQcp+JX8TMFsE/He+dJ7PF+/fr5XWcXnm889t8VLcNFY+AQ==);strokeColor=#4f88bb;spacingTop=-1;spacingBottom=-1;spacingLeft=-1;spacingRight=-1;labelBackgroundColor=none;rounded=0;html=1;whiteSpace=wrap;" vertex="1" parent="bhcDy4zmcFov0MsNiiyC-1">
          <mxGeometry x="190" y="337" width="101" height="76" as="geometry" />
        </mxCell>
        <mxCell id="bhcDy4zmcFov0MsNiiyC-7" value="&lt;div style=&quot;font-size: 1px&quot;&gt;&lt;font style=&quot;font-size:11.29px;font-family:Calibri;color:#feffff;direction:ltr;letter-spacing:0px;line-height:120%;opacity:1&quot;&gt;EW Hosted sends messages back and forth to the front end application&lt;br/&gt;&lt;/font&gt;&lt;/div&gt;" style="verticalAlign=middle;align=center;vsdxID=7;fillColor=#5b9bd5;gradientColor=none;shape=stencil(nZBLDoAgDERP0z3SIyjew0SURgSD+Lu9kMZoXLhwN9O+tukAlrNpJg1SzDH4QW/URgNYgZTkjA4UkwJUgGXng+6DX1zLfmoymdXo17xh5zmRJ6Q42BWCfc2oJfdAr+Yv+AP9Cb7OJ3H/2JG1HNGz/84klThPVCc=);strokeColor=#c8c8c8;spacingTop=-1;spacingBottom=-1;spacingLeft=-1;spacingRight=-1;labelBackgroundColor=none;rounded=0;html=1;whiteSpace=wrap;" vertex="1" parent="bhcDy4zmcFov0MsNiiyC-1">
          <mxGeometry x="190" y="152" width="101" height="76" as="geometry" />
        </mxCell>
        <mxCell id="bhcDy4zmcFov0MsNiiyC-8" value="&lt;div style=&quot;font-size: 1px&quot;&gt;&lt;font style=&quot;font-size:11.29px;font-family:Calibri;color:#4f88bb;direction:ltr;letter-spacing:0px;line-height:120%;opacity:1&quot;&gt;EW Hosted manages tab display, pro chat, etc any UX&lt;/font&gt;&lt;font style=&quot;font-size:11.29px;font-family:Themed;color:#4f88bb;direction:ltr;letter-spacing:0px;line-height:120%;opacity:1&quot;&gt;&lt;br/&gt;&lt;/font&gt;&lt;/div&gt;" style="verticalAlign=middle;align=center;vsdxID=9;fillColor=#feffff;gradientColor=#6cb9ff;shape=stencil(nZLRDsIgDEW/pq+GlRh9n/M/loyNRoSFodO/F9JMHWYm29u99LTkFkCWg657BSiG4N1FjdQEDfIEiGS18hSiAlmBLFvnVefdzTbs+zqRSV3dPU14cJ9IHSie7ArB/syoIfuFTsVN8B90I5hdH8UnY0vG8Ire9aUFFLjbr4iV0zN2Pvl4WDP5h15OlyWLIn/teMQ/RVYv);strokeColor=#4f88bb;spacingTop=-1;spacingBottom=-1;spacingLeft=-1;spacingRight=-1;labelBackgroundColor=none;rounded=0;html=1;whiteSpace=wrap;" vertex="1" parent="bhcDy4zmcFov0MsNiiyC-1">
          <mxGeometry x="432" y="152" width="101" height="76" as="geometry" />
        </mxCell>
        <mxCell id="bhcDy4zmcFov0MsNiiyC-9" value="&lt;div style=&quot;font-size: 1px&quot;&gt;&lt;font style=&quot;font-size:11.29px;font-family:Calibri;color:#4f88bb;direction:ltr;letter-spacing:0px;line-height:120%;opacity:1&quot;&gt;Pass data values to Genesys for routing&lt;br/&gt;&lt;/font&gt;&lt;/div&gt;" style="verticalAlign=middle;align=center;vsdxID=11;fillColor=#feffff;gradientColor=#6cb9ff;shape=stencil(nZLRDsIgDEW/pq+GlRh9n/M/loyNRoSFodO/F9JMHWYm29u99LTkFkCWg657BSiG4N1FjdQEDfIEiGS18hSiAlmBLFvnVefdzTbs+zqRSV3dPU14cJ9IHSie7ArB/syoIfuFTsVN8B90I5hdH8UnY0vG8Ire9aUFFLjbr4iV0zN2Pvl4WDP5h15OlyWLIn/teMQ/RVYv);strokeColor=#4f88bb;spacingTop=-1;spacingBottom=-1;spacingLeft=-1;spacingRight=-1;labelBackgroundColor=none;rounded=0;html=1;whiteSpace=wrap;" vertex="1" parent="bhcDy4zmcFov0MsNiiyC-1">
          <mxGeometry x="554" y="152" width="101" height="76" as="geometry" />
        </mxCell>
        <mxCell id="bhcDy4zmcFov0MsNiiyC-10" value="&lt;div style=&quot;font-size: 1px&quot;&gt;&lt;font style=&quot;font-size:11.29px;font-family:Calibri;color:#4f88bb;direction:ltr;letter-spacing:0px;line-height:120%;opacity:1&quot;&gt;utag_data elements&lt;br/&gt;ex: sitename&lt;br/&gt;&lt;/font&gt;&lt;/div&gt;" style="verticalAlign=middle;align=center;vsdxID=13;fillColor=#feffff;gradientColor=#6cb9ff;shape=stencil(nZLRDsIgDEW/pq+GlRh9n/M/loyNRoSFodO/F9JMHWYm29u99LTkFkCWg657BSiG4N1FjdQEDfIEiGS18hSiAlmBLFvnVefdzTbs+zqRSV3dPU14cJ9IHSie7ArB/syoIfuFTsVN8B90I5hdH8UnY0vG8Ire9aUFFLjbr4iV0zN2Pvl4WDP5h15OlyWLIn/teMQ/RVYv);strokeColor=#4f88bb;spacingTop=-1;spacingBottom=-1;spacingLeft=-1;spacingRight=-1;labelBackgroundColor=none;rounded=0;html=1;whiteSpace=wrap;" vertex="1" parent="bhcDy4zmcFov0MsNiiyC-1">
          <mxGeometry x="190" y="237" width="101" height="76" as="geometry" />
        </mxCell>
        <mxCell id="bhcDy4zmcFov0MsNiiyC-11" style="vsdxID=14;fillColor=#44749f;gradientColor=none;shape=stencil(UzV2Ls5ILEhVNTIoLinKz04tz0wpyVA1dlE1MsrMy0gtyiwBslSNXVWNndPyi1LTi/JL81Ig/IJEkEoQKze/DGRCBUSfAUiHkUElhGcK4bpBVOZk5iGpNEVVikeloQHZpsK0YlWLz1QgA+HFtMycHEgIIcujBwlQCBKcxq4A);strokeColor=#41719c;spacingTop=-1;spacingBottom=-1;spacingLeft=-1;spacingRight=-1;labelBackgroundColor=none;rounded=0;html=1;whiteSpace=wrap;" vertex="1" parent="bhcDy4zmcFov0MsNiiyC-1">
          <mxGeometry x="311" y="152" width="101" height="76" as="geometry" />
        </mxCell>
        <mxCell id="bhcDy4zmcFov0MsNiiyC-12" value="&lt;div style=&quot;font-size: 1px&quot;&gt;&lt;font style=&quot;font-size:11.29px;font-family:Calibri;color:#feffff;direction:ltr;letter-spacing:0px;line-height:120%;opacity:1&quot;&gt;Engagement Engine Rules â€“ true or false&lt;/font&gt;&lt;font style=&quot;font-size:11.29px;font-family:Themed;color:#feffff;direction:ltr;letter-spacing:0px;line-height:120%;opacity:1&quot;&gt;&lt;br/&gt;&lt;/font&gt;&lt;/div&gt;" style="text;vsdxID=14;fillColor=none;gradientColor=none;strokeColor=none;spacingTop=-1;spacingBottom=-1;spacingLeft=-1;spacingRight=-1;labelBackgroundColor=none;rounded=0;html=1;whiteSpace=wrap;verticalAlign=middle;align=center;;html=1;" vertex="1" parent="bhcDy4zmcFov0MsNiiyC-11">
          <mxGeometry x="8.47" y="9.33" width="84.67" height="57.15" as="geometry" />
        </mxCell>
        <mxCell id="bhcDy4zmcFov0MsNiiyC-13" value="&lt;div style=&quot;font-size: 1px&quot;&gt;&lt;font style=&quot;font-size:11.29px;font-family:Calibri;color:#4f88bb;direction:ltr;letter-spacing:0px;line-height:120%;opacity:1&quot;&gt;Messages sent from outer frame to inner frame&lt;/font&gt;&lt;font style=&quot;font-size:11.29px;font-family:Themed;color:#4f88bb;direction:ltr;letter-spacing:0px;line-height:120%;opacity:1&quot;&gt;&lt;br/&gt;&lt;/font&gt;&lt;/div&gt;" style="verticalAlign=middle;align=center;vsdxID=16;fillColor=#feffff;gradientColor=#6cb9ff;shape=stencil(nZLRDsIgDEW/pq+GlRh9n/M/loyNRoSFodO/F9JMHWYm29u99LTkFkCWg657BSiG4N1FjdQEDfIEiGS18hSiAlmBLFvnVefdzTbs+zqRSV3dPU14cJ9IHSie7ArB/syoIfuFTsVN8B90I5hdH8UnY0vG8Ire9aUFFLjbr4iV0zN2Pvl4WDP5h15OlyWLIn/teMQ/RVYv);strokeColor=#4f88bb;spacingTop=-1;spacingBottom=-1;spacingLeft=-1;spacingRight=-1;labelBackgroundColor=none;rounded=0;html=1;whiteSpace=wrap;" vertex="1" parent="bhcDy4zmcFov0MsNiiyC-1">
          <mxGeometry x="311" y="337" width="101" height="76" as="geometry" />
        </mxCell>
        <mxCell id="bhcDy4zmcFov0MsNiiyC-14" value="&lt;div style=&quot;font-size: 1px&quot;&gt;&lt;font style=&quot;font-size:11.29px;font-family:Calibri;color:#feffff;direction:ltr;letter-spacing:0px;line-height:120%;opacity:1&quot;&gt;Spinner&lt;br/&gt;Loading Pattern&lt;br/&gt;&lt;/font&gt;&lt;/div&gt;" style="verticalAlign=middle;align=center;vsdxID=19;fillColor=#5b9bd5;gradientColor=none;shape=stencil(nZBLDoAgDERP0z3SIyjew0SURgSD+Lu9kMZoXLhwN9O+tukAlrNpJg1SzDH4QW/URgNYgZTkjA4UkwJUgGXng+6DX1zLfmoymdXo17xh5zmRJ6Q42BWCfc2oJfdAr+Yv+AP9Cb7OJ3H/2JG1HNGz/84klThPVCc=);strokeColor=#c8c8c8;spacingTop=-1;spacingBottom=-1;spacingLeft=-1;spacingRight=-1;labelBackgroundColor=none;rounded=0;html=1;whiteSpace=wrap;" vertex="1" parent="bhcDy4zmcFov0MsNiiyC-1">
          <mxGeometry x="69" y="436" width="101" height="76" as="geometry" />
        </mxCell>
        <mxCell id="bhcDy4zmcFov0MsNiiyC-15" value="&lt;div style=&quot;font-size: 1px&quot;&gt;&lt;font style=&quot;font-size:11.29px;font-family:Calibri;color:#feffff;direction:ltr;letter-spacing:0px;line-height:120%;opacity:1&quot;&gt;Load Chat Form&lt;br/&gt;If available, prefill the form fields&lt;br/&gt;&lt;/font&gt;&lt;/div&gt;" style="verticalAlign=middle;align=center;vsdxID=20;fillColor=#5b9bd5;gradientColor=none;shape=stencil(nZBLDoAgDERP0z3SIyjew0SURgSD+Lu9kMZoXLhwN9O+tukAlrNpJg1SzDH4QW/URgNYgZTkjA4UkwJUgGXng+6DX1zLfmoymdXo17xh5zmRJ6Q42BWCfc2oJfdAr+Yv+AP9Cb7OJ3H/2JG1HNGz/84klThPVCc=);strokeColor=#c8c8c8;spacingTop=-1;spacingBottom=-1;spacingLeft=-1;spacingRight=-1;labelBackgroundColor=none;rounded=0;html=1;whiteSpace=wrap;" vertex="1" parent="bhcDy4zmcFov0MsNiiyC-1">
          <mxGeometry x="69" y="635" width="101" height="76" as="geometry" />
        </mxCell>
        <mxCell id="bhcDy4zmcFov0MsNiiyC-16" style="vsdxID=22;fillColor=#44749f;gradientColor=none;shape=stencil(UzV2Ls5ILEhVNTIoLinKz04tz0wpyVA1dlE1MsrMy0gtyiwBslSNXVWNndPyi1LTi/JL81Ig/IJEkEoQKze/DGRCBUSfAUiHkUElhGcK4bpBVOZk5iGpNEVVikeloQHZpsK0YlWLz1QgA+HFtMycHEgIIcujBwlQCBKcxq4A);strokeColor=#41719c;spacingTop=-1;spacingBottom=-1;spacingLeft=-1;spacingRight=-1;labelBackgroundColor=none;rounded=0;html=1;whiteSpace=wrap;" vertex="1" parent="bhcDy4zmcFov0MsNiiyC-1">
          <mxGeometry x="190" y="635" width="101" height="76" as="geometry" />
        </mxCell>
        <mxCell id="bhcDy4zmcFov0MsNiiyC-17" value="&lt;div style=&quot;font-size: 1px&quot;&gt;&lt;font style=&quot;font-size:11.29px;font-family:Calibri;color:#feffff;direction:ltr;letter-spacing:0px;line-height:120%;opacity:1&quot;&gt;Autosubmit&lt;br/&gt;True or False&lt;br/&gt;&lt;/font&gt;&lt;/div&gt;" style="text;vsdxID=22;fillColor=none;gradientColor=none;strokeColor=none;spacingTop=-1;spacingBottom=-1;spacingLeft=-1;spacingRight=-1;labelBackgroundColor=none;rounded=0;html=1;whiteSpace=wrap;verticalAlign=middle;align=center;;html=1;" vertex="1" parent="bhcDy4zmcFov0MsNiiyC-16">
          <mxGeometry x="8.47" y="9.33" width="84.67" height="57.15" as="geometry" />
        </mxCell>
        <mxCell id="bhcDy4zmcFov0MsNiiyC-18" value="&lt;div style=&quot;font-size: 1px&quot;&gt;&lt;font style=&quot;font-size:11.29px;font-family:Calibri;color:#feffff;direction:ltr;letter-spacing:0px;line-height:120%;opacity:1&quot;&gt;Tab Display&lt;br/&gt;Chat &amp;amp; Contact&lt;br/&gt;&lt;/font&gt;&lt;/div&gt;" style="verticalAlign=middle;align=center;vsdxID=23;fillColor=#5b9bd5;gradientColor=none;shape=stencil(nZBLDoAgDERP0z3SIyjew0SURgSD+Lu9kMZoXLhwN9O+tukAlrNpJg1SzDH4QW/URgNYgZTkjA4UkwJUgGXng+6DX1zLfmoymdXo17xh5zmRJ6Q42BWCfc2oJfdAr+Yv+AP9Cb7OJ3H/2JG1HNGz/84klThPVCc=);strokeColor=#c8c8c8;spacingTop=-1;spacingBottom=-1;spacingLeft=-1;spacingRight=-1;labelBackgroundColor=none;rounded=0;html=1;whiteSpace=wrap;" vertex="1" parent="bhcDy4zmcFov0MsNiiyC-1">
          <mxGeometry x="69" y="535" width="101" height="76" as="geometry" />
        </mxCell>
        <mxCell id="bhcDy4zmcFov0MsNiiyC-19" style="vsdxID=25;fillColor=#44749f;gradientColor=none;shape=stencil(UzV2Ls5ILEhVNTIoLinKz04tz0wpyVA1dlE1MsrMy0gtyiwBslSNXVWNndPyi1LTi/JL81Ig/IJEkEoQKze/DGRCBUSfAUiHkUElhGcK4bpBVOZk5iGpNEVVikeloQHZpsK0YlWLz1QgA+HFtMycHEgIIcujBwlQCBKcxq4A);strokeColor=#41719c;spacingTop=-1;spacingBottom=-1;spacingLeft=-1;spacingRight=-1;labelBackgroundColor=none;rounded=0;html=1;whiteSpace=wrap;" vertex="1" parent="bhcDy4zmcFov0MsNiiyC-1">
          <mxGeometry x="190" y="535" width="101" height="76" as="geometry" />
        </mxCell>
        <mxCell id="bhcDy4zmcFov0MsNiiyC-20" value="&lt;div style=&quot;font-size: 1px&quot;&gt;&lt;font style=&quot;font-size:11.29px;font-family:Calibri;color:#feffff;direction:ltr;letter-spacing:0px;line-height:120%;opacity:1&quot;&gt;What to display on each tab&lt;br/&gt;&lt;/font&gt;&lt;/div&gt;" style="text;vsdxID=25;fillColor=none;gradientColor=none;strokeColor=none;spacingTop=-1;spacingBottom=-1;spacingLeft=-1;spacingRight=-1;labelBackgroundColor=none;rounded=0;html=1;whiteSpace=wrap;verticalAlign=middle;align=center;;html=1;" vertex="1" parent="bhcDy4zmcFov0MsNiiyC-19">
          <mxGeometry x="8.47" y="9.33" width="84.67" height="57.15" as="geometry" />
        </mxCell>
        <mxCell id="bhcDy4zmcFov0MsNiiyC-21" value="&lt;div style=&quot;font-size: 1px&quot;&gt;&lt;font style=&quot;font-size:11.29px;font-family:Calibri;color:#4f88bb;direction:ltr;letter-spacing:0px;line-height:120%;opacity:1&quot;&gt;EE Rules?&lt;br/&gt;&lt;/font&gt;&lt;/div&gt;" style="verticalAlign=middle;align=center;vsdxID=26;fillColor=#feffff;gradientColor=#6cb9ff;shape=stencil(nZLRDsIgDEW/pq+GlRh9n/M/loyNRoSFodO/F9JMHWYm29u99LTkFkCWg657BSiG4N1FjdQEDfIEiGS18hSiAlmBLFvnVefdzTbs+zqRSV3dPU14cJ9IHSie7ArB/syoIfuFTsVN8B90I5hdH8UnY0vG8Ire9aUFFLjbr4iV0zN2Pvl4WDP5h15OlyWLIn/teMQ/RVYv);strokeColor=#4f88bb;spacingTop=-1;spacingBottom=-1;spacingLeft=-1;spacingRight=-1;labelBackgroundColor=none;rounded=0;html=1;whiteSpace=wrap;" vertex="1" parent="bhcDy4zmcFov0MsNiiyC-1">
          <mxGeometry x="311" y="535" width="101" height="76" as="geometry" />
        </mxCell>
        <mxCell id="bhcDy4zmcFov0MsNiiyC-22" value="&lt;div style=&quot;font-size: 1px&quot;&gt;&lt;font style=&quot;font-size:11.29px;font-family:Calibri;color:#feffff;direction:ltr;letter-spacing:0px;line-height:120%;opacity:1&quot;&gt;Display Form&lt;br/&gt;&lt;/font&gt;&lt;/div&gt;" style="verticalAlign=middle;align=center;vsdxID=27;fillColor=#5b9bd5;gradientColor=none;shape=stencil(nZBLDoAgDERP0z3SIyjew0SURgSD+Lu9kMZoXLhwN9O+tukAlrNpJg1SzDH4QW/URgNYgZTkjA4UkwJUgGXng+6DX1zLfmoymdXo17xh5zmRJ6Q42BWCfc2oJfdAr+Yv+AP9Cb7OJ3H/2JG1HNGz/84klThPVCc=);strokeColor=#c8c8c8;spacingTop=-1;spacingBottom=-1;spacingLeft=-1;spacingRight=-1;labelBackgroundColor=none;rounded=0;html=1;whiteSpace=wrap;" vertex="1" parent="bhcDy4zmcFov0MsNiiyC-1">
          <mxGeometry x="311" y="647" width="101" height="76" as="geometry" />
        </mxCell>
        <mxCell id="bhcDy4zmcFov0MsNiiyC-23" value="&lt;div style=&quot;font-size: 1px&quot;&gt;&lt;font style=&quot;font-size:11.29px;font-family:Calibri;color:#feffff;direction:ltr;letter-spacing:0px;line-height:120%;opacity:1&quot;&gt;Display Bot and Autosubmit the form&lt;br/&gt;&lt;/font&gt;&lt;/div&gt;" style="verticalAlign=middle;align=center;vsdxID=28;fillColor=#5b9bd5;gradientColor=none;shape=stencil(nZBLDoAgDERP0z3SIyjew0SURgSD+Lu9kMZoXLhwN9O+tukAlrNpJg1SzDH4QW/URgNYgZTkjA4UkwJUgGXng+6DX1zLfmoymdXo17xh5zmRJ6Q42BWCfc2oJfdAr+Yv+AP9Cb7OJ3H/2JG1HNGz/84klThPVCc=);strokeColor=#c8c8c8;spacingTop=-1;spacingBottom=-1;spacingLeft=-1;spacingRight=-1;labelBackgroundColor=none;rounded=0;html=1;whiteSpace=wrap;" vertex="1" parent="bhcDy4zmcFov0MsNiiyC-1">
          <mxGeometry x="311" y="734" width="101" height="76" as="geometry" />
        </mxCell>
        <mxCell id="bhcDy4zmcFov0MsNiiyC-24" value="&lt;div style=&quot;font-size: 1px&quot;&gt;&lt;font style=&quot;font-size:11.29px;font-family:Calibri;color:#feffff;direction:ltr;letter-spacing:0px;line-height:120%;opacity:1&quot;&gt;Form Field Validation&lt;br/&gt;&lt;/font&gt;&lt;/div&gt;" style="verticalAlign=middle;align=center;vsdxID=29;fillColor=#5b9bd5;gradientColor=none;shape=stencil(nZBLDoAgDERP0z3SIyjew0SURgSD+Lu9kMZoXLhwN9O+tukAlrNpJg1SzDH4QW/URgNYgZTkjA4UkwJUgGXng+6DX1zLfmoymdXo17xh5zmRJ6Q42BWCfc2oJfdAr+Yv+AP9Cb7OJ3H/2JG1HNGz/84klThPVCc=);strokeColor=#c8c8c8;spacingTop=-1;spacingBottom=-1;spacingLeft=-1;spacingRight=-1;labelBackgroundColor=none;rounded=0;html=1;whiteSpace=wrap;" vertex="1" parent="bhcDy4zmcFov0MsNiiyC-1">
          <mxGeometry x="425" y="647" width="101" height="76" as="geometry" />
        </mxCell>
        <mxCell id="bhcDy4zmcFov0MsNiiyC-25" value="&lt;div style=&quot;font-size: 1px&quot;&gt;&lt;font style=&quot;font-size:11.29px;font-family:Calibri;color:#4f88bb;direction:ltr;letter-spacing:0px;line-height:120%;opacity:1&quot;&gt;Spinner displays until data loads&lt;br/&gt;&lt;/font&gt;&lt;/div&gt;" style="verticalAlign=middle;align=center;vsdxID=30;fillColor=#feffff;gradientColor=#6cb9ff;shape=stencil(nZLRDsIgDEW/pq+GlRh9n/M/loyNRoSFodO/F9JMHWYm29u99LTkFkCWg657BSiG4N1FjdQEDfIEiGS18hSiAlmBLFvnVefdzTbs+zqRSV3dPU14cJ9IHSie7ArB/syoIfuFTsVN8B90I5hdH8UnY0vG8Ire9aUFFLjbr4iV0zN2Pvl4WDP5h15OlyWLIn/teMQ/RVYv);strokeColor=#4f88bb;spacingTop=-1;spacingBottom=-1;spacingLeft=-1;spacingRight=-1;labelBackgroundColor=none;rounded=0;html=1;whiteSpace=wrap;" vertex="1" parent="bhcDy4zmcFov0MsNiiyC-1">
          <mxGeometry x="190" y="436" width="101" height="76" as="geometry" />
        </mxCell>
        <mxCell id="bhcDy4zmcFov0MsNiiyC-26" value="&lt;div style=&quot;font-size: 1px&quot;&gt;&lt;font style=&quot;font-size:11.29px;font-family:Calibri;color:#feffff;direction:ltr;letter-spacing:0px;line-height:120%;opacity:1&quot;&gt;Initiate Chat and Call to Genesys API&lt;br/&gt;&lt;/font&gt;&lt;/div&gt;" style="verticalAlign=middle;align=center;vsdxID=31;fillColor=#5b9bd5;gradientColor=none;shape=stencil(nZBLDoAgDERP0z3SIyjew0SURgSD+Lu9kMZoXLhwN9O+tukAlrNpJg1SzDH4QW/URgNYgZTkjA4UkwJUgGXng+6DX1zLfmoymdXo17xh5zmRJ6Q42BWCfc2oJfdAr+Yv+AP9Cb7OJ3H/2JG1HNGz/84klThPVCc=);strokeColor=#c8c8c8;spacingTop=-1;spacingBottom=-1;spacingLeft=-1;spacingRight=-1;labelBackgroundColor=none;rounded=0;html=1;whiteSpace=wrap;" vertex="1" parent="bhcDy4zmcFov0MsNiiyC-1">
          <mxGeometry x="539" y="647" width="101" height="76" as="geometry" />
        </mxCell>
        <mxCell id="bhcDy4zmcFov0MsNiiyC-27" value="&lt;div style=&quot;font-size: 1px&quot;&gt;&lt;font style=&quot;font-size:11.29px;font-family:Calibri;color:#feffff;direction:ltr;letter-spacing:0px;line-height:120%;opacity:1&quot;&gt;Set Data Fields&lt;br/&gt;_vsq._datafields numbers from EE [and part of EW Hosted js file]&lt;br/&gt;&lt;/font&gt;&lt;/div&gt;" style="verticalAlign=middle;align=center;vsdxID=32;fillColor=#5b9bd5;gradientColor=none;shape=stencil(nZBLDoAgDERP0z3SIyjew0SURgSD+Lu9kMZoXLhwN9O+tukAlrNpJg1SzDH4QW/URgNYgZTkjA4UkwJUgGXng+6DX1zLfmoymdXo17xh5zmRJ6Q42BWCfc2oJfdAr+Yv+AP9Cb7OJ3H/2JG1HNGz/84klThPVCc=);strokeColor=#c8c8c8;spacingTop=-1;spacingBottom=-1;spacingLeft=-1;spacingRight=-1;labelBackgroundColor=none;rounded=0;html=1;whiteSpace=wrap;" vertex="1" parent="bhcDy4zmcFov0MsNiiyC-1">
          <mxGeometry x="653" y="647" width="101" height="76" as="geometry" />
        </mxCell>
        <mxCell id="bhcDy4zmcFov0MsNiiyC-28" value="&lt;div style=&quot;font-size: 1px&quot;&gt;&lt;font style=&quot;font-size:11.29px;font-family:Calibri;color:#4f88bb;direction:ltr;letter-spacing:0px;line-height:120%;opacity:1&quot;&gt;KVP Mapping&lt;br/&gt;&lt;/font&gt;&lt;/div&gt;" style="verticalAlign=middle;align=center;vsdxID=33;fillColor=#feffff;gradientColor=#6cb9ff;shape=stencil(nZLRDsIgDEW/pq+GlRh9n/M/loyNRoSFodO/F9JMHWYm29u99LTkFkCWg657BSiG4N1FjdQEDfIEiGS18hSiAlmBLFvnVefdzTbs+zqRSV3dPU14cJ9IHSie7ArB/syoIfuFTsVN8B90I5hdH8UnY0vG8Ire9aUFFLjbr4iV0zN2Pvl4WDP5h15OlyWLIn/teMQ/RVYv);strokeColor=#4f88bb;spacingTop=-1;spacingBottom=-1;spacingLeft=-1;spacingRight=-1;labelBackgroundColor=none;rounded=0;html=1;whiteSpace=wrap;" vertex="1" parent="bhcDy4zmcFov0MsNiiyC-1">
          <mxGeometry x="653" y="734" width="101" height="76" as="geometry" />
        </mxCell>
        <mxCell id="bhcDy4zmcFov0MsNiiyC-29" value="&lt;div style=&quot;font-size: 1px&quot;&gt;&lt;font style=&quot;font-size:11.29px;font-family:Calibri;color:#4f88bb;direction:ltr;letter-spacing:0px;line-height:120%;opacity:1&quot;&gt;loader.js&lt;br/&gt;&lt;/font&gt;&lt;font style=&quot;font-size:8.47px;font-family:Themed;color:#4f88bb;direction:ltr;letter-spacing:0px;line-height:120%;opacity:1&quot;&gt;Where??&lt;br/&gt;&lt;/font&gt;&lt;/div&gt;" style="verticalAlign=middle;align=center;vsdxID=46;fillColor=#feffff;gradientColor=#6cb9ff;shape=stencil(tZLRDoIgFIafhkscQphdm70HS1QWiTtQ2tsH4ZbmvKitu3P+8/3wMw5ihW1FLxEl1oG5yEFVrkXsiChVXStBOV8hViJW1AZkA+bWVbHvRSBDdTX3cMIYfSQ4KHnELs+T/PBSThHWqtuEyTaYkp/RVQQBZz+FCd+lSbaPBpgcnCecR2mC+NaRZMRiVBaDccIp0y2epQU0EvvrcK1FsxjZQcp+JX8TMFsE/He+dJ7PF+/fr5XWcXnm889t8VLcNFY+AQ==);strokeColor=#4f88bb;spacingTop=-1;spacingBottom=-1;spacingLeft=-1;spacingRight=-1;labelBackgroundColor=none;rounded=0;html=1;whiteSpace=wrap;" vertex="1" parent="bhcDy4zmcFov0MsNiiyC-1">
          <mxGeometry x="958" y="609" width="101" height="76" as="geometry" />
        </mxCell>
        <mxCell id="bhcDy4zmcFov0MsNiiyC-30" value="Callout" parent="0" />
      </root>
    </mxGraphModel>
  </diagram>
  <diagram name="Chat Tab" id="cscOJHkBuK0493dPklU2">
    <mxGraphModel style="default-style2">
      <root>
        <mxCell id="0" />
        <mxCell id="1" value="Flowchart" parent="0" />
        <mxCell id="4" style="vsdxID=14;fillColor=#44749f;gradientColor=none;shape=stencil(UzV2Ls5ILEhVNTIoLinKz04tz0wpyVA1dlE1MsrMy0gtyiwBslSNXVWNndPyi1LTi/JL81Ig/IJEkEoQKze/DGRCBUSfAUiHkUElhGcK4bpBVOZk5iGpNEVVikeloQHZpsK0YlWLz1QgA+HFtMycHEgIIcujBwlQCBKcxq4A);strokeColor=#41719c;spacingTop=-1;spacingBottom=-1;spacingLeft=-1;spacingRight=-1;labelBackgroundColor=none;rounded=0;html=1;whiteSpace=wrap;" vertex="1" parent="1">
          <mxGeometry x="127" y="206" width="101" height="76" as="geometry" />
        </mxCell>
        <mxCell id="5" value="&lt;div style=&quot;font-size: 1px&quot;&gt;&lt;font style=&quot;font-size:11.29px;font-family:Calibri;color:#feffff;direction:ltr;letter-spacing:0px;line-height:120%;opacity:1&quot;&gt;Active Chat?&lt;br/&gt;&lt;/font&gt;&lt;/div&gt;" style="text;vsdxID=14;fillColor=none;gradientColor=none;strokeColor=none;spacingTop=-1;spacingBottom=-1;spacingLeft=-1;spacingRight=-1;labelBackgroundColor=none;rounded=0;html=1;whiteSpace=wrap;verticalAlign=middle;align=center;;html=1;" vertex="1" parent="4">
          <mxGeometry x="8.47" y="9.33" width="84.67" height="57.15" as="geometry" />
        </mxCell>
        <mxCell id="6" value="&lt;div style=&quot;font-size: 1px&quot;&gt;&lt;font style=&quot;font-size:11.29px;font-family:Calibri;color:#feffff;direction:ltr;letter-spacing:0px;line-height:120%;opacity:1&quot;&gt;Spinner&lt;br/&gt;&lt;/font&gt;&lt;/div&gt;" style="verticalAlign=middle;align=center;vsdxID=15;fillColor=#5b9bd5;gradientColor=none;shape=stencil(nZBLDoAgDERP0z3SIyjew0SURgSD+Lu9kMZoXLhwN9O+tukAlrNpJg1SzDH4QW/URgNYgZTkjA4UkwJUgGXng+6DX1zLfmoymdXo17xh5zmRJ6Q42BWCfc2oJfdAr+Yv+AP9Cb7OJ3H/2JG1HNGz/84klThPVCc=);strokeColor=#c8c8c8;spacingTop=-1;spacingBottom=-1;spacingLeft=-1;spacingRight=-1;labelBackgroundColor=none;rounded=0;html=1;whiteSpace=wrap;" vertex="1" parent="1">
          <mxGeometry x="127" y="76" width="101" height="76" as="geometry" />
        </mxCell>
        <mxCell id="7" style="vsdxID=16;fillColor=#44749f;gradientColor=none;shape=stencil(UzV2Ls5ILEhVNTIoLinKz04tz0wpyVA1dlE1MsrMy0gtyiwBslSNXVWNndPyi1LTi/JL81Ig/IJEkEoQKze/DGRCBUSfAUiHkUElhGcK4bpBVOZk5iGpNEVVikeloQHZpsK0YlWLz1QgA+HFtMycHEgIIcujBwlQCBKcxq4A);strokeColor=#41719c;spacingTop=-1;spacingBottom=-1;spacingLeft=-1;spacingRight=-1;labelBackgroundColor=none;rounded=0;html=1;whiteSpace=wrap;" vertex="1" parent="1">
          <mxGeometry x="127" y="339" width="101" height="76" as="geometry" />
        </mxCell>
        <mxCell id="8" value="&lt;div style=&quot;font-size: 1px&quot;&gt;&lt;font style=&quot;font-size:11.29px;font-family:Calibri;color:#feffff;direction:ltr;letter-spacing:0px;line-height:120%;opacity:1&quot;&gt;Is EW Open?&lt;br/&gt;&lt;/font&gt;&lt;/div&gt;" style="text;vsdxID=16;fillColor=none;gradientColor=none;strokeColor=none;spacingTop=-1;spacingBottom=-1;spacingLeft=-1;spacingRight=-1;labelBackgroundColor=none;rounded=0;html=1;whiteSpace=wrap;verticalAlign=middle;align=center;;html=1;" vertex="1" parent="7">
          <mxGeometry x="8.47" y="9.33" width="84.67" height="57.15" as="geometry" />
        </mxCell>
        <mxCell id="9" value="&lt;div style=&quot;font-size: 1px&quot;&gt;&lt;font style=&quot;font-size:11.29px;font-family:Calibri;color:#feffff;direction:ltr;letter-spacing:0px;line-height:120%;opacity:1&quot;&gt;Chat Page&lt;br/&gt;&lt;/font&gt;&lt;/div&gt;" style="verticalAlign=middle;align=center;vsdxID=18;fillColor=#5b9bd5;gradientColor=none;shape=stencil(nZBLDoAgDERP0z3SIyjew0SURgSD+Lu9kMZoXLhwN9O+tukAlrNpJg1SzDH4QW/URgNYgZTkjA4UkwJUgGXng+6DX1zLfmoymdXo17xh5zmRJ6Q42BWCfc2oJfdAr+Yv+AP9Cb7OJ3H/2JG1HNGz/84klThPVCc=);strokeColor=#c8c8c8;spacingTop=-1;spacingBottom=-1;spacingLeft=-1;spacingRight=-1;labelBackgroundColor=none;rounded=0;html=1;whiteSpace=wrap;" vertex="1" parent="1">
          <mxGeometry x="393" y="584" width="127" height="101" as="geometry" />
        </mxCell>
        <mxCell id="10" style="vsdxID=34;fillColor=#44749f;gradientColor=none;shape=stencil(UzV2Ls5ILEhVNTIoLinKz04tz0wpyVA1dlE1MsrMy0gtyiwBslSNXVWNndPyi1LTi/JL81Ig/IJEkEoQKze/DGRCBUSfAUiHkUElhGcK4bpBVOZk5iGpNEVVikeloQHZpsK0YlWLz1QgA+HFtMycHEgIIcujBwlQCBKcxq4A);strokeColor=#41719c;spacingTop=-1;spacingBottom=-1;spacingLeft=-1;spacingRight=-1;labelBackgroundColor=none;rounded=0;html=1;whiteSpace=wrap;" vertex="1" parent="1">
          <mxGeometry x="127" y="469" width="101" height="76" as="geometry" />
        </mxCell>
        <mxCell id="11" value="&lt;div style=&quot;font-size: 1px&quot;&gt;&lt;font style=&quot;font-size:11.29px;font-family:Calibri;color:#feffff;direction:ltr;letter-spacing:0px;line-height:120%;opacity:1&quot;&gt;Is Autosubmit True or False?&lt;br/&gt;&lt;/font&gt;&lt;/div&gt;" style="text;vsdxID=34;fillColor=none;gradientColor=none;strokeColor=none;spacingTop=-1;spacingBottom=-1;spacingLeft=-1;spacingRight=-1;labelBackgroundColor=none;rounded=0;html=1;whiteSpace=wrap;verticalAlign=middle;align=center;;html=1;" vertex="1" parent="10">
          <mxGeometry x="8.47" y="9.33" width="84.67" height="57.15" as="geometry" />
        </mxCell>
        <mxCell id="12" value="&lt;div style=&quot;font-size: 1px&quot;&gt;&lt;font style=&quot;font-size:11.29px;font-family:Calibri;color:#feffff;direction:ltr;letter-spacing:0px;line-height:120%;opacity:1&quot;&gt;Form&lt;br/&gt;&lt;/font&gt;&lt;/div&gt;" style="verticalAlign=middle;align=center;vsdxID=35;fillColor=#5b9bd5;gradientColor=none;shape=stencil(nZBLDoAgDERP0z3SIyjew0SURgSD+Lu9kMZoXLhwN9O+tukAlrNpJg1SzDH4QW/URgNYgZTkjA4UkwJUgGXng+6DX1zLfmoymdXo17xh5zmRJ6Q42BWCfc2oJfdAr+Yv+AP9Cb7OJ3H/2JG1HNGz/84klThPVCc=);strokeColor=#c8c8c8;spacingTop=-1;spacingBottom=-1;spacingLeft=-1;spacingRight=-1;labelBackgroundColor=none;rounded=0;html=1;whiteSpace=wrap;" vertex="1" parent="1">
          <mxGeometry x="101" y="609" width="101" height="101" as="geometry" />
        </mxCell>
        <mxCell id="13" value="&lt;div style=&quot;font-size: 1px&quot;&gt;&lt;font style=&quot;font-size:16.93px;font-family:Calibri;color:#939393;direction:ltr;letter-spacing:0px;line-height:120%;opacity:1&quot;&gt;App-Chat&lt;br/&gt;&lt;/font&gt;&lt;/div&gt;" style="verticalAlign=middle;align=center;vsdxID=47;fillColor=none;gradientColor=none;shape=stencil(nZBLDoAgDERP0z3SIyjew0SURgSD+Lu9kMZoXLhwN9O+tukAlrNpJg1SzDH4QW/URgNYgZTkjA4UkwJUgGXng+6DX1zLfmoymdXo17xh5zmRJ6Q42BWCfc2oJfdAr+Yv+AP9Cb7OJ3H/2JG1HNGz/84klThPVCc=);strokeColor=none;labelBackgroundColor=none;rounded=0;html=1;whiteSpace=wrap;" vertex="1" parent="1">
          <mxGeometry x="927" y="50" width="139" height="63" as="geometry" />
        </mxCell>
        <mxCell id="14" value="&lt;div style=&quot;font-size: 1px&quot;&gt;&lt;font style=&quot;font-size:11.29px;font-family:Calibri;color:#feffff;direction:ltr;letter-spacing:0px;line-height:120%;opacity:1&quot;&gt;NGX Store&lt;br/&gt;&lt;/font&gt;&lt;/div&gt;" style="verticalAlign=middle;align=center;vsdxID=48;fillColor=#5b9bd5;gradientColor=none;shape=stencil(nZBLDoAgDERP0z3SIyjew0SURgSD+Lu9kMZoXLhwN9O+tukAlrNpJg1SzDH4QW/URgNYgZTkjA4UkwJUgGXng+6DX1zLfmoymdXo17xh5zmRJ6Q42BWCfc2oJfdAr+Yv+AP9Cb7OJ3H/2JG1HNGz/84klThPVCc=);strokeColor=#c8c8c8;spacingTop=-1;spacingBottom=-1;spacingLeft=-1;spacingRight=-1;labelBackgroundColor=none;rounded=0;html=1;whiteSpace=wrap;" vertex="1" parent="1">
          <mxGeometry x="584" y="190" width="101" height="76" as="geometry" />
        </mxCell>
        <mxCell id="3" value="Connector" parent="0" />
        <mxCell id="23" value="&lt;div style=&quot;font-size: 1px&quot;&gt;&lt;font style=&quot;font-size:11.29px;font-family:Calibri;color:#44749f;direction:ltr;letter-spacing:0px;line-height:120%;opacity:1&quot;&gt;YES&lt;br/&gt;&lt;/font&gt;&lt;/div&gt;" style="vsdxID=37;edgeStyle=none;startArrow=none;endArrow=block;startSize=5;endSize=5;strokeColor=#5b9bd5;spacingTop=0;spacingBottom=0;spacingLeft=0;spacingRight=0;verticalAlign=middle;html=1;labelBackgroundColor=#ffffff;rounded=0;align=center;exitX=1;exitY=0.5131578947368421;exitDx=0;exitDy=0;exitPerimeter=0;entryX=0;entryY=0.504950495049505;entryDx=0;entryDy=0;entryPerimeter=0;" edge="1" parent="3" source="10" target="9">
          <mxGeometry relative="1" as="geometry">
            <mxPoint as="offset" />
            <Array as="points">
              <mxPoint x="247.05" y="508" />
              <mxPoint x="247.05" y="635" />
            </Array>
          </mxGeometry>
        </mxCell>
        <mxCell id="24" value="&lt;div style=&quot;font-size: 1px&quot;&gt;&lt;font style=&quot;font-size:11.29px;font-family:Calibri;color:#44749f;direction:ltr;letter-spacing:0px;line-height:120%;opacity:1&quot;&gt;NO&lt;br/&gt;&lt;/font&gt;&lt;/div&gt;" style="vsdxID=36;edgeStyle=none;startArrow=none;endArrow=block;startSize=5;endSize=5;strokeColor=#5b9bd5;spacingTop=0;spacingBottom=0;spacingLeft=0;spacingRight=0;verticalAlign=middle;html=1;labelBackgroundColor=#ffffff;rounded=0;align=center;exitX=0.49504950495049505;exitY=1.013157894736842;exitDx=0;exitDy=0;exitPerimeter=0;entryX=0.504950495049505;entryY=0;entryDx=0;entryDy=0;entryPerimeter=0;" edge="1" parent="3" source="10" target="12">
          <mxGeometry relative="1" as="geometry">
            <mxPoint as="offset" />
            <Array as="points">
              <mxPoint x="177" y="565.05" />
              <mxPoint x="151.6" y="565.05" />
            </Array>
          </mxGeometry>
        </mxCell>
        <mxCell id="25" value="&lt;div style=&quot;font-size: 1px&quot;&gt;&lt;font style=&quot;font-size:11.29px;font-family:Calibri;color:#44749f;direction:ltr;letter-spacing:0px;line-height:120%;opacity:1&quot;&gt;NO&lt;br/&gt;&lt;/font&gt;&lt;/div&gt;" style="vsdxID=20;edgeStyle=none;startArrow=none;endArrow=block;startSize=5;endSize=5;strokeColor=#5b9bd5;spacingTop=0;spacingBottom=0;spacingLeft=0;spacingRight=0;verticalAlign=middle;html=1;labelBackgroundColor=#ffffff;rounded=0;align=center;exitX=0;exitY=0.5;exitDx=0;exitDy=0;exitPerimeter=0;entryX=0;entryY=0.5;entryDx=0;entryDy=0;entryPerimeter=0;" edge="1" parent="3" source="7" target="6">
          <mxGeometry relative="1" as="geometry">
            <mxPoint x="12" as="offset" />
            <Array as="points">
              <mxPoint x="107.95" y="377" />
              <mxPoint x="107.95" y="113.48" />
            </Array>
          </mxGeometry>
        </mxCell>
        <mxCell id="26" value="&lt;div style=&quot;font-size: 1px&quot;&gt;&lt;font style=&quot;font-size:11.29px;font-family:Calibri;color:#44749f;direction:ltr;letter-spacing:0px;line-height:120%;opacity:1&quot;&gt;YES&lt;br/&gt;&lt;/font&gt;&lt;/div&gt;" style="vsdxID=21;edgeStyle=none;startArrow=none;endArrow=block;startSize=5;endSize=5;strokeColor=#5b9bd5;spacingTop=0;spacingBottom=0;spacingLeft=0;spacingRight=0;verticalAlign=middle;html=1;labelBackgroundColor=#ffffff;rounded=0;align=center;exitX=0.49504950495049505;exitY=1;exitDx=0;exitDy=0;exitPerimeter=0;entryX=0.49504950495049505;entryY=0;entryDx=0;entryDy=0;entryPerimeter=0;" edge="1" parent="3" source="6" target="4">
          <mxGeometry relative="1" as="geometry">
            <mxPoint x="12" y="-1" as="offset" />
            <Array as="points" />
          </mxGeometry>
        </mxCell>
        <mxCell id="27" value="&lt;div style=&quot;font-size: 1px&quot;&gt;&lt;font style=&quot;font-size:11.29px;font-family:Calibri;color:#44749f;direction:ltr;letter-spacing:0px;line-height:120%;opacity:1&quot;&gt;NO&lt;br/&gt;&lt;/font&gt;&lt;/div&gt;" style="vsdxID=22;edgeStyle=none;startArrow=none;endArrow=block;startSize=5;endSize=5;strokeColor=#5b9bd5;spacingTop=0;spacingBottom=0;spacingLeft=0;spacingRight=0;verticalAlign=middle;html=1;labelBackgroundColor=#ffffff;rounded=0;align=center;exitX=0.49504950495049505;exitY=1;exitDx=0;exitDy=0;exitPerimeter=0;entryX=0.49504950495049505;entryY=0;entryDx=0;entryDy=0;entryPerimeter=0;" edge="1" parent="3" source="4" target="7">
          <mxGeometry relative="1" as="geometry">
            <mxPoint x="12" y="-1" as="offset" />
            <Array as="points" />
          </mxGeometry>
        </mxCell>
        <mxCell id="28" value="&lt;div style=&quot;font-size: 1px&quot;&gt;&lt;font style=&quot;font-size:11.29px;font-family:Calibri;color:#44749f;direction:ltr;letter-spacing:0px;line-height:120%;opacity:1&quot;&gt;YES&lt;br/&gt;&lt;/font&gt;&lt;/div&gt;" style="vsdxID=23;edgeStyle=none;startArrow=none;endArrow=block;startSize=5;endSize=5;strokeColor=#5b9bd5;spacingTop=0;spacingBottom=0;spacingLeft=0;spacingRight=0;verticalAlign=middle;html=1;labelBackgroundColor=#ffffff;rounded=0;align=center;exitX=0.49504950495049505;exitY=1;exitDx=0;exitDy=0;exitPerimeter=0;entryX=0.49504950495049505;entryY=0;entryDx=0;entryDy=0;entryPerimeter=0;" edge="1" parent="3" source="7" target="10">
          <mxGeometry relative="1" as="geometry">
            <mxPoint x="12" y="-1" as="offset" />
            <Array as="points" />
          </mxGeometry>
        </mxCell>
        <mxCell id="29" value="&lt;div style=&quot;font-size: 1px&quot;&gt;&lt;font style=&quot;font-size:11.29px;font-family:Calibri;color:#44749f;direction:ltr;letter-spacing:0px;line-height:120%;opacity:1&quot;&gt;YES&lt;br/&gt;&lt;/font&gt;&lt;/div&gt;" style="vsdxID=29;edgeStyle=none;startArrow=none;endArrow=block;startSize=5;endSize=5;strokeColor=#5b9bd5;spacingTop=0;spacingBottom=0;spacingLeft=0;spacingRight=0;verticalAlign=middle;html=1;labelBackgroundColor=#ffffff;rounded=0;align=center;exitX=1;exitY=0.5;exitDx=0;exitDy=0;exitPerimeter=0;entryX=0.5039370078740157;entryY=0;entryDx=0;entryDy=0;entryPerimeter=0;" edge="1" parent="3" source="4" target="9">
          <mxGeometry relative="1" as="geometry">
            <mxPoint as="offset" />
            <Array as="points">
              <mxPoint x="456.6" y="244" />
            </Array>
          </mxGeometry>
        </mxCell>
        <mxCell id="2" value="Callout" parent="0" />
        <mxCell id="15" style="vsdxID=30;fillColor=#FFFFFF;gradientColor=none;shape=stencil(tVFbDsIgEDwNnyQU4glqvcfGLi0RS7OgbW8vZEmsRn9M/JvZmX3ACNPGEWYUWsVE4YKL69MozFFo7aYRyaWMhOmEaW0gHCjcpp75DMVZ0DXcy4SV+2SjSo9WG/MD0xN7gc5Zouo11UrbK69y83mUWiWsLkoKCZILE4tV80ADyrxGWg9DncNSXBDnXfn3w7688S+HZfD8auu856T2+ns0ucSxmu4B);strokeColor=#2d4d6a;strokeWidth=2;labelBackgroundColor=none;rounded=0;html=1;whiteSpace=wrap;" vertex="1" parent="2">
          <mxGeometry x="355" y="50" width="101" height="101" as="geometry" />
        </mxCell>
        <mxCell id="16" style="vsdxID=32;edgeStyle=none;startArrow=none;endArrow=none;startSize=5;endSize=5;strokeColor=#bdd0e9;spacingTop=0;spacingBottom=0;spacingLeft=0;spacingRight=0;verticalAlign=middle;html=1;labelBackgroundColor=#ffffff;rounded=0;" edge="1" parent="15">
          <mxGeometry relative="1" as="geometry">
            <Array as="points" />
            <mxPoint x="-44" y="143" as="sourcePoint" />
            <mxPoint x="7" y="92" as="targetPoint" />
          </mxGeometry>
        </mxCell>
        <mxCell id="17" style="vsdxID=33;rotation=315;fillColor=#44749f;gradientColor=none;shape=stencil(vVHLDsIgEPwajiQI6RfU+h8bu22JCGRB2/69kG1iazx58DazM/vIjjBtmiCi0CplCjecbZ8nYc5Ca+snJJsLEqYTph0C4Ujh4XvmEaqzont41gkL96naodXKrGF6YSfQtUi0OXXDVlqPfJNP6usotUhYbJIUMmQb/GGrAxpRljVycDBuc1hKM2LclX8/7H9nFfB+82Cd45T2+mcspcSRmu4F);strokeColor=#2d4d6a;strokeWidth=2;labelBackgroundColor=none;rounded=0;html=1;whiteSpace=wrap;" vertex="1" parent="15">
          <mxGeometry x="-47" y="146" width="5" height="5" as="geometry" />
        </mxCell>
        <mxCell id="18" value="&lt;div style=&quot;font-size: 1px&quot;&gt;&lt;font style=&quot;font-size:14.11px;font-family:Calibri;color:#41719c;direction:ltr;letter-spacing:0px;line-height:120%;opacity:1&quot;&gt;Steveâ€™s notes&lt;br/&gt;1/5/22&lt;br/&gt;&lt;/font&gt;&lt;/div&gt;" style="text;vsdxID=30;fillColor=none;gradientColor=none;strokeColor=none;strokeWidth=2;labelBackgroundColor=none;rounded=0;html=1;whiteSpace=wrap;verticalAlign=middle;align=center;;html=1;" vertex="1" parent="15">
          <mxGeometry y="-0.6" width="101.6" height="101.6" as="geometry" />
        </mxCell>
        <mxCell id="19" style="vsdxID=43;fillColor=#FFFFFF;gradientColor=none;shape=stencil(tVFbDsIgEDwNnyQU4glqvcfGLi0RS7OgbW8vZEmsRn9M/JvZmX3ACNPGEWYUWsVE4YKL69MozFFo7aYRyaWMhOmEaW0gHCjcpp75DMVZ0DXcy4SV+2SjSo9WG/MD0xN7gc5Zouo11UrbK69y83mUWiWsLkoKCZILE4tV80ADyrxGWg9DncNSXBDnXfn3w7688S+HZfD8auu856T2+ns0ucSxmu4B);strokeColor=#2d4d6a;strokeWidth=2;labelBackgroundColor=none;rounded=0;html=1;whiteSpace=wrap;" vertex="1" parent="2">
          <mxGeometry x="730" y="508" width="145" height="145" as="geometry" />
        </mxCell>
        <mxCell id="20" style="vsdxID=45;edgeStyle=none;startArrow=none;endArrow=none;startSize=5;endSize=5;strokeColor=#bdd0e9;spacingTop=0;spacingBottom=0;spacingLeft=0;spacingRight=0;verticalAlign=middle;html=1;labelBackgroundColor=#ffffff;rounded=0;" edge="1" parent="19">
          <mxGeometry relative="1" as="geometry">
            <Array as="points" />
            <mxPoint x="-43" y="185" as="sourcePoint" />
            <mxPoint x="10" y="133" as="targetPoint" />
          </mxGeometry>
        </mxCell>
        <mxCell id="21" style="vsdxID=46;rotation=315;fillColor=#44749f;gradientColor=none;shape=stencil(vVHLDsIgEPwajiQI6RfU+h8bu22JCGRB2/69kG1iazx58DazM/vIjjBtmiCi0CplCjecbZ8nYc5Ca+snJJsLEqYTph0C4Ujh4XvmEaqzont41gkL96naodXKrGF6YSfQtUi0OXXDVlqPfJNP6usotUhYbJIUMmQb/GGrAxpRljVycDBuc1hKM2LclX8/7H9nFfB+82Cd45T2+mcspcSRmu4F);strokeColor=#2d4d6a;strokeWidth=2;labelBackgroundColor=none;rounded=0;html=1;whiteSpace=wrap;" vertex="1" parent="19">
          <mxGeometry x="-47" y="190" width="7" height="7" as="geometry" />
        </mxCell>
        <mxCell id="22" value="&lt;div style=&quot;font-size: 1px&quot;&gt;&lt;font style=&quot;font-size:14.11px;font-family:Calibri;color:#41719c;direction:ltr;letter-spacing:0px;line-height:120%;opacity:1&quot;&gt;&lt;i&gt;NOTE:&lt;br/&gt;Autosubmit â€“ rename/inverse of Display Form&lt;br/&gt;Autosubmit is triggered by the window opening&lt;br/&gt;&lt;/i&gt;&lt;/font&gt;&lt;/div&gt;" style="text;vsdxID=43;fillColor=none;gradientColor=none;strokeColor=none;strokeWidth=2;labelBackgroundColor=none;rounded=0;html=1;whiteSpace=wrap;verticalAlign=middle;align=center;;html=1;" vertex="1" parent="19">
          <mxGeometry y="-0.34" width="145.34" height="145.34" as="geometry" />
        </mxCell>
      </root>
    </mxGraphModel>
  </diagram>
  <diagram name="State 1 Pre Chat" id="j7_8gQ5vN-ezl5UMLki2">
    <mxGraphModel style="default-style2">
      <root>
        <mxCell id="0" />
        <mxCell id="1" value="Flowchart" parent="0" />
        <mxCell id="3" value="&lt;div style=&quot;font-size: 1px&quot;&gt;&lt;font style=&quot;font-size:11.29px;font-family:Calibri;color:#feffff;direction:ltr;letter-spacing:0px;line-height:120%;opacity:1&quot;&gt;State 1&lt;br/&gt;Pre Chat&lt;br/&gt;[spinner / form]&lt;br/&gt;&lt;/font&gt;&lt;/div&gt;" style="verticalAlign=middle;align=center;vsdxID=1;fillColor=#305497;gradientColor=none;shape=stencil(nZBLDoAgDERP0z3SIyjew0SURgSD+Lu9kMZoXLhwN9O+tukAlrNpJg1SzDH4QW/URgNYgZTkjA4UkwJUgGXng+6DX1zLfmoymdXo17xh5zmRJ6Q42BWCfc2oJfdAr+Yv+AP9Cb7OJ3H/2JG1HNGz/84klThPVCc=);strokeColor=#c8c8c8;spacingTop=-1;spacingBottom=-1;spacingLeft=-1;spacingRight=-1;labelBackgroundColor=none;rounded=0;html=1;whiteSpace=wrap;" vertex="1" parent="1">
          <mxGeometry x="952" y="120" width="101" height="88" as="geometry" />
        </mxCell>
        <mxCell id="4" value="&lt;div style=&quot;font-size: 1px&quot;&gt;&lt;font style=&quot;font-size:11.29px;font-family:Calibri;color:#feffff;direction:ltr;letter-spacing:0px;line-height:120%;opacity:1&quot;&gt;State 2&lt;br/&gt;In Chat&lt;br/&gt;[connected to chat agent or bot&lt;br/&gt;Chat window/transcript]&lt;br/&gt;&lt;/font&gt;&lt;/div&gt;" style="verticalAlign=middle;align=center;vsdxID=2;fillColor=#305497;gradientColor=none;shape=stencil(nZBLDoAgDERP0z3SIyjew0SURgSD+Lu9kMZoXLhwN9O+tukAlrNpJg1SzDH4QW/URgNYgZTkjA4UkwJUgGXng+6DX1zLfmoymdXo17xh5zmRJ6Q42BWCfc2oJfdAr+Yv+AP9Cb7OJ3H/2JG1HNGz/84klThPVCc=);strokeColor=#c8c8c8;spacingTop=-1;spacingBottom=-1;spacingLeft=-1;spacingRight=-1;labelBackgroundColor=none;rounded=0;html=1;whiteSpace=wrap;" vertex="1" parent="1">
          <mxGeometry x="952" y="234" width="101" height="88" as="geometry" />
        </mxCell>
        <mxCell id="5" value="&lt;div style=&quot;font-size: 1px&quot;&gt;&lt;font style=&quot;font-size:11.29px;font-family:Calibri;color:#feffff;direction:ltr;letter-spacing:0px;line-height:120%;opacity:1&quot;&gt;State 3&lt;br/&gt;Post Chat&lt;br/&gt;[print, rate (if applies), etc]&lt;br/&gt;&lt;/font&gt;&lt;/div&gt;" style="verticalAlign=middle;align=center;vsdxID=3;fillColor=#305497;gradientColor=none;shape=stencil(nZBLDoAgDERP0z3SIyjew0SURgSD+Lu9kMZoXLhwN9O+tukAlrNpJg1SzDH4QW/URgNYgZTkjA4UkwJUgGXng+6DX1zLfmoymdXo17xh5zmRJ6Q42BWCfc2oJfdAr+Yv+AP9Cb7OJ3H/2JG1HNGz/84klThPVCc=);strokeColor=#c8c8c8;spacingTop=-1;spacingBottom=-1;spacingLeft=-1;spacingRight=-1;labelBackgroundColor=none;rounded=0;html=1;whiteSpace=wrap;" vertex="1" parent="1">
          <mxGeometry x="952" y="342" width="101" height="88" as="geometry" />
        </mxCell>
        <mxCell id="6" value="&lt;div style=&quot;font-size: 1px&quot;&gt;&lt;font style=&quot;font-size:11.29px;font-family:Calibri;color:#feffff;direction:ltr;letter-spacing:0px;line-height:120%;opacity:1&quot;&gt;Conditions have to be met between the states.  Actions done to change the UX.&lt;br/&gt;&lt;br/&gt;o/s â€“ add conditions between states&lt;br/&gt;&lt;/font&gt;&lt;/div&gt;" style="verticalAlign=middle;align=center;vsdxID=4;fillColor=#5b9bd5;gradientColor=none;shape=stencil(nZBLDoAgDERP0z3SIyjew0SURgSD+Lu9kMZoXLhwN9O+tukAlrNpJg1SzDH4QW/URgNYgZTkjA4UkwJUgGXng+6DX1zLfmoymdXo17xh5zmRJ6Q42BWCfc2oJfdAr+Yv+AP9Cb7OJ3H/2JG1HNGz/84klThPVCc=);strokeColor=#c8c8c8;spacingTop=-1;spacingBottom=-1;spacingLeft=-1;spacingRight=-1;labelBackgroundColor=none;rounded=0;html=1;whiteSpace=wrap;" vertex="1" parent="1">
          <mxGeometry x="952" y="457" width="101" height="127" as="geometry" />
        </mxCell>
        <mxCell id="2" value="Callout" parent="0" />
        <mxCell id="7" style="vsdxID=5;fillColor=#FFFFFF;gradientColor=none;shape=stencil(tVFbDsIgEDwNnyQU4glqvcfGLi0RS7OgbW8vZEmsRn9M/JvZmX3ACNPGEWYUWsVE4YKL69MozFFo7aYRyaWMhOmEaW0gHCjcpp75DMVZ0DXcy4SV+2SjSo9WG/MD0xN7gc5Zouo11UrbK69y83mUWiWsLkoKCZILE4tV80ADyrxGWg9DncNSXBDnXfn3w7688S+HZfD8auu856T2+ns0ucSxmu4B);strokeColor=#2d4d6a;strokeWidth=2;labelBackgroundColor=none;rounded=0;html=1;whiteSpace=wrap;" vertex="1" parent="2">
          <mxGeometry x="825" y="50" width="101" height="101" as="geometry" />
        </mxCell>
        <mxCell id="8" style="vsdxID=7;edgeStyle=none;startArrow=none;endArrow=none;startSize=5;endSize=5;strokeColor=#bdd0e9;spacingTop=0;spacingBottom=0;spacingLeft=0;spacingRight=0;verticalAlign=middle;html=1;labelBackgroundColor=#ffffff;rounded=0;" edge="1" parent="7">
          <mxGeometry relative="1" as="geometry">
            <Array as="points" />
            <mxPoint x="88" y="118" as="sourcePoint" />
            <mxPoint x="79" y="103" as="targetPoint" />
          </mxGeometry>
        </mxCell>
        <mxCell id="9" style="vsdxID=8;rotation=61;fillColor=#44749f;gradientColor=none;shape=stencil(vVHLDsIgEPwajiQI6RfU+h8bu22JCGRB2/69kG1iazx58DazM/vIjjBtmiCi0CplCjecbZ8nYc5Ca+snJJsLEqYTph0C4Ujh4XvmEaqzont41gkL96naodXKrGF6YSfQtUi0OXXDVlqPfJNP6usotUhYbJIUMmQb/GGrAxpRljVycDBuc1hKM2LclX8/7H9nFfB+82Cd45T2+mcspcSRmu4F);strokeColor=#2d4d6a;strokeWidth=2;flipH=1;labelBackgroundColor=none;rounded=0;html=1;whiteSpace=wrap;" vertex="1" parent="7">
          <mxGeometry x="91" y="119" width="5" height="5" as="geometry" />
        </mxCell>
        <mxCell id="10" value="&lt;div style=&quot;font-size: 1px&quot;&gt;&lt;font style=&quot;font-size:14.11px;font-family:Calibri;color:#41719c;direction:ltr;letter-spacing:0px;line-height:120%;opacity:1&quot;&gt;o/s â€“ Name the Customer Experience states&lt;br/&gt;From Dec â€˜21&lt;br/&gt;&lt;/font&gt;&lt;/div&gt;" style="text;vsdxID=5;fillColor=none;gradientColor=none;strokeColor=none;strokeWidth=2;labelBackgroundColor=none;rounded=0;html=1;whiteSpace=wrap;verticalAlign=middle;align=center;;html=1;" vertex="1" parent="7">
          <mxGeometry y="-0.6" width="101.6" height="101.6" as="geometry" />
        </mxCell>
      </root>
    </mxGraphModel>
  </diagram>
  <diagram name="State 2 In Chat" id="CJQj4Yy159A--iB6ShQn">
    <mxGraphModel style="default-style2">
      <root>
        <mxCell id="0" />
        <mxCell id="1" parent="0" />
      </root>
    </mxGraphModel>
  </diagram>
  <diagram name="State 3 Post Chat" id="llO3NcEJeO1QT6SpaGhu">
    <mxGraphModel style="default-style2">
      <root>
        <mxCell id="0" />
        <mxCell id="1" parent="0" />
      </root>
    </mxGraphModel>
  </diagram>
  <diagram name="ex screen shots " id="uyXp7lcSz76H6U9JZF7A">
    <mxGraphModel style="default-style2">
      <root>
        <mxCell id="0" />
        <mxCell id="1" value="Callout" parent="0" />
        <mxCell id="2" style="vsdxID=1;fillColor=none;gradientColor=none;image;aspect=fixed;image=data:image/jpg,/9j/4AAQSkZJRgABAQAAAQABAAD/4gIoSUNDX1BST0ZJTEUAAQEAAAIYAAAAAAQwAABtbnRyUkdCIFhZWiAAAAAAAAAAAAAAAABhY3NwAAAAAAAAAAAAAAAAAAAAAAAAAAAAAAAAAAAAAQAA9tYAAQAAAADTLQAAAAAAAAAAAAAAAAAAAAAAAAAAAAAAAAAAAAAAAAAAAAAAAAAAAAAAAAAAAAAAAAAAAAlkZXNjAAAA8AAAAHRyWFlaAAABZAAAABRnWFlaAAABeAAAABRiWFlaAAABjAAAABRyVFJDAAABoAAAAChnVFJDAAABoAAAAChiVFJDAAABoAAAACh3dHB0AAAByAAAABRjcHJ0AAAB3AAAADxtbHVjAAAAAAAAAAEAAAAMZW5VUwAAAFgAAAAcAHMAUgBHAEIAAAAAAAAAAAAAAAAAAAAAAAAAAAAAAAAAAAAAAAAAAAAAAAAAAAAAAAAAAAAAAAAAAAAAAAAAAAAAAAAAAAAAAAAAAAAAAAAAAAAAAAAAAFhZWiAAAAAAAABvogAAOPUAAAOQWFlaIAAAAAAAAGKZAAC3hQAAGNpYWVogAAAAAAAAJKAAAA+EAAC2z3BhcmEAAAAAAAQAAAACZmYAAPKnAAANWQAAE9AAAApbAAAAAAAAAABYWVogAAAAAAAA9tYAAQAAAADTLW1sdWMAAAAAAAAAAQAAAAxlblVTAAAAIAAAABwARwBvAG8AZwBsAGUAIABJAG4AYwAuACAAMgAwADEANv/bAEMAAwICAgICAwICAgMDAwMEBgQEBAQECAYGBQYJCAoKCQgJCQoMDwwKCw4LCQkNEQ0ODxAQERAKDBITEhATDxAQEP/bAEMBAwMDBAMECAQECBALCQsQEBAQEBAQEBAQEBAQEBAQEBAQEBAQEBAQEBAQEBAQEBAQEBAQEBAQEBAQEBAQEBAQEP/AABEIAhkChQMBIgACEQEDEQH/xAAdAAACAwADAQEAAAAAAAAAAAAABgQFBwECAwgJ/8QAWhAAAQMDAQMIBwQGBAwEBAQHAQIDBAAFEQYHEiETFDFBUVSRkhUWIlJTYZMycaHRIzRCYoGzCDNEVQkkNTdDZHJzdILh8BdjsbI2g8HDJVaUo9IYJ0WiwoT/xAAZAQEBAQEBAQAAAAAAAAAAAAAAAQIEAwX/xAAzEQEBAAECAwcCBQQCAwEAAAAAARECIQMxQQQSM1FhcYEisSMyNMHwBRRTkUKhE1LhJP/aAAwDAQACEQMRAD8A+/uc2w/25j6o/Ouwk23v8f6qfzqymW6KLslIitY5sT/Vj3xQuFDQMqjMgdpQmvLTweHoudGmT2jV16rzqt53bu/R/qp/OjnVu79H+qn86n81t/DDDBJ6ghNeht0QDPNGuH/livVlWCXbgMc+j/VT+dHOrcSSZ0fJ/wDOT+dTZTdrhRzKmJiMMpOFOO7iEj7yeFQm7xpJ5xLLV0tC1rISlKX2iST0ADPGgOdW7v0f6qfzrgybYocZ0f6yfzq19HRe6tfTFHo6L3Vr6YrOrTp1zu6pmEtm8VIftffo/wBcfnXfndtAwJ0b6qfzqz9HxejmjX0xR6Oi91a+mKmjh6OH+SSey2286qudW7OefR/qp/OuTLtxGDOj8P8AzU/nVp6Oi91a+mKPR0XurX0xW0VYl24f22N9VP50GXbj/bo/1U/nVp6Oi91a+mKPR0XurX0xQVSpNtUMGdH+qn86A/bBgidHz/vh+dWvo+KP7K19MUejovdWvpivLVwOFqve1aZb7Rrvap1VZlW7Oeex/qp/OjnVu79H+qn86tPR0XurX0xR6Oi91a+mK9eTN3VfO7d36P8AVT+dHOrd36P9VP51aejovdWvpij0dF7q19MUFXzu3d+j/WT+dHO7d36P9VP51aejovdWvpij0dF7q19MUFXzu3Yxz6P9VP50c6t3fo/1U/nVp6Oi91a+mKPR0XurX0xQVRk209M6P9VP51xy9r6efR/rD86tvR0XurX0xR6Oi91a+mK8tfA4XEudemW+slamrVOVVRk20/26P9VP50c6t3Rz6P8AVT+dWvo6L3Vr6Yo9HxR/ZWvpivSSTkyq+dW4f26P9VP51xzq3Zzz6P8AVT+dWvo6L3Vr6Yo9HRe6tfTFUVfO7d36P9VP50c6tpHGdH+qn86tPR0XurX0xR6Oi91a+mKCpMi2n+3R/qp/Ou3Ord36P9VP51fRbTBcbKlwmSc/DFe/oW3dxZ8gqTTJygWjLtxGOfR/qp/OuBKto/t0f6qfzpm9C27uLPkFHoW3dxZ+mKoWueW7GOfR/qp/OuOdW7OefR/qp/Omb0Lbu4s+QUehrd3FnyCgWud27v0f6qfzo53bu/R/qp/OmX0Lbu4s+QUehbd3FnyCgWjMtx/tsb6qfzoEu3D+2xvqp/OmT0Lbu4s+QVBctsVLikiI1wJH9WKCoMq3HH+PR+H/AJyfzrnnduxjnsb6qfzq0Fvin+yND/5Yo9HRe6tfTFBViXbh/bY31U/nRzq3d+j/AFU/nVp6Oi91a+mKPR0XurX0xQVfOrd36P8AVT+dHOrd36P9VP51aejovdWvpij0dF7q19MUFXzq3d+j/VT+dHOrd36P9VP51aejovdWvpij0dF7q19MUFXzq3d+j/VT+dHOrd36P9VP51aejovdWvpij0dF7q19MUFXzq3d+j/VT+dHOrd36P8AVT+dWno6L3Vr6Yo9HRe6tfTFBV86t3fo/wBVP50c6t3fo/1U/nVp6Oi91a+mKPR0XurX0xQVfOrd36P9VP50c6t3fo/1U/nVp6Oi91a+mKPR0XurX0xQVfOrd36P9VP50c6t3fo/1U/nVmbfEA4xWvpig22IElfNGsAE/wBWKCs51bu/R/qp/OjnVu79H+qn866InxFpC02YbqhkcEDIrnnsb+5h/AIoO3Ord36P9VP50c6t3fo/1U/nXXnUY9Fl/BFHPYRbQpFo3lK3sp3UDG6rdPH76Dtzq3d+j/VT+dHOrd36P9VP51157H/uT8EVxz2Of/7H+CKDvzq3d+j/AFU/nRzq3d+j/VT+ddedx+qx/gipsBqFObW5zBDZbVuKSpCenGer76CJzq3d+j/VT+dHOrd36P8AVT+dWS7fCSMmKyB1ktiqTTGpdFayTJVpmdDniIpKXuTb+zvZ3TxHEHBwRwODigk86t3fo/1U/nRzq3d+j/VT+dWgt0QH9Ua+mK5NtikEiKzw6f0YoKrnVu79H+qn86OdW7v0f6qfzquuWuNmlnuyrDd9UWKHckqSgxHnm0uBSsboIPQTkeNMht0QEgxGsjh/VigrOdW7v0f6qfzo51bu/R/qp/OrT0dF7q19MUejovdWvpigq+dW7v0f6qfzo51bu/R/qp/OrT0dF7q19MUejovRzVn6aaCr51bu/R/qp/OsovYbe2iXRTS0rRzeFhSSCM7i62s26KCQYrXD/wAsVkd8joRtJuyEICU82hHdAwPsLr14f5NftPu8OJccTR8r6AwEtHgeqirCEz+i4DqFFc+HvmtDmsf/AIukY/sp/mCsz17Z9O3vafYLNrANLtR09c5SGn5CmmlSUy4iUqOFJyoIUsDJ6Ca1yahAvAJH9kP8wVX3nTenNRNoYv8AYLddG2iVNpmRUPBBIwSneHA47K2PnTWEHY16ubRIWlrL6P1DpO2THob/ACz6eVebipdQ/GVyhDgQp1oHHQrAIweP0U00VtoUsZJQgknrJSCf/rSpa9hmzC1almarb0xHduMmYma2p3KkQ1COhjcYbGENo3G05Tg5PE54Yfd1scBQZBtK07L17rmzbP1TYMSA1bZF+UZFtRMDkht9EdsFtwhBSEvrPEHjg9QrLX9SbKdR7FrmhemNPW3V69MtutBqzsR1PTXWiUc0UEBSlb2PsHKSRxzX0BrXZlb9ZXaDfBqK62ebBYMdLsAsnfb5ZDwCg6hY4ONpIxjowcjhVppjRentJWW22S1wm1NWuM1FZddaQp4pbGAVL3c56/v6MUE4sYP2epOejp3RmjkP3asdxquChvqoMi1NKmta7uzIm8kI9jDkRBuC21cqWnyVNshOHTkJJJIxgVEtm0TVz7kmG1ZIf+KJjxmzIkjli4pxpsuONpO/uqDhXndHVxOa2RbDC1BZaQVJzhRQCfEjNAjx+ULvIthZG6VbgyR2ZxmgyGVtA1fbrfLkTLNBddS2AwWlLShtSZZjrccKyAEcA50jA4E9dSIOttaS+QLlotjKFGLGcLbqn8uyG3CFoUglBSlSE54nOcZ4cdYUyyoEFCcEYI3Rgj7qEsR0JCENISlPQEpAA8KDLNBavv8Aeptqtt7k259Ui0NylORULKnHsfpN4Zw1g8MKHtHODwxWi8h+7U1EeM2srbZbSojdJS2kHH3gV33UUCJrhxEddqYuVwft9pkPupmyGnC10NktIU4PsJUrOTw6AOuqORreZa7kLfa+azIkZCG22nluKlyUqYU4JAPQWwU4Jxx4nIOAdVW004gtrSlSVDBSpIIP3g8K4LDJUFlCd4JKAdwZA7M46Pl0UGRp2gaojCIm7QbcwXZUTllthxzDT7CXEpQ3kKWsKVukjgBxIAzXl67326PMNoaYUOexnlNwlL5WMkPKQqO/vcN5QHUB0HhjBrYVsR1FKlMtqKDlJLYJH3cOFcpZZSVKS2kFZ3lEJAJPae0/M0CBs01NedYWyVcLtbokVKHEciliQlxSUqGShxKVKKVJ6DnGewU4hjj9mpqWI7eS22hG8d5W6kJyfngcf412KUY6KDJ9b3K/2TUV1u8KTJVboFhBkRkAkJLi3AH0AD7aCE5/dJ7KqbprrWymr5brXEgxfRUDeRIfdC399CWiXS0FbykKC1cd0AYzk1tyWmukgcRjoHRXUx45XypabKyndKigZKezOM4+VBlatfaij3E2w6falKS6YgdYK9x18/pG9zp9lTCSrPvFIryteudR3aTCgQUWiUqc+wFSGeVU1GQtC1KaXniXU7g7B7XQK1oMshQUlIGMYAAAGK4SwwkkpbQnKio7qQOJ6+A6fn00Gc7LL5dL/ZlouqFNPRFcmG5G9zlY31gOr6txQxu46hx7KeeQ/dqfhsHglIJGCQAOHZXO638qCv5D92lPaQhxmwofTc0Q0NPhxaFylRhJAQo8kHUglBPSO0pwemnvdb7R411caYdSUOJQtJx7KgFDh8jQZLI2hXVl4pt8FlxDbADUB/lOfKTzXlg+rHs7mfZPX08c8Kkp1/c7hMWjT8KJMiNF1anElai4hqIh4oRjgVFSygdQx28K1Pk2t8PFCN8Dd3sDOOzPTj5VwlqMgBLaW0gdSUhOPCgx87RdR88scOJHs1w9Ijl3n2pPJMhJcCSwguLBLqQcngf9kU2aCv0zU1slSLgmOmTGlrYWiOFFtOOICVkkOcP2knHVwNOJiRCAORawFb4G4nAPb0dPz6a7NsR2k7rSEIGScJSEgk/IUBCY/RH2f2jWY691jdLTtCtLESBf1W+1mOZj0SCt2GsSF7jgfcAwnkm91wf7Va1FcjtNELWAck0i6m237PtKXyRYbs3eFTIhSHFRrLJfbyQCMLQgpPSOg1vRw9fEuNGm2+jGviaOFM67J7kVjbJqF2Lcpm9p9SUOIbSUvO7tuPOxH/xpWOBUk8oAAPskdHtVJga61G9MjXOVCVPTyLTYEJbgjyVNrlfp2R0qS4G04CieB68CvZrbLsPYtiLO3a9QCK2+iQEer00kuJXvpJPJ5V7Xbns6KtUf0j9liEhCWNRJSkAJA05MGAOgD9Hwr1/tO0f49X+nj/d8D/Jp/wBwsr2waijTNIR40uw3k3qfuTuZFSUsx3HktJCFLWCtxpSvbSEqOBnCRxrytm0fV0TTwfvV0snpFTTbD92dDzcGItUuQ2Q63ngpIbSDxGSoZIFM7f8ASG2StqStMG/JUhSlJI01LBBV0kYa4Z667K/pFbJ3G1sLiX8tu5K0nTczCieJyOS4/wAaf2naP8er/VP7vgf5NP8AuIdn2g60ulys7yrVb02xSrezMUOV5R9UrlUhxnIwEAoSsb2SUr6ukuG1B++W3Qt4m6ZXLRdmmEmDzWJzlxcjfSEIDfDeCjhKuIwkk5GM1B09t02dakvESw2tq9Jky1htrl7JKZbBAz7S1thKRgdJNaHy8Q/6RNeWvh6+Hca5Z7vbRxNHEmdFl9mZbGLhr+86fnSNp0FyBqJue43JgJa3Y8RISncQw5x5dsj2uUzxJIwMYpudZ/TLO70KNX/OInxU+NV6ktqUpWR7RJ6aw2wGHqDXGl7Ixe27e+6m7qDSDdLghTfKpLq1PZKwGkrSEoSkqBzxxw43t41DrObKiSkxI0eFDvHJuxmVul2QlqKp4p30+zulRCeAIOB91a84xGcQWloQpBxlKkgp4dHAjFduTa4YSkY6MAUGT2jXOpbtKhwYzNokiQ6VOTGOVLKW+bqeLY6+USU7p449odHRXlA19q4IjTrvaYDUNSYjr4YS844lMllbgAGOJQUe1272Bg9OtoYjoTupQ2hOScJSBxPSeArtyTGMYSPuAoMUtO0zV11tSpESz20vsGa64srWptxphlt5IRuKV7Sg4U8TwI+RFTbrtHvrNtl3CDFthdE4Q24jzhQ5DT7X6WQVKSkJVujdwR9pPE9Fa6liMhO6hDaQOpKQB+FcKjRVb5Uy0ouDdUShJ3h1A8OI++gprM5Jn2iDOmRm2X5EdDrjbbgcShRGSAocFDsIqZyH7tTwhsAJGAAMADAFc7rfyoK/kPlWe6juuobHrl1+I3IkwX4ESCiOlJKES33HQ05js3k7qj2EZ6K1Ldb+VG63jGE/f10GI6b1rq2EuxadehNzSmEHJcuXJSh6QoqdyWwVAq3eTGQEqzvDoqdB17rZCWJk+yW5xpSGFqajl3lCX4i30pBIx7Jb3TwOd7hjGDrqmI61JWtppSkZ3SUAlOezhw/hXZKGwcgJGOjAFBkts1tq68PRrZambLMdedV/jbRd5uRzYvcmOvfCt1BJOPaB4HhTbpC9SdUQHbmuGhiMHAyyOO8paUgPZz1BzeSP9k00OQ4647kZP6NLiVJJawhQ3ukggcD866W22QLRAYtsBrk48dG4hO8Se0kk8SSSSSekk0HhyH7tHIfu1Ybrfyo3W/lQIe09ERrSpW89cGZwkt+iTbgVSVTuPJJQn7K8nIUlfsbu9vYAyKDYuNUP2ucblurtHJt8zXvrUBKwrnaGFL9pcQOcGlK4n2gMpCSdaITjgEkjozQUNFBQCBlO7jqHCgz9AbjQBJcSd1treOBngBUDTlzcupcQ+0ULQoLTlBSChR4D+HQabG7HcW20thEYhKcZ5bp/hiuyLPcEcEsRgP8AfD8q4OLo7Ze16NXD1ScGS96dbelns6OHeBODqmqXv27XpGObLbrfbhqK/N3uU3KkubzzqUPuqMFSXloRHcbV7CFFGFDcxkcTnprSkNcWyU94/nVcos89JWRGipKzlRDqQVHo4kDj/GuyrHLS2ypAYUsB3fSXMY3nN4cevhXdeWzwlxcvi/bvtd2iWTahdrPY9QzLc3Zywi2w4zAcTLcUhKlFzt4no7K2Hadd7wdF6aflynLRMnI5aUjnioqUvCNvhHKgE7wXxQ3jCyN0kDjWwO6LjPyhNeslsW+Fb/Kq3Cve7ckZz86nLs0xaQhyLEWkYOFOJUMjrwQRn519v+qdr/p/aeBwdHY+D3NWmY1X/wBv5Xyf6f2ft3B4vF19r4k1adV+meTJNIXW23XX8oQL/JU+1ACLhClzMrcfw2d5Eb/RBvJCiOkqxxxmtW0+zkTPZP6x/wD6JrsLFJS6X0QYIdV0uBSAs/erGT/E1a2e3rhsvGQUBbzvKbqVZAGAOn+FfFfVZZtXtkW86y0hYLjIkLhS27kqXEbluREoZS0kGWXkKHFClJbCCePLkj7Oay6S1fZWlZ2odRabXpu4WVi2w402MJMM26Glwl1Qjlf+OCJ7O6sZSsOkdGa+nNR6P0pq6M3E1RYoV0ZZUpbSJLYWEFSSlWPvSSKUNNbE9NWyU1O1NJXqiTCjxIdueuTKN6FGjqUW20bvSckKKj9opST0UDqWMk8Ky7b1qlenrDEtduvcmJcZklqQ5GhK3ZcqA2vEhLKyCltRKkDfVgdIyCRWxlLROQRk9PGlvU+h4OpZcK6t3i5Wi6W4OJjT7e8lDobcxvtqCgpC0EpSd1QOCARg0GB7MtI6t2gaevdlk7QoblkvQ5XULKIZXceevICVslSglKUGOhr9IASVBRTwwa+jyxvHJT04/KoeldH2zScaWiNLmTpdwfMqbOmvco/Jd3QkFRAAACQAlKQEgdAq83W/lQKsiZqRu5XaPH0wl6JEgoft8jnraTNkkL3mNw8W8EIG+rgd75V5xLjqt53T6JWkEMN3CGt27rE9tfot8NpUlkAf12V7yN5PAbueg03brfyo3UfKgr+Q/drLdo9wv+ldRIm7OYrl61Bc2d6bYVKUptbDY3RN/wDKU30boxy2AgDfwa2LdR2jxqJGtNsizptyYgsNyp5QZL6U+29uJ3Ubx7EjoHQMnrJoFTZ5DtZ001cbbfXr2q5LMuVcHVEKfkKACzuf6IJKdwN4G6E4PHJKDfmf/wCpt3G7/oIA/wD211tUG1W23LluQYbMdU18yZBbTu8q6UhJWR0bxCRk9eMnjxrI9QBH/ideDkcGIB//AG1168P8mv2n3eHF8TR8mKEwA10dlFTYIa5L7Serrorne8PTzKH7yA4neTzU/wAwVKFujb2dyvBPG9JH+qn+ZSprraCnTOpLRa258RlrebfuCHftrjuOhlO4eohais/uoVWw4m2RCc8lR6LifCpMk7W4kZUkuaduO428/HjKCmzzpbMpMdYSN7KfaWCCrAIz2VEO04vXZPOGX4MZkNNSWClDjjT4lqaWCoEpKN1OcpJ4Hhx4U64D96LifCo9GRepsCkqftbjWyHa51wsMtpq6vIDaUvsrcQwsoSl9SUqJCcrSCOkE8RUW2bUprjLTt0sclFwfU/HYgtLaUl1SZamUHlN7CThJJyQOB+VBoPo6N7go9HRvcFJ0ParGmTWIqNO3FKOVYYlvEt7sV111xlKT7WVYW2QSnIwQeinuh6Ivo6N7go9HRvcFSqKCL6Oje4KPR0b3BUqigi+jo3uCj0dG9wVKooIvo6N7go9HRvcFSqKCL6Oje4KPR0b3BUqigi+jo3uCj0dG9wVKooIvo6N7go9HRvcFSqKCL6Oje4KPR0b3BUqigXdU26MLYlQR/aGf/eKW3IcVtClq9lKRlSicADrJpt1V/kof8Qx/MFZRthW63oCesh3mYfhm5cnne9H84Rzro445MnP7u986CONp+zovpQLnIMZS+T9ICE/zLezjHOd3kunh9qmSxTbHqOzQ9Q2Z8SYE5ovR3k5AWjeUnIz80mvO/2TTWpdNrtVzcBsbraVExZZjtCOAcYWggcluHo+yRjqqq2TiEjZ1aI9oszdqtEZD0e0xWyohFvQ6pMY+1xypACuPvUD/a9LQZ0JMh110FRUMJ6Bg4qWNE2347tUerhcl6CbYtJc5w/OjMgIfUxvJVJSFAuIBUkEZyQDwpb1LddW2lE+JZlLhSrZEmBKuUdktqWmC0tKjvYKt1RUB0ZPEjORQaD6k2747tHqTbvju1n7m03Wyrnc4kO3Wt1uIhphlZewpxaltJD4bCistK5RRHDgAOJrXI4eSw2mQ4lToSAspTgFXWQD0Cgo/Um3fHe8aPUm3DgJEgDs36YM/vHwrn+Nb0cTXw/yXDz4nB4fG24mmX3L3qVb+8yPNR6lW/vMjzUw/wAaP41v+54//vf9vH+y7N/jn+oXvUq395keaj1Kt/eZHmph/jR/Gn9zx/8A3v8As/suzf45/qF1OibeN7MiQQrpBVwxVZd7BCtzraG1LUFoKuJ6MEU6Z+Zpe1OQZDA3j/Vr/wDUVjXxNfEuddy9uHwuHwZ3eHpknoStQ3bTOlrf6Tv01uKwVpaQVZKnFnoQhI4qUewAmq+x6x0hqGebTAlSGp4QXREmRnYr6mx0rSh1KVKT8wDS9q2/WzTW1CFddQMPSQmx8jp6O22VrfuC5CxIQynoLym+QAPSEb5yBmq7Vmnrkpu16s1A+25raTeIDdlYac3kW5oyEl9hr3gWOU5ZzoVgdCQKw9GqcwY7D415LYhNuNsrWlK3SQ2kqwVkDJwOvA41OIAUrdPDeOPuzSjtM9B+r7fpMyhOMgC0GAkGaJ2P0fN/3unIPslO9vezQMJjw0rQ2tYSp3O4kqwVYGTgdeBXfmMf/vNZ3s89Ni/vp2ockdapjnmwa/U0weGeZ9pz/Wn7W9w+xu50zJ7RQR+Yx/8AvNHMY/8A3mpGT2ijJ7RQR+Yx/wDvNHMY/wD3mpGT2ijJ7RQR+Yx/+80cxj/95qRk9ooye0UEfmMf/vNHMY//AHmpGT2ijJ7RQR+Yx/8AvNHMY/8A3mpGT2ijJ7RQR+Yx/wDvNHMY/wD3mpGT2ijJ7RQR+Yx/+80cxj/95qRk9ooye0UHhzKP2nxNHMmO0+Jr3ye0UZPaKDw5lH7T4mgQY+f+pr3ye0UZPaKDy5jH/wC80cxj/wDea9cntFGT2ig8uYx/+80cxjf95r1ye0UZPaKDy5jG/wC80cxjf95r1ye0UZPaKDy5jG/7zRzGN/3mvXJ7RRk9ooPLmMb/ALzRzGN/3mvXJ7RRk9ooPLmMb/vNHMY3/ea9cntFGT2ig8uYxv8AvNHMY3/ea9cntFGT2ig8uYxx1f8ArSKmLGOv7whbKFgMwcZTnhyaqf8AJ7RSInjtBu/+5g/y1V78Lw+J8fdz8XxdHz+x4tUWMpTra4jBCEoI/RjrBor1tP8AWv8A+w1/6GiuOuiGxH+W0/8ACH+ZXaVYrRMMoyrdHeM1oMyN9sK5VsAgJVnpHE8PnXRH+XE/8Ir+YKsq9Qlf+FOl/Rc+3CIneuUkvyH93K1pMkP8nxPBOQE8MZAB6avI2kdMw22Wo9litpY3eTwjinDhcHE9Ptkq49ZzVzSFtjnXKNp62Qbbc5EA3a/2q1vPxlBLyWH5SEOBCiDukpJGccKXe5FwNnWh8NJGnIeGHC42N04SSQTgZ6MpSd3oyAcVIf0TpN9qQy7YoqkSlqcdG79pSnOUUc9RKxvcOvjWPNP7SNj+0JaJHrDqLR97vVqtrL82Sw8mEiSlDHKBeUuAiUrCkbigUrBBGCK1baBreNoKzxbzMhuyGXrhGhu8mRlpDq91Tpz0pQMqIHHApJc7Czj6Y0/DZQzGs8VttAZACWx/olFTflKiR8yTVonopGlbW9L2696gt12lIhwdORoj8q4urAZ3nlEbg/2fYyej2x86lydqWh0ynrTD1Ta3rkmGqa3HMlI3mwwHwSegAtlK8+6c9FJMQ5m+is4s23HRUyRdDdb1b7dGh3gWSO69KSOcSQhBWAOobywAevIPDNWTm2HQCbrbLQzfWX3rrdXbMwWvaTzttsrU2SOHQnH30DrRXAORmuaAooooCiiigKKKKAooooCiiigKKKKCm1YQm07yiAkPskk9X6QUqLlQHW1NrkMqQtJSpKiCCCMEEHpFNuqAFWxKVAEGTHBB/wB6mle7at0/Z783pdVuXJujyGHWY7DCVKdQ4taSRnHBAbUpROABjrIFAjjZVs0QeTTDdELeDgtguT3MN7Of1ff3MZ6sY+VOXO4SE8mh9pKU4SlIUAAAMAAdQq5Zuul5qnkQ5tteMcrQ7uKbO4Ufb3uzHX2VNRFhupDqI8dSFYKSG04IIyCOFEyh23U9siQkRnlbyklRylSSOJz21KOsLMene8U/nXrzKH3Rj6Y/KjmUPujH0x+VFeI1bZArfCOO7u59jOOzprt652kcAV+Kfzr05lD7ox9MflRzKH3Rj6Y/Kg8/XO09q/Mn8659c7T7yvFP5135lD7ox9MflRzKH3Rj6Y/Kg6eudp95Xin86PXO0+8rxT+dd+ZQ+6MfTH5Ucyh90Y+mPyoOnrnafeV4p/Oj1ztPvK8U/nXfmUPujH0x+VHMofdGPpj8qDz9dLR7yvFP51WXi+2+4ONuIdCNxJThahxyR86t+Ywu5sfTFBhQz0xGfpigRb7adM6nhJgXxqPJaQ4Hmjv7rjLg6FtrSQpCh2pIOCR0VDs2ktI2KYbpFW7JnBstJlz5q5TzaD0oQpxR3UnrAxmtG5lCH9kY+mK55nDH9kY+mPyoFbnsQ/2lrziuq3bc44h5bkdTjW9yazulSMjB3SejI4HHSOFNYiRB0RGfpj8qOaRO6s/TH5UCmpy2rcaeWuMpbJJbUSklGRg7p6sjgcdNenPYneGfOKaOaRO6s/TH5Uc0id1Z+mPyoFfnsTvDPmFHPofeWfMKZ1RIuP1VnpH+jH5VSJutmt7lmts9hsPXRh1bThaTuZabC1hR6jukkduDVkyluEPn0PvLPmFHPofeWfMK6Na70a9Y13tnkF8klhbsZKEF9pLzgQ2VI6QDvA/cc1fS5mnYMd2VMkW5lllAccdWpCUpQSQFEnqJB40wTdSc+h95Z8wo59D7yz5hTK3Ht7zaXWo8daFpCkqShJCgeIIPZXbmUPujH0x+VRSxz6H3lnzCjn0PvLPmFM/MofdGPpj8qOZQ+6MfTH5UCxz6H3lnzCjn0PvLPmFM/MofdGPpj8qOZQ+6MfTH5UCxz6H3lnzCjn0PvLPmFM/MofdGPpj8qOZQ+6MfTH5UCxz6H3lnzCjn0PvLPmFM/MofdGPpj8qOZQ+6MfTH5UCxz6H3lnzCjn0PvLPmFM/MofdGPpj8qOZQ+6MfTH5UCxz6H3lnzCjn0PvLPmFM/MofdGPpj8qOZQ+6MfTH5UCxz6H3lnzCjn0PvLPmFM/MofdGPpj8qOZQ+6MfTH5UCxz6H3lnzCjn0PvLPmFM/MofdGPpj8qOZQ+6MfTH5UCxz6H3lnzCjn0PvLPmFM/MofdGPpj8qOZQ+6MfTH5UCxz6H3lnzCjn0PvLPmFM/MofdGPpj8qOZQ+6MfTH5UCxz6H3lnzCjn0PvLPmFM/MofdGPpj8qOZQ+6MfTH5UCxz6H3lnzCjn0PvLPmFM/MofdGPpj8qOZQ+6MfTH5UCxz6H3lnzCjn0PvLPmFM/MofdGPpj8qOZQ+6MfTH5UCxz6H3lnzCkdtxDuv7w42tKk8jBGQc8eTVWvmHDx+qMfTH5VlEpKUbS9QIQlKUhEHAAwB+iNe/Cv4fEnpPu5+L4mj5/Y7Wn+tf8A9hr/ANDRXNoGXZH+w1/6GiuSx0Q1I/y4n/hFfzBVlVaj/Lif+EV/MFWVegKS9q1hvN9sMJdhjNyptqvFuuyIy3Ut8uI8hLimwpXBJIBAJ4Zp0rNdr151LBuekbNYr4q0tXu6KhPSWGUPyA4WyWcNK+00FZLhHEBI6ASQFXdp+vdobluscjQKbTHiXy2XCVMXd4r4ZREltyFJKG1qUVK5LdHD9rj0VouotMwdTMQ41wKuSiS25e4ACHCgKG6rP7JCiDXy5Y9RM26z36/7P5t1sU+w26PHkLcQy+m7OOzXGmX5Zz/i6w8HVO73FLTmeG6K+htoep9TaZ0U3d7Nb470zeZTIc3XHmYjZTlx4pQN9aEkY4DOFAngDQUErYFY1WAWKFf7oyObsxnHnCh5T6UPOOEOhQwve5Ugg8MJT2VLj7DNNRbM3Zmp0wNtraWF4RvHk7Wq3JBOOjklFX+18uFecjb7oO13UafuV3Q/NZtJuclyGgutYSxy5CSOJJb9tIxxGOurJW1iyOQUKCZkGWuQWCzLhOJW1hTXFaRxSFJebKSenfHzqzVZP50JMbRW3/YXp++y7fNcmrLsGW++BJjNyULaeLJcaKF8ACqO2QrpGDU+07KU2mU3NjannBxm9elmm0tNpYaQW1NqjoaA3UIUlat4jBKiT0k1A1D/AEgNE6atYvF2E+PEfmLiwnFxiBNSgFTjrOftoSkElQ6hwzXvtD2m3bSiFosdpj3GRPtJl2dtbhRzqSHUpLZOOA3HEr7cBXDhS209GjABIwOquazOHtqtT7j0ww5T1uW4lyO7FjLdLcRLTZdkPY4IQlxZQT+4rsrvJ21WVF9g2+PGlrjTnpkOOrmy9+XJZUhO5HH+kAyskjgAnPRUGk0VmVt/pA6BvUibDtEmXNejzmbe0iNHU4X3HN8JKMdKctOAk4xu02aN1lbNb2167WlmSiMiS7HQp9ooLm4cFaQeO6SDg0DDRRRQFFFFAUUUUBRRRQFFFFBUanIFtRk4HOo2T2fpU0j6j0JCu+r2tc2/UDcC7x4rEFpwJC0mOHHFPNLG8N5DiXMdRSpCVZOMU86kwYDYUAQZcUEHoI5ZNU121ExE1I1pq0aUeushtDL85bCWkIhsOKUlC1FZG8SUKO4nKsJJxTlcnOYY9aNh8XSTMCwW1UWWibP3ZtyjtrbULdyZS+3IK3FBTjqd1OUAAnJxwrc0yobaEtpfZSkYCQFpAA7AK8LnqfQlogG63O6WiNEShDnLOrQlO6te4k5PUVDA+dVLW07ZY43dH16hszTdouQtUpTqm0BuSUBYbyespUDVymMVf87id5a84o53F7y15xVdctcbOLPKehXPUFjjPxwgutuOtpUgKKQnIJ4ZKk+Ir1l6v0BAmT4Ey92VmRbENuTGluNhTCXFBKCoZ4ZKgBnrIqKmc7i95a84o53F7y15xS7Z9oWm7m7fJj1tjw7JZVKbVdX3GUsuKQcL9nO+gdYKgAocRkVaJ1ls+XNt9uRfLKqTdWW5EJoONlT7azhCkDPtAkHGOnFBO53F7y15xRzuL3lrziq22a52cXmYzAteoLHKkSFqbabadbUpako31AAHjhJz91dTr7ZoIPpI6ksPNecqh8ryzW7yySApGc9I3hw+YoLTncTvTXnFHO4veWvOKjac1LpDVUu8Q7G9ClvWGeq2z0toSSzISlKig/wUKvOZQu4s/TTQVnO4veWvOKOdxe8tecVZ8yhdxZ+mmjmULuLP000FZzuL3lrzijncXvLXnFWfMoXcWfppo5lC7iz9NNBWc7i95a84o53F7y15xVnzKF3Fn6aaOZQu4s/TTQVnO4veWvOKOdxe8tecVZ8yhdxZ+mmjmULuLP000FZzuL3lrzijncXvLXnFWfMoXcWfppo5lC7iz9NNBVmVEP8Aamur9sUq6l01D1lpWDbU3pNvkMLYkMyUYUpvdG64nGR9tpbiPlvA8cU/cxgnhzFn6aaS79qiLpW1afYj6c9Jy7spLDTaFssgbrW+pSlulKegdGcmgRRsPgr1XetRuanhhF0aTEbbajbjiIyH2HWmlq391YbSwW0EJB3V8ckcY132Gv3+0ybXetaWyWEc0bgtGCpDKWI63lIQ+EuhTpIeOSkpGUggdNaRetpWzGwxbpLuV9s7YsqUKnoDjZVHCnQ0N8Do9s7v31Oc1ls9ZkTort8sqXray2/LQXWwpltz7ClDqByMZqatM1473Rc7umm4Fv05p622FiRFDdviNRkhpRCAEJCfZ31KVjhwBJOOs1Y88id5a84qvTrfZyt6ZHTfbLykCPzqSnlm8tNZxvq7BkgZ+dcxdYaIflRIS59qQ/clvJgt8q0VSUNgFS0AHoAPHrHXVTphP53E7y15xRzuJ3lrziulpv2jr7aXb7Z5tsmQGS4HJDCkLbSW/t5I7McapLbtI0HJ07H1FdnIllakSVxOSuPJtOIeT0oIPXu4VjsUKC+53F7y15xRzuL3lrziobmsNn7UyVb3b1ZkyIUZEyQ2XWwpthWN1xQ6knI4/MV4q15s2TEt846hsoj3QOqhucs3uvBvO+Unr3cHPZg0FlzuL3lrzijnUbvDfmFTI5s0p19iOIrjkVYbeSlKSW1FIUAew4IP3GpHMofdWfpj8qCr51G7w35hRzqN3hvzCrTmUPurP0x+VHMofdWfpj8qCr51G7w35hRzqN3hvzCrTmUPurP0x+VHMofdWfpj8qCr51G7w35hRzqN3hvzCrTmUPurP0x+VHMofdWfpj8qCr51G7w35hRzqN3hvzCrTmUPurP0x+VHMofdWfpj8qCr51G7w35hRzqN3hvzCrTmUPurP0x+VHMofdWfpj8qCr51G7w35hRzqN3hvzCrTmUPurP0x+VHMofdWfpj8qCr51G7w35hRzqN3hvzCrTmUPurP0x+VHMofdWfpj8qCr51G7w35hRzqN3hvzCrTmUPurP0x+VHMofdWfpj8qCr51G7w35hRzqN3hvzCrTmUPurP0x+VHMofdWfpj8qCr51G7w35hRzqN3hvzCrTmUPurP0x+VHMofdWfpj8qCrMqLj9Ya84rJZTrStp1/CXEkqbgqGD0jkjxrblQoYB/xVn6Y/KsUuDDCNqmo1oZQlW5BRkDGE8krgPlxr24f5NftPu5+L4mj5O1n/AK2R/stf+hoos/8AXSP9lr/0NFczohrSMXxP/CH/AN4qxrN9lupvWmZMlem2LgWWUoy06lfJ5XnB3ejPz7K0ivbicO8LVdGrnGOHrnE0zXp5UUqa70RY9VohXC6XKZa37Sp1xmfDkBl1ptxG46nfIICVJxnrylJHRTXWZbf4km56RtdmjT1RBctS2SI44G0uAtrmt7yVIV7K0kDBSeBGRWGyZpjRzOt3ZGn9SbSIMuLHhG3rYscxCHbrvKIdfmDcypa2Q2ggZx7ZB48Nkv8ApW332xixF+ZBYRuFtcGQqO42E8AApPQMcMdlY7rnQGo7CNN3uXqG0J9H6tsCWk2uxNw3HG3bg004hbm8o7qkuEEJxkDB4E1pW1mXqWDpJTul5DjDwfb5wthLapAjjJXyCXPZU5wTgHpGcAnFS7jyRse0axJdchx5UaPIt5tsiK1JUll9rk+TBWnrUEcN7OatZOgNMzLjMu0i378mexFYfXyihvJYc32+HaCBk9e6AeikK1bY768ZkaLp9u6tqkxY1mk89aY58hUNL7jjoWoBoj2uB6ScDoNc3H+kE3Gsl1vsHSUySxAMNqO3yzaXZj70dMhTLac5JQ0VE9R3DjhVmdUxCbbmF3YzpNbCI7Mi6R0x5q5kMtTlgwysbq22iQdxtQJBRxHZjFMt20nY71Os9yukJMiRYZCpUBalH9E6ptTZVjoPsrV0/fWeJ/pB20q9InTcz0GWnCmaHWy6XG4hkrTyOd/G6CkKxgqHZxpw2a63kbQNOm9ytOXCyOJfUzzeYjClpACkuJPWkhQ49oI6qXKYkqvOxbQ6IFstkWNMiRbYp8JbYmOIDzbzpdcadx/WIKyTuntIHDhU64bLdG3JuIh+3KSu3OvvwnW3lIciuvLC1rbUOKSSMcOolPQSKbiM0boqXTKblCy7L9MWKSp2BzwNJmpnx465KlMxnUhwDk0/sp/Sr4ZI4/IVP0loqzaNTcPRXOFu3SWqbKekOlxbjhAHEnHAAAD5Drpg3RRuirNk3c0UUUaFFFFAUUUUBRRRQFFFFBUalOLe2rqEuKT9ZNUt001Le1WjU1h1cLYZDbLFxjKjpeRJbaUpSCklQ5NftrSVccgjhwFW2rv8jn/iI/8ANTWbzr7f5OplWDTttguogtR5FxflyFN4Q8pYShpKUneXhtSjnCcYGcmhjLmVsUW/BmwfX5BSpDbFsWu3oK7c0h9x1JSQsbzqeUwlw4xjik5NTJ+yQvSZcyDrZlp6TKdfC5Ftafwl+M0zIChvAKUotJWF8N0lQwQcUq2PbLpm8yo9uRLjJlBy5icyFKKozcMrBWSQAc7n8M9dRUbQdaXSLa3rHZbG09LunoqUxPmupUw4pJcaWChtQUlTJQrjggqx1Zppln0zqnOd69DuvYppDmjkNq4IAU3MaS44y244A/CbiZKjxJShsHPX0dFVzOwLTDeorne3LzGeRcpkWduuRt95C2pEd5SN9ThSptZjJGNwEA9JxRq/WaNLy7aw82wlqdFlvuPOqISyWeSABCQSQougcPlVfI2w7Poqbs9KvimW7Rvl9bjC0pVuPmOoNkjDhDw3CE59ojtq6ZdN2WzGLVvq3YtD1ldLtc7nqxlBnJbEdtmElvdKHkOo5wULBkbhb3U5KSlKlDPGqFOye4WjVenbRZGmm7LBXbJs2amKyhjlYfKYS2VOqeQVb/2MKAJJ3hkivBW0y4XqPKv+h7fAuditUZqVLfekqbdf30FwoYSEkFSUDjvlIzwHRS3edvU2LclMwLRBTEVcZcNgzlPMOyBGQyVhscmUlai77PHdAT7ShWZMasLOVsajbtielLfBhQGrkhLcSHboO+0y22taIjDzOcj7JWH1EkdBFQNMbANKaetHoxdzgvqSzKYS8iHuqUl2MiOlSt9xeVpQge0CM9GBXF12jaOscN+4XC6bjTCpSFbjSlqKmFIS4lIA4kKcQMDpJ4VEn7T9K2cuLukxxlJcIbaTFdU8EpZS6suI3cp3UrBPUB09dXu3fLMvk0XSWnI2lJV4W3e25DF0lomJbLSUKaWGG2l5UD7e8WwrJAIyRxpk57E7y35hWHT9tOzeBcrlandQJcl2lKVSGWWVOKJK0o3UBI9tQUpIKRxBIq/serrJqG4XG2Wxx5b1qUhEorjqQhC1AHc3iMFQBGR0jPGnMkmnaNS57E7y35hRz2J3lvzCkfKO1PhRlHanwop457E7y35hRz2J3lvzCkfKO1PhRlHanwoHjnsTvLfmFHPYneW/MKR8o7U+FGUdqfCgeOexO8t+YUc9id5b8wpHyjtT4UZR2p8KB457E7y35hRz2J3lvzCkfKO1PhRlHanwoHjnkU8BJb8wpD1ZoeJrm06cK7nbWnLQ4iUlE63tzWXDyW4QW1kAKGchQOQa75Tke0np7KW9V6mXpXTTM+FBROnOBDcaIXAjllBBWvB6sNoWr7wB10JcLGbsdsUpmSGr+2xIkpuqlPCK2QXZstiVvqTn29xcdIAPSFHiKhQdhWnY2oLxfZN6hyTd5qZ6t+LlxDhkJfdTvKcKS2paeCdwboxxOKhubUtEs3GHbHbopK5yYqm3ebLLKeco32UrcA3UqUj2sE9FVTW3rZfIgJuUXUBfZU482ORircVhpAWtZCQSEBCgve6N3J6qXbn1TVJea/Z2Os3Wfd5morzFbjyp9weiRG4rXspkPoWtTi8/pd5LScJIGM8c4GJ962QWy8XXnydVKiMvLuBloYaSHX25WSWeU3uDYJ3sbuSQOI41CZ17ph+6uWpqW6VNyURDI5qsRy8pJUEB3G6SAk548MgddXFruMO8W2LdoDm/GmNB5lSkbpUg9BweI6KXTmYakt3RbBshs9k2c3TZ16fZbZvBUiXLhMlhxxlSUIUMKcWd8toKCrPQrgOFKes9kNxs8R1Wh7jc7vIuSpLTgmliYmMJDCWnVqW8tBCVBtrikKI3VeyoHFaBw7U+FHDtT4VbqtqSSFK2/wBHvTUafcJ827w3vSbDKXULjFa0OJSyHAlSl7pbVyAG7yYwD08KvHtm0W13WZf7RcmZbMpM0zrSqG0vnjbq1uhhpZUkNEqWoE8QrOTjpqx4dqfCjh2p8KnXJNk3ZtZHtLaUiwb3OZfujuX5zu+CVvHAwT1lKEoRnr3c01c9id5b8wpIwP3fCjA/d8Kcg789id5b8wo57E7y35hSRgfu+FGB+74UDvz2J3lvzCjnsTvLfmFJGB+74UYH7vhQO/PYneW/MKOexO8t+YUkYH7vhRgfu+FA789id5b8wo57E7y35hSRgfu+FGB+74UDvz2J3lvzCjnsTvLfmFJGB+74UYH7vhQO/PYneW/MKOexO8t+YUkYH7vhRgfu+FA789id5b8wo57E7y35hSRgfu+FGB+74UDvz2J3lvzCjnsTvLfmFJGB+74UYH7vhQO/PYneW/MKOexO8t+YUkYH7vhRgfu+FA789id5b8wo57E7y35hSRgfu+FGB+74UDuZkQjAkt+YVi1wUle1HUSkqBBEEgj/AHRpy4dqfCs0mLkNbQrw8y284EJgAoaIGctqyTXtwp+HrvpPu5+L4uj5abZ/62R/sNf+hormzgh2Rkfstj8DRXM6I+Vf8GTwj7QEgAAvwD/+2uvuWvhT/BqKlIi6/VGaQs8vb8hS93/Rrr7d5xde5MfV/wCld/8AUJjtOuerl7Dv2fR7J1Umr9J2/WVnNpnvPsFD7MqPIjqCXY77SwtpxBIIylQB4gipfL3fubH1j+VHL3fubH1T+VcbqJ7OzK8Tp0N7WGvbheolvms3BiJzZqOhTzKwtouFOSvdWAoAYGUj7qbr/p2y6otq7Rf7bHnw3FJUpl9G8kkHIOO2u/L3bubP1f8ApQX7t1Q2Pq/9KCouOzfQ91ZeYuGlrY+h9DCFpXHBBSyCGh/ygkDHUcdFSLlobSN3hOW+4actz8d11p9Tao6d0uNoCEKwOtKAEj93h0VO5a79zY+sfyrkP3brhsfV/wClJsmMFBjZDYm9do1m43CLceLzWLDagNthCS1yRC18S4kIyAkgYz101ae03ZNK2/0Vp+2sQYu+pzkWU4TvHpOP4CvXl7t3Nn6v/Sjlrr3Nn6v/AEpNphbun0VA5e7dzZ+r/wBKOXu3c2fq/wDSgn0VA5e7dzZ+r/0o5e7dzZ+r/wBKCfRUDl7t3Nn6v/Sjl7t3Nn6v/Sgn0VA5e7dzZ+r/ANKOXu3c2fq/9KCfRUDl7t3Nn6v/AEo5e7dzZ+r/ANKCfRUDl7t3Nn6v/Sjl7t3Nn6v/AEoJ9FQOXu3c2fq/9KOXu3c2fq/9KCLqtCl2rcQMlUmOAPnyqaR7ns1cud6Y1Ch662+YhLbT5hSEtpltIUVIbdBBylJUogpwr2iM4NON8euCorKX4zSUGXGyoOZI/Sp6sVTXO6ajumu1afs96hWuJZmIk2WHY/LOzOWW6NxOVDcQA0fb4neOMcKdTVyUc3ZLb7hZG9PS4MlcJrnuEB3BUmUol5JPWFbyhjsNeNp2NWCxS1SrHYE20KlMTeQiq3GeXaQpCXNwk8d1eDx4gDsqPZdt8hwsrvdnnw48VV7dnTHoC2oy2Ya3QnknT7KjuoHRnODVVbNe6y1tCtbti1xaYshF8FnuAjW8SW1h1syGlpJcBSQ3uoI4jeCjTvXvTzTEs9Fs5su1DqRB9f3Ic1yOl1mIba2tgIacUgrC98neOWm8EdHHtri7bDbJeYaYUmDNSG0SEtLS8kqaU7M54VjeBTkPcRkEY4EGn3VGtrdpII9IsvOb0CbPygD7EZsLWOJ6SDwFKWotvlj0w1dVTtPXVbsCaxBisIDfLTnXWy4C2gqyEBKVe2rCSUkAmtS1u67dOOite2Hw3UtNiVemW+QbjTWo8htlFybbGEB9KEAZAJGUbmQcGu1+2JwdRFJkG6xAHZrjiYshCEvNywgPsryk/o1BAGBggZwan3DbS2Wo1xiWebDtjM2K1MkzGQnKXY6nlNpRnf30p3M5GATirnZ7rq7axvF9jXOxv2lFuEMtRpBQXUh1tSiVFClJOcJIAORxB41mfV9fw85qmm9yc/5SlN2E26XMuEsSLyyLiiSnkW5DZajcuG+WLSVIIG9ySftb2OOMVMhbGrXBY5uzDnFvmzsX25G8ShxhLCuJ453Ej+NazkA44Vzw+XhU1Z1czTJOTFXNgdqxeG4hucRm9pIkNMmPhKlEcopKlNFWV7vHJI4kgDhi501sqj6Zu0u8wG57j8qKxC3X30qS2y0PZSnABJ7VKKlfPHCtR4fLwoyB11W7clI2a59UVXmFcehrn3VXmFN2R2jwo4fLwohR9DXPuqvMKPQ1z7qrzCm7h8vCjh8vCgUfQ1z7qrzCj0Nc+6q8wpu4fLwo4fLwoFH0Nc+6q8wo9DXPuqvMKbuHy8KOHy8KBR9DXPuqvMKPQ1z7qrzCm7h8vCjh8vCgUDZrpwxFV0+8KW7rsxtWtI9pf1Lp9q5swEFyOzI9poKWgJKynIyd3gPkTWqDHyqFZSPQ0Hj/AGdv/wBoqWZGEu7A7mzf7XHtbDsfTEBcaQ9GVcVKL62AsIQWtzoAUE72/wDZA4ZANXNs2C2e0Ws2lpu4PsCJMgt77jSVNsSWAy4gFCE5wgAJKskHpJraBgjpFc4T8qsthnfLFbvsYua7NPslglzWI13fZU+y9Ky1CSFJUt6OndyHSUDgTu5JPCnhqwz2GkMMW7k2mkhDaEnglIGEpHyAAH8KcsjtHhRw+XhVzQoeh7p3JXiKPQ907krxFN/D5eFHD5eFQKHoe6dyV4ij0PdO5K8RTfw+XhRw+XhQKHoe6dyV4ij0PdO5K8RTfw+XhRw+XhQKHoe6dyV4ij0PdO5K8RTfw+XhRw+XhQKHoe6dyV4ij0PdO5K8RTfw+XhRw+XhQKHoe6dyV4ij0PdO5K8RTfw+XhRw+XhQKHoe6dyV4ij0PdO5K8RTfw+XhRw+XhQKHoe6dyV4ij0PdO5K8RTfw+XhRw+XhQKHoe6dyV4ij0PdO5K8RTfw+XhRw+XhQKHoe6dyV4ij0PdO5K8RTfw+XhRw+XhQKHoe6dyV4ij0PdO5K8RTfw+XhRw+XhQKHoe6dyV4ij0PdO5K8RTfw+XhRw+XhQKHoe6dyV4ij0PdO5K8RTfw+XhRw+XhQKHoe6dzPiKzZy2uK2i3tLr77C0IhJKW1AA/olHjwNbwrGD0eFYxNydqOosdQhfyTXtw79Guek+7n4viaPk4wLIeR9i4zT0ftp/KirS2f1JH3UVy5dEfH/8Agyv1faAP/Ot5/wD23K+2X7rbos1i3SJrLcmTktNKWApeOnA66+Jf8GX/AFO0D/e2/wD9i6+odaWS6ytXxJdmtklbsqLzSS+UILCWfb9oLPtNOI31EEfayARwyPof1D9Vr93J2H9Pp9mhhSVY3SDniMUZHbWO2O27RICbLCZF9SY0OM0gyHG1MhKEkPh7rKyR7GOop6eNcSYe1qFIsDdvfuLjzMBpUx6SptTLrzja+V5TGNzk1hGAOkH5Vx3Z1zdseRjOa5rA483aVdrfPjWS6XwR40qM2+6tDT8pBMdSlFAThJTypSSM9BHVW525MhEGMiW4XHksoDiyndKl7oycdWTnhREmiiiiiiiigKKKKAooooCiiigKKKKAooooCiiigKKKKCo1OoItqFqzhMqOTj5OpNUd5t2i9QXKFebtaC/NtygqO8FLQoYO8ArdUN9IPHdVkZ44q41ccWgH/WGP5grB9pG027aAul/kQoyLkpi3WtUKA4ooS46szlPbqgOCihhPTw9kUXG1rYnYei5MNFukWNpyM0p5SGlN5SC6oqc4Z47yiSR15rsiNo5qWqezZGm5Kltuco2yEnfbCg2rhwykLUAew4rEZO13UU24pg2iDaIe7cbTwmyF7y4MnG+4spSUo9ohIGc8OIGRXS06/vdjXHZ1NdHVxZFwuU+NKcR9qKyl8uRlbo/0ZQ2oY4lCh2GpL3rt0SbSRpzejdP3WMuJrudP1QhLxdjc+bQ2WApCkLSks7uUqSrBCsggCp07R2zW5PXGTN04XXrqplUl0uuhw8l/V7iwvebAyeCCkcT2msatu3nU9ws6rgjRUYPQeXcntqmFIDaHY6E8l7PtFQkoPHAGFZqzd2yakY1LbNLOaMS9MXOeh3JceT+hbCHw0VMqWAV4yFEEDhnrxWrLcpjO9bNzHRha5ByyJcRy6ZJDqSvedS3yYUoqJJO57PGvPS1q0Totl5jTNnMJEgpLuFLWpe6MJypaiTgHA48BwqFvq6D012BB+1jNJiTEO7M5M/rFB+G55a7eskL4bvhSvkdooyO0VFNHrJC+G74UeskL4bvhSvkdooyO0UDR6yQvhu+FHrJC+G74Ur5HaKMjtFA0eskL4bvhR6yQvhu+FK+R2ijI7RQNHrJC+G74UeskL4bvhSvkdooyO0UDR6yQvhu+FHrJC+G74Ur5HaKMjtFA0eskL4bvhR6yQvhu+FK+R2ijI7RQM/rJC4ew4OPZUW1ahhM2uI2pDuUMoSTu9iRVEDxG6RnNIWvX0b2k7bM1RMsUGfKeTJkRZKGFEIjbyElagQBvdXXig2T1lgD9hzwo9ZoPw3fLXzgxtdvEeZYtJo5vLXdGnI67s4ClbBWXBDkrRjBQtKApWPnUWPri6QrBGtzF3uL1zbXJTJlOTm5LYcQYqzuLQndcbUh47vQUZIOSKTcxej6Z9ZIPw3fCufWSF8N3wr571Vtuulhs0mbF0yw9OhvmI7EW8pOZDW+qQ0g7vShtKFgnGQ4K1SDLE6DGnoQoIkstvpB6QFoCgD88KpgOHrJC+G74UeskL4bvhSrvH3VUbx91VA1eskL4bvhR6yQvhu+FKu8fdVRvH3VUDV6yQvhu+FHrJC+G74Uq7x91VG8fdVQNXrJC+G74UeskL4bvhSrvH3VUbx91VA1eskL4bvhR6yQvhu+FKu8fdVRvH3VUDV6yQvhu+FHrJC+G74Uq7x91VG8fdVQNXrJC+G74UeskL4bvhSrvH3VUbx91VA1eskL4bvhR6yQvhu+FKu8fdVRvH3VUDV6yQvhu+FHrJC+G74Uq7x91VG8fdVQNXrJC+G74UeskL4bvhSrvH3VUbx91VA1eskL4bvhR6yQvhu+FKu8fdVRvH3VUDV6yQvhu+FHrJC+G74UrEqH7JoyrGd00DT6yQvhu+FHrJC+G74Uq7x91Vdkq6cgigZzqSEQfYd8KylbyJO0vUL6Ad1YhEZ/3KqcCoYPT4Ukwzva/vp/chfyVV7cOfh8S+k+7n4vi6Pn9mn23i0T91FFr/V6K8MR0Pj7/AAZf9RtA/wB7b/5blfcYAyOHVXw5/gy/6jaB/vbf/Lcr7iPEY+Rrt/qH6nX7uTsP6fT7OQE4HAfKq3UOoNPaZt6rjqW5xIEMqDRdkrCUFSs4Tx6c4PCsmsd42zr/AKQ+pLY3EU/oZtUcKclI3ENZjoP6BX7R3icjiOnor3/pJ73JaBCHbshR1QvCrXETJkZFrnkbragQRkceHAcfnXG6oabLtX2MqcjWmw6y06gylAsMRnkISsrIAKQOBySOPWSKfCQK/PN3lU6Q04o3DXCsbNY6kpfsjbbPCVAwN8Ng8j+/nhwIOa+19pV+OnINmub1y5jETfYiJbylbqAwpSwoKPYeH4UU65xXNY3dttlxt9/uTMKJbZ8KGh5LUVp5ZmqSiPyyZSk7u6GFZxkHIBB+VVN+2232HNsVjjO2i5i7RHUzplteXutKdDoYcY3gC4ApvCsD2eGekVZM7Qu0y3kqA6T01zWK6+vc2DprQd8m3x9LIajPzIbUvm8qWsoaO+g4PKKTlWWjje3+0YqsZ2za2tENxm7u2GVMjT7otSN9xtcptmYttuGynd4v8mEHB4e0jtqDfaKw7Ve23Vum2oE9dit7gnXmTHbih5QcMFiSmOpe8QAXCVBW4M8PuNQbn/SG1Lbzd+QstqlraZecjRm5Sg7DKZzcUc63gEpGHOUUQeGMfOhjbLf6KX9BXu6aj0fa73eoLESbLY33mmH0vNg5IylaeBBAB/jimClmNqCiiigKKKKAooooCiiigKKKKCm1U2XLYhAON6VHHi6kVWTdC2m4gx7kxBlpc3VbkiMhwK3CSkkKBzulRx2ZPbVtqT9Qa/4yL/OTWZbRpGqbFrmdq2HcQzChWWHFaWuC4+iFy0pwSH8IUA4QlCMpI4DByADmWzM03qsvdmTr/wCHVlHOMQLd/jakKk/4mj9MU43Svh7RGBjPRgYr3d0dE3E8oqOUtlSk7zCTulQIURnoyCQe0E5rOWddbWLhbGZ1tMQNhmChp122ODnhkXLm/Od3OUJEf9LucTxznHGq6+y9rGo7BK07c7uw2JciO0ZEa2OIIQ1d0x3CRvg4dZG/gEbozxI403u86s6rNE71afD0BZocYR4ESBHj7u6G2YiEIxkHGAMYyB4DsrtJ2f2eY8zImQ4Eh5lwvMuOxELU24eJWkkZSo4HEceFZCNebTk3K06TYtsC3W1+1S1uIdQ8l+WrelpIYJzuqRybJwTx5QdHCvWTrTXKb5CgIujUZyzRnHURJUF7cbQm2qLcp99JIUhTpIKcdIGMnOLdeNV01Zp/4tmGl198GD+5R6r/AOsp8lR9mV/nao0LaL5cuWMqUyVOKdjc3KyFEb4bycA4yOJyCD100Vbtdybl/wBVv9ZT5KPVb/WU+SmCioF/1W/1lPko9Vv9ZT5KYKKBf9Vv9ZT5KPVb/WU+SmCigX/Vb/WU+Sj1W/1lPkpgooF/1W/1lPko9Vv9ZT5KYKKBf9Vv9ZT5KPVb/WU+SmCigX/Vb/WU+Sj1W/1lPkpgooF/1XIIIlAcfcqrGibXe7RCRd48KYypttxDUqMh1IVu9ICgRnp405nhWWa9cdQ1o4tuK5RDE19hvl1NJU8i3rKMkHjjJIzntxSc4c9jM9oa0OvonvsQHH2W+TbfXGQVoR7oURkJ+QOKIugLPDiojQolvjx0bxQ2zEQhCd4gqwAMDJAJ7cUi3rRT07RVhlabv0/F2VYo0kLLjza4gcaUv2QsKSVAkqVvdueFK07XW02VzrSDVtiWy3u6anqbZ3HhLkOGK+oOMHjgpcSlO6TnjnPRWdOuXV3ZzzhqZbLK0FapjZanR4MhtTvOCl6MhYLvxMKB9r97pqUnS5QkJEpISkYACeAFYFrTU2ubk/PgGbNbNrsl5SYUaG8hyMExGOQWt0HDil+2pOBwJIGSDTNrHa1qK76miWjQ6OdWS4W59EgqiOpdWXG3tx5lY6kLSlKhjgSO2t/lhdON61g6Z4Z50PLQNNAnHOx5axCZta2pwdDMyrIq3ykiXEjemJcJ5llgGOpTrS0cVEpcQlG/wzynRkYp207b7w7Du+qrpLnRbhartcXY6ApxyOoLSnH6PpcbBUrdx2CrdF082OmfY8+rQzjnYz/s1wNMqUMplpwf3aT9Tpi7O9RWfVMqddV2qRPkruK1LW62ypcYpaG4OhJUMD94ikeza82k6SsLVnaiKuE2DpBm4NW91hankPlf6Rcl0nKcJVvJQASdxQJB4Vics/zyb7vk2n1XX3tPlNeZ0+lKkoVOQFK6Bu9NJ+yzVG0TUzlvd1FNtTsREAvuvQY7m7LcU+tCCFKxuEISCpODxPZSHcUQjcH2b+i9G+rgSRp8MqkBznfpCXulO6d34Od4EbmOqrmdWd23+rKjn/HE8On2a49XPaCefI3iMgbtQ2NNxIzU2FcLzNTM1I3uvASD7DiWyXOR9zpJ8Kz1+36s0lrW7XC1tSb4xEbgwrZFfQ5vhKYkl5Q5UK3VFTwSkkp4bwHZWbqmmW6uhjOMNP8AVhecc7T5aPVlZOOdp8tYtY9ou024WJrVt1VBW+wxLRy8Fl1bURtSo28t5ogFS2d5z2R9oDq41xatV61gMy9RouMh1DnPQbg7BdLCGFz4yRJEfOSA1vKCc9BJzu5Nb7txlLZNXdravVlWcc8T5a6r06G0Fxc5ASOkkUgaAhXR/SjeurheLj6RjT7kGitp0MvNLmvBDhjk72CheUjqG7jgK7a0sOndLyIMPVL16k6VlKkPylqkOrCJeGg0lxTZCgjdSrdAON7p6RTGLirdrYf/AFYUf7Wns+zXVen22Rl6chIzjiMcazt0a/avdwlQXI6dMt6itzikPc4M3kAmOV7vDd3eByM+9njSjJh6i1ZEu0fWWiL9FF2di3qEXpS9xLwlIZdQjkXMoHN1tHdVjPtnGQak3wmW6p00FJCkywQRkEJrn1Z/1r//ABqo1XqiDoS0W4WpTRhQZsaJOQkqfXFhklKlEAlQwdwbx6M8azlza3tK5rcJUS2sypSdOKuUWCiE4nknQ9ulb6icp9jCkoAOQFcR0VZMzJmZw106YIGedjy1wdM46ZY8tZRbdV7T9U6cdTcpkB1hFoiyS/bIzv8AjTy5zreULJG7uttJUU4P2uw17aZn6i2i6zudq1DdJaIybc826zEjOxTb3xKADBcJw4vc47wxnsxipdrjqt2nerUTpoD+1jy1wnTaVjeRMSR2hOaWtoOn3bnpS537S+oLgzcrXZpsSGplRcQXktOIypsEb6skjp6QOykORq3aNoy8af0dY4lsYgquCYz06c28lMsITHTySeKilakrcVkk/Zxx4mpnGnvU64bErTJA3hMTj/Zrj1ZVnAlp8tYy5qHV8l/T2ipM2XGYfkQ9+MYbypEtlclfLu8uDhsNpwMHPRxIyKjao1xtG0ppl2525iQm7WlQ01G51GdcYlOx99x1wgcf0qUtIQvjkk1bZCbzLcPVlSuiYnh+7QdMqSk5mJH/AC1lDG0LVWlHLmy9AlFd1uVwdt6HY7jpU9ztkBsHqSGlqUBwHAkdBqdo27az2oXvVFg1m4zbYFtnkxGIDrjUuPuOuIQlwkYUlaAleR29la1abNXdTV9HNpHqyrO7ztOf9muw0urrlDymqmIiLFdGurpPuLzwdct/JMtuBvdVJ5Fs8j05Hs5X0YBV0UwWTUUG/pUuAiUkJQlw8uwprgpS0j7Q6coV+HaKxM9VRTpggfrQ8tZiGOa7R9Qx97e3Ewhnt/QqrbFdB4msYlf50dS/dC/kmvbh36Nc9J93PxfE0fLRbX+r0UWv9XorydD4+/wZZHIbQMHP6W3/AMtdfcY/+lZnsn0lprStyuDWnLFAtiJLDankxGQ2HClRAKsdOAa0w4B/hXt2jj6e08XVxdHKvHgcHV2fhzh6+cdBwAx00nbWJGgWbDCRtAhOS4zs9CILLCHVPqlcm4RyXJYXvBsOk4/Z3s8M0jaR2O6+s22S4aoumvbrL0qypcq3w1zSouOOZy04jo3EZOO3hXv/AElUNc20GqTAemsI1QrfbbuHMTxtc9KSX95O57RHWM9HHOK8XpChaLn/AEVkSbK/H0zc2Gl29iRb3ZUefzZFv5VoNqO+rcDAcLJwfZzu5r6MuTNtfhOIuqI64vS4Hwko4Hr3uHTX5980hK0tpxDemZoec2bx+TV608tvPKlwQlfJcqfmOSxxzjd4V9m7a7ezctDLRIU9uMS23+STEXJbfIKgG3m0e0pskjOOggHjijR1ZttrQ6mUxEjpc5BLCXEtpB5IdCcgZ3fl0V5Js1jhhpxFuhMiMlSW1BlCeTCjkgcOGT2VinrltbOohBjW6Lp+1tWDlI0SRFefIXzXeC99IPFDoKdw8SB210jau2k3FEaPIg3Gc3IsCHjFftQT+mEgBTrxzgFSeKEJJwASrFWb8kt2bq/b4UosGREYd5qsOM77aVcmocAU5HA/MV4yYNmaSJkuJDSll7nIccbR7DnRv5I4K6BnprImNVbVZ12u0GA7IDi5qGHQ/Z1IbtiTObaTyayf8YCo6nFlXADdB6DU7WrF6uuyVtvVTr650G5OtrIty3G5oZfdbaU8w2d7k3EJQs7pOCQeIFSzHNcZao9At0rkXXYsd3kl8q0pTaVbpPWnI4Z7RVFatnunrVd7ne18vOl3VCmnVTFJcCGlK3lNJG6BuE4ODk8Bx4VlCL7r6zs3Rb8682qLMlW1aWG7OZgtMVUIewzg5cBeRyas8U9J4mumq9ZbbIelrneWGH2J2YEWDHathcShxcNDzjrnHe3S5vN4A9lSsHopnEXGzfo0aPDYbixWkNNNJ3UIQkJSkdgA4CvWvn64bStq0fUaYzERwXGVHWYVkctxDL27bi+lRkZ4LL+UFOOAGK0XYzd9W3vR3P8AWExmTMVLdS2tuMtghrhhK0LA9oEqGRwxilQ+UUUUBRRRQFFFFAUUUUBRRRQU+qVblsSvGSmTHI/g6k1Wu6nkNJ3nuQQkqCcqOPaJwB95Jqx1Zn0SMd5Y/mJrDNodu1jc9W29iGzenbY3Jtb7Yi8nzLCJW9JMjPtbwQEbuCOGcZNBsLGqX5DSXWCw42sZSpOSCPka59aXy+YwLHLBAcKM+0Ekkb2OnGQRn5V823SbtbsNr5aWb20v0TZ2HXGUNIajyVzWG3kNIxhx1YcWM5AT0Y45r3uto2rJgT59vh30y5NratsSUsoNxjs+kX3El1KRhS0tqSVADiFD51fdru7PoeXqxcNhyXMXGYZZSVuOuK3UIT1kk8AK6wdYpusVE62yIkqM8PYdZXvIUPkQcVgs9naDqmyXDRk+Y47PNkjzpzaUoUG5LqENGKpPQRvtrfwekHpxVxOs2vrPfbXarTJu0iNHTFEd6HFjx7er9KTJ502nO7+j4JCSOOCMnNSfmZvnG1DUkxPDcZ8DXPrNN91rwNYSjTm1hSIK16ovyVCJCdfALOFSXJziZKT7PQiKUEDqODkkYrRdGs3qNpuHF1A++/OY5Rpbr5BccSlxQQpRAAKijdJOBml2pythx9ZZvuteBo9ZZvuteBqoooLf1lm+614Gj1lm+614Gqiigt/WWb7rXgaPWWb7rXgaqKKC39ZZvuteBo9ZZvuteBqoooLf1lm+614Gj1lm+614Gqiigt/WWb7rXgaPWWb7rXgaqKKC39ZZvuteBo9ZZvuteBqoooLc6lm+41xPYaqkzI82JbefW6HIMEIdjKdb3y2sNlO8nPQd0kcOomuuMkZ7RSHr2y36YrSlysTl1zbJLy3G4DiUhRcirS2XQQd5sL3c9mamM2etWabc2NLh3ldviNQoUSMxHjoDbbbaN1KEjgAB1Adlew1HLJzybfD5GsUir2q2hu1WkNXa5SZce0PuzXuTLUd0IPPW3SMYBWRwHV0GrLYwxtCbss9W0G4TXpjslK0tyo3Jckrd/SBs/ttlX2ezHXmrN7bDaYjWfWOZ8Nrj99A1HMHQhrhw66qhjHFVc+z71DK09YpeMbjWP41yNRzB+w14Gqr2feo9n3qXdFmrUks9KGvxo9ZZfH9G1x++qvCT10YR21Im62Go5YGAhr8a4Oo5ZO9uNZH31V+z71ccPeq7NbLJV+fccQ65HjqW2DuKKclOeBx2Zr09Y5h6UM+Bqp9n3q59n3qc5ulWg1FLSMBtrH8aPWKX8Nr8aq/Z96j2feoYWvrJMAxuM/jXB1HLUMFDX41V+z71Hs+9QWo1JM9xnwNcHUk3qQ14Gqv2feo9n3qDpBj2u2XiXf4Fit0e4T885kts7rjuSCd5Q4niAatxqKZ08m1n7jVX7PvUez71EwtRqKaBgNtY/jXHrFMByG2unPXVX7PvUez71VeayYvr8ZsMsR47aASd1KcDJOTXc6imK6W2vxqq9n3qPZ96oLX1imZzybXgaDqKYeltrwNVXs+9R7PvUFr6xzOnk2vxrgaimAkhpr8aq/Z96j2e0VLnOwtfWOb8NrwNcjUk4dDbXgaqfZ96j2ferQt/WOeRjk2vCs2Q8uRtG1A+4AFLTCJx0f1Kqcsj3qSIfHX19/2IX8lVe3Dn4fEvpPu5+L4uj5/ZqFr/AFeii1/q9FeDoVuiEpF2k47sn/3mnRX/ANKTNFkC6yc92T/7zTmVDt6q8eB4cevaPErqDgZxUa7Wa1X2Gq33m3RZ0VRBUzJZS62SOglKgRUneFdt9PbXs8Yz3V1p2Z7N7R62HQFmL0WTFYiiNbozbqpDz6GWUpWUgIJcWn2iQB05pOX/AEo4qWY0hzZ7cA3KkXKOgpukJR3oPKGRwDmcYZXu+9wx0imX+kXDlzdmT/NLczO5tdrNMdZfaU4yplm4sOOlxKQVFAQkk4BOBXyMpCkw7Wy1pLRiy3cdXFSUWyXvFL7cpLO8C19lW+jk+3KRwNFfe0O/2qdYoepG5KUQJ0dmQ064dwbjoSUZz0E7yf4mpyno6PtuoTgb3FXV21md00hfbvsGtWkI7DjN0FrtDC0AhK2ltKjlfTwykIUf4Ui6s2Ua3uLM6Op3UMs+ir3a4TjV03FclzlD0UrPDKlIC0hXSOANXTuWbZfRALeeBHRmvOTKiRWFSpT6GmkY3lrVgDJwOP3kV8+2+LtGvN31SLZJ1RHajvXCEl8vtrQ3H5s2GmWmzgl8OnO8Tj7XHoprsVn1lIs9lg6js09tDTcadPZdlCShYjNFSGU8M76neTKgrpIOOimDritWakxJK3mWH0LWwvk3QlWSheArB7Dgg/xr19gg5I4cDxrDr1prasxf9GO2FuSziWLneX2lp5Jx158GQ0+kkeyhrdCSASd3AxSYwNqWoIN8s+mrtfVvRmoQvDgktSVOvKfd5wYuFJCN4JQQkqBCR29Ocb4JMvo1nSenmtSO6rTbmzdXmuRVIUpRUEYA9kE7qeAAJABNXCSnHsnhWLx9HbW2Ywu0bUlzkXYMpiRxLcbbZ5M27BccaTkBfOQk9JwflXnZnNSxb1adO2c6gZ5xE9KzoNwlIekx0xXCUoU4PZHOVLSj7m1GrjFwmdstnXOhtvNxnJTSXXVFCEFQ3lKAyQB2gca5kTI0RsvSX22kJKQVLVgAqIA8SQP41hFz2W6sumqb/NjG+QRMuUi6syUz04Spy1obQ21nO4EvpIUBwOE9VQ5GhtsV+veoGb9d7pyMyPERHbaQ2IqUJejL3kr3iQ8gofJ9njn7qmczMM74fQ++nIG8OPRUedc7fbYz0yfMajsR2y66txQAQgdJPyrDb1prbHAvem4Fgdub0K0XGU4mU5JS4X4ypB3W5GSOAZwUqwSSSOGM1BvuxjVl4DDVxmagmvz7FHjznTcgEJkIuLTzgIAwCW97dIGMJxVlzcK+hmX2n20utOBaFpC0kdBB6DXRybEZfajOyG0Ov73JoJwV7oycDrwONYq5pvajKul6jRnr5F5d5TciUqW3yLzJltlkxEgfoymNvhWR0/OubdpjXUPaQzepFovM9m1PT0l2RNbMZ5lxARFDKeBBS3wWTxJB6cinqNu30DOVDh00FaR0kVg71i2gLsSkXC2atfk+lFqu6YtxbQ5KPJkNuRj0JYC8ZR09Geg1Kk7Ptqd1bXJu+prwiW4gsuIiTEIbKU25BSUjHAmYnJPXx/ZNXA3CioNmE1NphC5kmYIzQkE44ubg3uj55qbvCoKrUyUqtzaVDIMqMCP/AJqa7KslnCg2phO8RkAq6q66k9qCykdJmRf5yazXaLoXaPqPadar3py5C32+BCcbRJRK3cFxt5C0uNYO/wC0ppSSOjCs5OKDQLhE0vHYVz1thSUNqf5NR3yUtkEqCek7p3Tw6Dipq7PaEJK1tADpJKu2sZTsr1FJh2idF0w1a7pCtt1tm8L046WFvhBS+F73tbykHI6RvZwK51zsn1/d9PzYUK8zFIZuKWGY8W48i7JtYDqkpLi8hDgdeCs9YZSM1ZvNyU/XK+bNdO3x2zzHo0ac8y5Mk7qDwQ21vlbqkjAPJpyN45wOFMTNssMhlqQ0lC0PAFtQX9rIyKzhejddQrXfdIQ4TE6FqS3PBVylTAJDDyoIZ3HcD9L7aRhSeABPRjitat2Na+TbPQWkZy2YfpCPMiuC5rS9FeRFbSpzeXnKFOoUVI68ggCmOWCTvTLbo9qsUpKlRg26ltam1FC8hK0nBB+YNewsVsHRH/E0t7OdJOaR9Yopt7cdudfZVxacRIU5y6XsL3yCfYIJKd393PXTmMY6azLkQPQVs7v+Jo9BWzu/4mp+R20ZHbVED0FbO7/iaPQVs7v+JqfkdtGR20ED0FbO7/iaPQVs7v8Aian5HbRkdtBA9BWzu/4mj0FbO7/ian5HbRkdtBA9BWzu/wCJo9BWzu/4mp+R20ZHbQQPQVs7v+Jo9BWzu/4mp+R20ZHbQQPQVs7v+Jo9BWzu/wCJqfkdtGR20EH0HbO7/iaroFvsgt9uTJDaHJDSA2lTmCtW7kgDr4cav6zTW2ipmqYmj7nAhokSLK8p1sqkqZLPKxFtB0EHCilSknB6amcWTzWTJ5FjtCuKWAR0cFGhuyWhYPJsg4JBwo9NZRbtnu0awIs9itMpKoio9qXNmuXBalsSIyCHyEqyXOUUQrsOONXOwnQ2p9EWe5RdVTbhImSJSXFuSZ6JKHVhG6t1vdALYWeJSflVkzEu2Gg+grZ3f8TR6Ctnd/xNTsDtowO2gg+grZ3f8TR6Ctnd/wATU7A7aMDtoIPoK2d3/E0egrZ3f8TU7A7aMDtoIPoK2d3/ABNHoK2d3/E1OwO2jA7aCD6Ctnd/xNHoK2d3/E1OwO2jA7aCD6Ctnd/xNHoK2d3/ABNTsDtowO2gg+grZ3f8TR6Ctnd/xNTsDtowO2gg+grZ3f8AE0egrZ3f8TU7A7aMDtoIPoK2d3/E0egrZ3f8TU7A7aMDtoIPoK2d3/E0egrZ3f8AE1OwO2jA7aCD6Ctnd/xNHoK2d3/E1OwO2jA7aCD6Ctnd/wATR6Ctnd/xNTsDtowO2gg+grZ3f8TR6Ctnd/xNTsDtowO2gg+grZ3f8TR6Ctnd/wATU7A7aMDtoIJsdsAJ5v8AiayR1ptjabqNlpO6hIhAD/5JraFAYPGsZlf50dS/dC/kmvXh/k1+0+7n4viaPlotr/V6KLX+r0V5OggT1SFyWxCu0uGeTO8qI6ElXHgDkHhXiUXnH/xbfeg/2pH/APBVZAItsh9udKQg4SAXFgZ+7NTzdLdj9fjdB/0qa8Oz3vcKV7do8TU7YvP/AObb7/8Aqk//AMFc7l5//N19/wD1Sf8A+CvP0lbsf5QjfVTXb0nbv7wjfWT+de7nhd2hasvWiNLP6gGqLs4pEmJEQH5yUNpXIkIZSpag2SEpK8nA6BWP/wD8zWqRGiSzqy2qTIfu7O4L0veSIKHFb39R0OckQns3hnFaltWTIu+j1M6fmpXOjXO1z2wwUOO7sea26soQo4UoJSSEnpPCsLEDaT6PtkVK9Sb8Wbqh4g2NoJQJzchLRzvftl1O8P2AT2UafSLepXfVeHqqXq6/RocuJFlEqkpJQH0t7oOEdOXEipEq8qt7i0zte3RlSGVSFcpObGGwrdK/sdAUQM/OlifYWrtsqh6IfukJuSm126G6rlwAFM8iXMEcf9GoA/dSrqDZLbZ6Z7DC7HIjvxbtCjJfluBUVh59D0dtPtcQClSVdgVkZq6b1XpmtaBuSVqSnVl5BOVKAlN+J9j8a8J9wmWyEqfL1ne0R0lCSpMpCuK1BKQMI4kkgD76yFnRtxu911M+v0ZBbcmXBltSLq6hx5pxhtCY6SchDAUCoLAzwPbTNp+w3K1xLZGuEuzLMFpqS6mJJIbefYZUllshZ4JClA5HTu5NMllmqyniPOmS35LDOs72pcR9Ud3MpAw4kAqSMo44yM46K9GIcqChSYupLnGS4orXybzTYUo9JOGxkntPGs0vGhZs6TaXoN8tzbrVtlsTpb0tRVyz6VqWptscN4uLHt5yEpAxVPqDTuqbpKtzN1VY5kia9NU4wm4vJiMBNsaYQpS04UTyiCtIxje+fGrJn6iTOY2gG7E7g1jet73edoz4bleKxMjhc5Wr7q2Cglb3O2xlKQTxVucQOP3cax+Boq8z7nqBxN7hR3G5cuOzdXZrnOH0mFHbDe5ndDRWFK3hxyDjjVtbdnkd91K70/ZosLkLilFriz3XY8dx9tlCFJKiCri24o56Cvh107ttwWbH+ZqFMK3t3KRtAuqYzsdyW0sTUHlGW2y4tScI9rCAVcOqprEq4SmGpTGsr0UPJSpKudowd4ZA+x08eisrlbP3pul7BZnBpll6yW+TbY4bmOFLCHoKmC4kniVBZCgD1E9lQb9slfeaYgWXUEZq2MzI8kwUXRbO8oRUNuOb/tHe5RJWB0He6qzp5besLLJlrUC7yLoy5Iha3vTiGnXWFq52gbq21lCwco4YUCK9pU2ZCZS9N1xd2W1LS2lS5rYBUo4SB7HWaymZsxdYhTTaL1alSbgLgicHpiwJSHpjLrQJHBKktodTvAcCvrzUeHsnSNPJi3q7Wu7zosa1NRRKnOFsGK88tYKgR9pK0Dexk7lNc7l23Xu87Wq269vXV6a1A1pfXDAlKhPKMhKUl5IBUlJKMKxkA46+FSJ0+ZbYb8+Zra9NsRkFx1XO0eykdPDc/CstnbNG2JD3oV6x8lLnzZhLk51sw3Xn0OJkthJIW4lKSnB4V4XzZnIlW9UaNPss2RLNxL7kue6jknX3wtp9O6faUhtPJ7pwADwq3RZcMab3tPea/v3MpSTq+94cAKQZSAVcM8Buca4S7cijf9cr3uk4zztGM9mdykK82G53W/pnuXGyqb5i/BjPc8Wl22qIWEPtJHsrWQU72ejd4VSNbNlT4SmbhNtFub3XyiBCuLy2G3jF5JD28SFFRc/SEdAIB6alzMXDUmbhraRdlpCkavvhHyloP/8ApRu3n/8ANt9//VJ//gpZ0TaYOlGp8VF2iGPJeYfaQJJVurEZtDx9ok5W6la+z2uqmX0pb/7zjfVFa1TF3Zly9YxuaZUcyNQ3aSkPNnk330qQTvcCQEjoPHppmkakjxpYhSbwhqQpHKhpb4CyjON7GejPDNK8edDfmR2mZjDqy6jCUuAk8eyqzWuyy56o1HJvcW4x4KJFpVb3DzQuPOLCt9rKj0ISrjhOCcnOeFZ64XobJ+vLXa7xFslwu4YelsuvNrcdCUZbcQgoJJ+3lacJ6aktaqZW6iM/PMd9591hhp14BTxQrBKRnj/61mV22Oaiup9I3O6WqZMeNxMrlLWpxAEosFSmEk+y4kMewT1q6qqbXsOm3+6WjVl4RJiKZfmOc0lpcTIjockrcbcSUn2HiF+1nrAq43uTVLN9Po1o69sfpGFaUalYXLuLjzUZtEgKLi2khTiRg9IBHCrgTph/tLvmNZ3Y9mNwtb2mpEoWRb+nZEjddj2rky6w6yG8k9IfykErzx41oAYf4ktL8pqY6lxNnrz2X3lzzGjnsvvLnmNefIvfCX5TRyL3wV+U0Hpz2X3lzzGjnsvvLnmNefIvfCX5TRyL3wl+U0Hpz2X3lzzGjnsvvLnmNefIvfCX5TRyL3wl+U0Hpz2X3lzzGjnsvvLnmNefIvfCX5TRyL3wl+U0Hpz2X3lzzGjnsvvLnmNefIvfCX5TRyL3wl+U0Hpz2X3lzzGjnsvvLnmNefIvfCX5TRyL3wl+U0Hpz2X3lzzGjnsvvLnmNefIvfCX5TRyL3wl+U0Hpz2X3lzzGjnsvvLnmNefIvfCX5TRyL3wl+U0HfnssYzJd6feNUzuq4NlNmt1xvSYz12VzaE2tzBdcSjeKU/PdFWxZeGP0S+n3TSjqnRKtXRbE8nkWnLa6p1LrkYOKS24wppZbPShwBQKVDoIqUMLer7Y6G1o1HGUl98xm1CUnCnR0oHHiodlc2PVkLUtsavFjvImQ397ceacyklKikj+BBFZPpv+j/K01HsjcKZbm37Xc0zHZKYq3FuthLaFAJXlIcWlvC1Y68g5rQ9D6Se0dp1jTyUR1NxXXuSMeNyI5NTilp3kjpUArBPXjNa2nJMmXnsvvLnmNHPZfeXPMa8uSe+CvymueSd+EvymosenPZfeXPMaOey+8ueY158i78JflNHIu/CX5TQenPZfeXPMaOey+8ueY158i78JflNHIu/CX5TQenPZfeXPMaOey+8ueY158i78JflNHIu/CX5TQenPZfeXPMaOey+8ueY158i78JflNHIu/CX5TQenPZfeXPMaOey+8ueY158i78JflNHIu/CX5TQenPZfeXPMaOey+8ueY158i78JflNHIu/CX5TQenPZfeXPMaOey+8ueY158i78JflNHIu/CX5TQenPZfeXPMaOey+8ueY158i78JflNHIu/CX5TQenPZfeXPMaOey+8ueY158i78JflNHIu/CX5TQenPZfeXPMaOey+8ueY158i78JflNHIu/CX5TQenPZfeXPMaOey+8ueY158i78JflNHIu/CX5TQenPZfeXPMaOey+8ueY158i78JflNHIu/CX5TQenPZfeXPMaOey+8ueY158i78JflNHIu/CX5TQenPZfeXPMaQ4q1L2gX5a1FSiiFknp/qVU8ci78JflNI8MFOv78FAghELgf9yqvfheHxPj7ufi+Lo+f2afa/1eii1/q9FeDoK2jLbbbrqK6NXCDHlJbYaKQ80FhJKj0Zp1OktM5x6v2zo7oj8qUdnCgrVF5wc4YaH/APkqtEPT/CufstzwdNe3afF1Kf1R0v8A/l22f/pEflXPqfpf/wDLts//AEiPyq2rsTjia6HPGZ7XU23Rmi3brZNNW1U124W63skW1L5QZUxpgrS0McopIcJCcjJAr58XtP1smHAli3MK51O1DHKVaDSkbtvS+pGCHOlXIpCh+zlXZX0xti0hddb6HfstjkFqeidb5zBD3IqUqNLafKUuYO4ohsgKwcEivnRX9HzbK5Hgxh6SQIs2/v7ytToUN2el9KCP0ed4ct7fb7WOJo031Nw0ZD2c23aDedMW5tmVBgy3kNxUHcMjkhwJHQC4OPYKi3fXuwyxtJfuEzT7bare7c0qEdCgqO24G1rGB1LIBq6lbPGrlsxg7OrjMBRHhQIjrqW94L5uWifZPUotY+40vXbYZGnc+biXNhlq4M3ZlxK4SF8mmY6h5IR2BDiOjrBNXT6rZMZnMwJuGyhch+KF6dLsWMqW8jcay2ykAqUewAEH+NdZEzZwm0ou8G12qe26qOhpuNGbWtxT6gGwBjrzn7gT1Ukwdit6uNw1JJvsi2pYmz50iMwYIPLLejoZ33FJIUW8BR5PI6uPCmqx7NLta49rRM1Ci4OWtkOIcdjJbU5LSypttSyke0lO+SkdIwKmMQu17tS487Zu9cBbHbZaYz7856BDD0dtPO3GgOU5PhxAUSn7waXb3rzZ3Y7bcZsvRjKHoN29EIjPxWmFvvckl3eBXgBG4oKyf/rXreth5ut00hLTqFTcfTC2JBbUyVFcht7llOpUFDdU4rIVkEY6ONWOrNkzd/cnT4tzaanSbmbi0uTETIbb34aYjiCg8FZbTkHqOKrObnCllbQtnEO7zrZJ0Y2ERVLjx3xEaKJcxAbKozWOJWC8gZ6CScdFdU7Qtn/O4kORs/5u5vpaugciMgWtSpBYRyp6wpwYG7nhx6K7v/0fbU/dZFy5+2yqPGZbta22TvsvtpZ3X3Mq3VrywjoCcjIJPCvWZsOReZlsl366syXESHJlzeRGLbkl1TwdShBCsJbSpKcJUFEYyME0s25rPVE/8RNCrs15vTGzkuN2V1sOo5swkuMLLgDwycDiyv2D7XRw4ipFx19s4t0+Wy9osKhRml4nJgN8m5JS0l0xkjGeU3Vp6unI6RXg1sNuUay3W0p1Bb3/AEqtpp7l7WFIcZQpZ5ZxO97UkleS7wPsj+E+bsSEx2ZC9ZpAtbyVyWWy0FPNz1MIZMhTmfa4NhW7j7RNSYvVJlEa1/s8XPtllk6LiRbrOlLiyYL7TCFwtxQSVLJ4KHtAgJySM46KuNIXrQ+rJcuMnRjFvDLCZsZyVDbSmVEUpSUvo7E5SeB4jI7aqZOwdu4TG7vdLyw9cbiv/wDHHuZJ/wAZRyodCWcnLJCk7uRk4UevFWMHZDMbhTYE/VbrrT8JdnZLccIU3biHCGyc8V7ywSvrCAMcTWpjdbMapiu121bsftNlavZasclqQViM2yy2VvlCwhQQMccEimC3MbOrtKmwbdEsUl63ECUhpppRaJJA3sDh9lQ/gaS7lsVvN7jxmrlqO3JWphuLNUzaUJBbZf5ZosjP6JROQojp4Hqq+g7J4lrUtVtuQjCTHfiSuTjpSX23pLjy8kdf6QgHq6euoltldze9jvo168cvpvmjD6o7ju61uhxIyU9HTjj91dWr1srkXiVY4cSxyJUFxpExKWmhyCXGFvoWc9IKEE8OrJ6AaTJWxPU7MqxPxbnapEqJNG++q1tpjsxmobzTZUxn21ku4KurI6quhsGioCYbd9KYiI7TY/xVPKlxFvkwioq6wUSd4J6inHQaTet4nVes3XZRLSsW1OnpbyWHpCWmktFSktY38fdkcfnmuir9sgaFxDzunW12kpE1Km2gWCo7oCuHDjwqtXsLsYjSmIkluMZB+01FQkpHo5EMp4dWEb+O01Sai2A3DU5uhu19tr/Lz0TYgNtKMJShTaWXShSVOISlZIGfte1Wc7sw1CboyXPmwLNbILE+z3GIytSGEJUpK+SXvoI6U4cCc9uRXtrTajD0ZJmRJdoffdjqgKbQ2U5eakOqQtYHY3ya1K+QHbSxJ0HI0jqG0SLXGSYqpzT8+UQEtsxhHZjiOgElRJdZZcGegJX101al03ovVF8iX+fcgJEODKt6UpcwhTcgAEqHWU4JSerJq6uWy3He2dG9qtgYbmTbu8xDhsynY0dW/vuSAl4spWlCRkhS0uAf7BrrZdsmiLlHsxk3NqG/emg7HZVx9lTim28qAwN4pOAemqc7ONJMWu0RLRq2VCmWOIxGhzUrQtYLalkuKBGFKXyjm9/tZpcl7NWoN6sVosF7c9BsCIq6vvSm/wDGOburWkKRjeKsKIynA49WKS5ynU8Dbhs3XPi26PfW5Lkq6LtQUwkrS26Glu5WR9lBS2rCug4PZVwztG0e9piNq70ohNrmOpYjvKQRyq1K3UJSMZO8ejtpI09ss0dpeE3CtGpWmERZ6ZcZSIzKVBoNONci4QP0qdx1Qyrj4mrHTmhtN2W22q3Pawky2rXLE1CHFpDZeDhWkhPHcAB3QkcAOjFZtxNpkuMrWRtl2cx4t5mHUUVbVgcbbnqR7XI75wCcdWQRnoyDXldts2iLbfLfZE3Rh9UpZLzqP6uO3zVcgLKug+wlJwOICweik9zYjoYW27WmHqdEaLcpSX0pRFYylG84pbThxl5BLqsBfQcHpqWdmmnLIWpdo1A7cY9raW7Ds0h5tMd6QYaoii4vGcLbVxHQCT91bk33WNXgXS3XNcpEJ9t0w3zHf3f2HAkKKf4BQ8al4R2JpQ0KzaNKaWt9lk3tiTKZaBlSCri8+eK1ntyej5AVf+nLJ/eUfzVLszN1hhHYmjCOxNV/pyyf3lH81Hpyyf3lH81FWGEdiaMI7E1X+nLJ/eUfzUenLJ/eUfzUFhhHYmjCOxNV/pyyf3lH81Hpyyf3lH81BYYR2JowjsTVf6csn95R/NR6csn95R/NQWGEdiaMI7E1X+nLJ/eUfzUenLJ/eUfzUFhhHYmjCOxNV/pyyf3lH81Hpyyf3lH81BYYSegJpQuOu7Bo9jTNvvjq2nL5/i8ZSWipIUhkuKKiB7I3UniaYBfbLnhcWPNSpd7dYdT2qyoe1AYblvwvLKhlaFMKacbOeopWfmMCp1kWTzWtp2h6NvcBu5269R3Y7qo6W19AVy/9SRnqUOIPZXrpLXWlNdMzH9L3ePPTBfMd8tkHdVjI/gRxB66S3dmukFSbYWtVyWYECNCjPQ0LTuSuaJ3WVLOMghJIOOmrLZnpPSOzK1P2i2XeI4wtxPJnm7TK0tpTuoSooA3yB+0eNWY3yzfRoO6eweFG6fdFQBqCyf3mx5qPT9k/vNjzUIn7p90Ubp90VA9P2T+82PNR6fsn95seaip+6fdFG6fdFQPT9k/vNjzUen7J/ebHmoJ+6fdFG6fdFQPT9k/vNjzUen7J/ebHmoJ+6fdFG6fdFQPT9k/vNjzUen7J/ebHmoJ+6fdFG6fdFQPT9k/vNjzUen7J/ebHmoJ+6fdFG6fdFQPT9k/vNjzUen7J/ebHmoJ+6fdFG6fdFQPT9k/vNjzUen7J/ebHmoJ+6fdFG6fdFQPT9k/vNjzUen7J/ebHmoJ+6fdFG6fdFQPT9k/vNjzUen7J/ebHmoJ+6fdFG6fdFQPT9k/vNjzUen7J/ebHmoJ+6fdFG6fdFQPT9k/vNjzUen7J/ebHmoJ+6fdFG6fdFQPT9k/vNjzUen7J/ebHmoJ+6fdFchPakVX+n7J/ebHmrn09ZT//AHJjzUE4pGOgVjMr/OjqX7oX8k1rBvtlIx6SY81ZI481I2majeYcC21iEUqHQRyJr14f5NftPu5+L4mj5aRa/wBXootf6vRXk6C1s0/+KL1wxiOz/wCqq0c9P8KzfZr/APFV9/3LP/qa0g9P8K5uyeBp9nv2rxdTis9253XUdu0dFi6VkBifdb3a7ZvlzkzyT8pDbgC8HdJQVAKwcZrQqWNo2lpOqrGwxAmsxZluuEO6xXHwS1ysZ5LqUrxx3Tu4OOPGulzRj8+2670ZN0/ebdYZ1lbGo7TBuDku/wDPUSY8mW2w4kNjPEhzgTjHT1YrbtT6i9XRbFiMHBPuLEFRKsbiXN7Kvnjd6KRHUay2iS7faru9pqFBt12hXN8wp/OXnuavpfQlKR9nK20gk9Wa0O9WCDf24qJ/KYiSW5be4rH6RAUBn5e0al5bNzGdyo3tt2fyLY5c4l1cfQl1tpCUR1lbpcbU4hSE4ypBShR3hwwk14WfbnoGc1b4s68sR7rLtLV2ciJJUWkLaS4U5HWEK3sdO7xqZL2SaefTCVDn3S3yLfGjxI8mLICXEstNrbCckEcUuKB4dmMVBg7CtI2uU5Itki4RkvW9u3uoSttRWlDKWA5vKQVBZaQEEggEE8ONWYsylx0WLu2XZtHudvtL2qIiZF0StcYZ9laElQ389G6rcVunoVunFLzm2eVqB5cPQNuiyXlzoMNly4qcjtkPtPOlZASVYAaGMDjvVYtbCdDx50SREbkNNRIYt/NQpCmlRU8pyTPtJKkpbDq0o3SCBjicUI2K2hEVaGtU6kEtUiLITP54gvoMdtbbaUkoxuhDigRjjSxOikO2+5t6vselpNlgR3pShGuLLkpXLJf50Y6yxgbq0Jxvkkg7pHXwrYeBNZ8rYtpfn9tmiZdN2AhKHWTIBTMUl8v77xKd5SuVJUSCM9HRwrQAOztq30SAjj0UceyuRXNRp149lAyOqu1FB0weyuePZXaig4HR0UYFc0UHGB2VzRRQFFFFBQ60SDY1/wC+Z/mCsYnXTUc7VjljsD1vjx7YzFkzlSW1LW8HlLCW2wD7GA2TvnrIGOmtp1e0t+z8i2MqckMJT95cFZ9c9kJvF1i3yXBUmZFCUhxmUprlEJO8EOBJ9tIJJAPae2gzaz7X4M1yO3LbcYU0u8LuC1x1oabZhqXgoWfZVkJGagQde611HGtb1luenoz67uLTOSWFSUjlE8s2tKgof6IoBHvb3ZWsydkDcy1t2aTaGXIbSpCksqfUU/p1FToxniFEnI7CRXSNsaiwpZmwLBBiOl1p/wDxfDaeVaSpKF7o4ZAWRnrFW3eeR09SzrLXtl0HEgz74l8szJCYwUy3v8mSQN9QHEJyRk9VQJW1jT8Rc0PwLo2zEceZQ+YityS606lpxDR/bKVLTn5HNXUjYFd7+Wla7novqoqyqKUNiIGkHG8hQQo76VbqTx90VGkf0cXpEC5MrUVS7nKcfU8qQspaQuSl5SW05wgkJCSpPTgGsW2Wz0TpFBJ2ovov0NsW1Ua2CPKbuiZbZbkwJSHUtthaegI3iArs30mu52v6egyGbZem5DUxVmN3cLTJW0UpRvqbSR0rCeO704p8ibE4cSG/ARZW1syIz8N4vSC4t5p5W85vqJyok44njwFQEf0eLKiWZqbEgOFgRyDKUUlIZSznGftcmlKSekgCtTTf+SXV5FVzbFpmI3NfukG629qAzIceckxChO+xuco0O1YDjZx2LFMuktVW7WdgY1BbG322XitBbfaLbiFpOFJUk9YNW1w2LRbo0+zPskd5ElUhTgLx4l8IDh+WQ2j7iOFWNn2b3OxW1q1QWiWWQQkvSOUXxOeKjxNRu1Xg4Oa7oy44hoDi4tKB95OP/rVwNG37PFhrziu7WkL00+y6tlvdQ82o+2OgKFVGaaT2j2fVDqooYkQJRckBlmUAkvtNSHGOWbPQpBU0ro6Oum3NZYbnsyibF4tp1VfTA1LYnLvdIbsFrlpkNIuz7ZcCR9pvKxvoPAoCj1Zp72VN6v1fpePPu9mVDlDfQsOHd391RSFgHoCgAoA8QCKC4zRmrv1NvvwG/OKPU2+/Ab84oKTNGau/U2+/Ab84o9Tb78BvzigpM0Zq79Tb78Bvzij1NvvwG/OKCkzRmrv1NvvwG/OKPU2+/Ab84oKUHjSRrzVd10y1p5i1vssG5zVR3XXITkopSlrf4IRxyTwz0CtR9Tb91Mt+cVR3TZU5qyFbnJ7DoEUiRGdjzFsOIUpGD7SCDgjpFZvNqcmUtbV781eNRQnmYT6Ibz0eC0WVx8OIktsp3nFcHEnlQpRT9nAH7QrSbQxfGIxY1DMhypaHVguxWFNIKeobqiSCPx6a7t7B7emVcJTtnEhVyS4h5L8pTiAHFJU5uJJw3vKQlR3cZKQeqraybMrjYIXMYDbikbxWVSJanlqJ6ypXE9Q/hWs5mGKhDgrFds1depl/znkGvPR6m3/4DXnoRS5ozV16m3/4DXno9Tb/APAa89FUuaM1dept/wDgNeej1Nv/AMBrz0FLmjNXXqbf/gNeej1Nv/wGvPQUuaM1dept/wDgNeej1Nv/AMBrz0FLmjNXXqbf/gNeej1Nv/wGvPQUuaM1dept/wDgNeej1Nv/AMBrz0FLmjNXXqbf/gNeej1Nv/wGvPQUuaM1dept/wDgNeej1Nv/AMBrz0FLmjNXXqbf/gNeej1Nv/wGvPQUuaM1dept/wDgNeej1Nv/AMBrz0FLmjNXXqbf/gNeej1Nv/wGvPQUuaM1dept/wDgNeej1Nv/AMBrz0FLmjNXXqbf/gNeej1Nv/wGvPQUuao7J/8AGl5/3UL+Uunb1Nv/AFsNeek+3xXoWvL5FkABxtEIKAOePJKP/wBa6OFfwuJPb7ufi+Lo+f2ala/1eii1/q9Fc7oK+zFe/qy//JlgfiqtKPT/AArLtlDwd1bqMAY3Wo/4lVaien+Fc3ZPB0vbtG/E1OKzbb8m5ytHQLNa53NHLtqGz29bhBKS07MQHEKAIJSpOUnBHA1pNLm0PT9t1Bpxxq5XQ2wQn2LizOBA5s8w4HG3Pa4EBQGQekV0ueMf1PoDU+lHtNX5PqxaxD1RZGVLs8RbT0hl+c0w42snAwpLhznPX99a5r7VbuirdBvjnJi3NTmmbitY/q2FhSd8HqIWUeNJGnWHNpdxTEuG1GBfYdhuMS5PRLfBDClONOcrH5VRJ9nfbChjp3eytRvdjtOpLVIsl9hNTYEpAQ8w6MpWAQRn+IB/hUrTF439IC62i1Jm6utyEy7eytq4Q4jZK1TH5AENtGfs5ZBWc9tMek9tBv8Aqh+2v2Oa3bJMuJHhTFNbgaW/BbfS06Dx3iouDOMDCe2m+6bOdG3lNyM2ysqXd3GH5bqFKQtxxlG40sKSQUqSngCK6w9nOjrffWtRsWgekGUISl5Tq1ZUhoNJWQTgrDY3QojOK1MdUnLfmS9S7StUaWv2ok3IR2mWIji7NEcYIblBPJ5e5wD0pKyXG8ZSkZ667O611vpjUVv0re7lbrq7NmW4mUxH5IJZkOOtuNlOTxy2ClXWCeynZ/Z/pGVeZd8mWdqRKnMLjvl1SloKFpCVgIJ3RvJABIGSKoEbCtniHZSk2+ZuSwxyrRnOlO+yollwEneSpG8oDBAwo8KunHUmM7tBHEAg9NcgYrwgw2YENiFHCg1HbS0gKUVEJSMDJPE9HTUisqKKKKAooooCiiigKKKKAooooCiiigqtRcIbH/GR/wCamk/X2v7xaZ12stihMldssr1xfkuSEpWlakOFlLbZ4uHLRz1DIpu1Q4Gra26RkIlR1Y+5xNU09Ombtc2LtcNPMSZcZpbTT62wpYbWPaTnsPYeHE0CPf8Ab1P0pGhN3zTW7OTcUx58ZmQHFtRClpXOU44KADyQR1HhUcbQ9cy59sueoHI1otka/TbdKbt8lt1ag3LLLJdSr2txQGFbvFJIPRT3c4mkby+1Iuul4sp1hzlEKcaSSFbu7nwAH8BXm5bdGSJ7dyd0pFXJZlLmpdLQKkvqxvL/ANo7oOe0ZpvSkuxbeb2ubpG2ai07GTKvzzkeaIMnlRDUp51thSvkotKB7CCK6u7d9UwYj9/umjWmrY/Yrfc7ey1LDkpb0x/kmkKSOhOVJ3iPs4PbTq3bNFMXBm6t6RiJlx1rcbeDKQpC1qK1EHqO8SfvJ7a9ZkXSFwaSxN0vGdbTEMBKFNJIEc4PJge7kA46scKswEte2bUVzXY2I2nTbDKkW1q4CXJQl5lch4DcS0eK0lIPtD3u0Gtn680js2nRLMmDMRpOIHrY2GYiy0kqZQDkBJPRg5I7M8KvvWVnuq/EUxCeq7xRiqT1la7s54ij1ma7s55hUF3igpB6apPWZruzniK59Z2u6r8RQKeodguzy9x5DcW1Jtj8mQ/KXIijC1LfC0v72c5StLrgKegZyACKbtKaai6Ts0eyw3XHGYyEttlxW8oJSAkAk9PADjXX1ma7qvxFHrM13VfiKC7oqk9Z2u6r8RR6ztd1X4igu6KpPWdruq/EUes7XdV+IoLuiqT1na7qvxFHrO13VfiKC7oqk9Z2u6r8RR6ztd1X4igu6zzU+s77pNrR7VstkWVEnqcbnrdf5NTTTcRToKM8FKJRjFNHrOz1xXPEVUIkWe6Wy3xrnaEyxEDbjXKJCt1aU4Ch88Ej7iamd4snmX7PtrZk2qLNvNnMGRKRbHkRuXStZbmpKkkD9opAwcddWeyPaXM2m2mXeH9NTbS0h1Jil9OA+wtO8hQ+YHAjqOKmPRNIvToVzc0xFXKt7SWojhZTvNIT9lKT1AdXZXpZF6d022+zZLA3ARIdLziGUhAKz14qzzS7GsZz1124/OqT1naCv1RzxFdk6naPTEcH8RSbpFzx+dHH51T+szPdl+YUeszPdl+YUVccfnRx+dU/rMz3ZfmFHrMz3ZfmFBccfnRx+dU/rMz3ZfmFHrMz3ZfmFBccfnRx+dU/rMz3ZfmFHrMz3ZfmFBccfnRx+dU/rMz3ZfmFHrMz3ZfmFBccfnRx+dU/rMz3ZfmFHrMz3ZfmFBccfnRx+dU/rMz3ZfmFHrMz3ZfmFBccfnRx+dU/rMz3ZfmFHrMz3ZfmFBccfnRx+dU/rMz3ZfmFHrMz3ZfmFBccfnRx+dU/rMz3ZfmFHrMz3ZfmFBccfnRx+dU/rMz3ZfmFHrMz3ZfmFBccfnRx+dU/rMz3ZfmFHrMz3ZfmFBccfnRx+dU/rMz3ZfmFHrMz3ZfmFBbqzg9NYzK/zo6l+6F/JNacdSsEfqy/EVlpfEraTqKQlJSFphHB/wBya9eHPo130n3c/F8TR8tJtf6vRRa/1eivJ0Mt/o5a30trq/aquGlbwxcGWUxUOqaP2Cd8gH7xmt0VnjjsNfn3/gm1qVH2n7x/tVs/lO1+gp/+leXB0f8Aj4c0eTfF1d/XdTFLFrXau/8A0g9RaTRZzM0dGUxmS6jcETMdCvYV+3lRORU7bumXNl6csjtwagW6QZ8svvtF5hU2NHDsZt1sf1qODy9z9otAceitaCQOIAyTk+FLO0trSTmlJHrqvctyVt4WkkOoeKgGi0R7Qc3yAnHHJx116vKMp1DqS7aacv20rSCbJFkIs6JHoyQ/uoudsDWYUvcSN5pzl1uNBB6QQOnFaHra/wB4iaasin5hsartNiQ7hLSBmGhxBK8KPBJ3wEBR4AnNItkg6BkaptknV0rVsh8yWo1rVqCIWWFuAktN72Byh3jlIVw3uIGa22bGgzYS4dwjNSIz6dxxp5AWhaT1KB4Gla9mYTdp7ukpUOxQHU3yDEbjGTNkzEmZIS+8W0cilIAeKSDvEDqpfvm3u6R4SLku1oSy1KhzEpt7wkrVFcdU2WngP6tzOCodSQo/smtka01psKhPtWG2hVvTuw1CKjMdPY2cewPurvH09YIan1RLJAYMlwPPFuMhPKOcfbVgcVcTxPaamn1OmIyW7bdLpZbhDtsTSjl2n3GSnlEsTEGO20luOXOSWcAn9OCB17qjT1oPXErVk/UUCbBjw3rNcFRUsod5Rzksq3FrxwBUE5AHQDx41dPaa0u8hiK/YLYtuK4HGG1RWylpYGEqSMeycAAEdlTIVptluU+q3W+NFVKcLz5ZaSjlFnpUrA4n5mtZnVMJYOa5rgcOFc1FFFFFAUUUUBRRRQFFFFAUUUUBRRRQUmruFnz/AKwz/wC8VjeoJNqVtCZh6tu0+FHaZhLsrTTy2mpEkrcD3FP9YsYaG4eG6rPXWz6oQHbc20TgLlR0n+LgqO7paDuhyRLOGyVhS0p9nHXk9HDroPnNzaNr3Sukn3ZjcJ2RJQpdsdebcIQszXW92QrGAClIIUOjgOsVEm3XUGvrBqGTf5r8UNwrLc7dCguPR5EYvoCXsqTjfSVb4x1H7q+k2dOWmfGS7GnokMOfZWjdWhXHqIyDXr6rQULSOckKUMAFKckA58Ke5ecYVdte33S7Euzxo0GM1Yp7FqkSZjjjiG0vv4juE8VK/QfpFZ454VDt21nWs3U+l7Iiy2wxLg0Fy5a3VNCUnlnGy5GSoZICUJXunjhQFbQ3sq0s0HWN91wyZ6bq4XXN9a30EbqiT0hOAAOgAAVc+qMDKSXSSj7OUJ9n7uz+FWXfcnL1UGQoAiimL1YjDokueFHqxG7054Couxdopi9WI3e3PAUerEbvbngKBdopi9WI3e3PAUerEbvbngKIXaKYvViN3tzwFHqxG7254CgXaKYvViN3tzwFHqxG7254CgXaKYvViN3tzwFHqxG7254CgXaKYvViN3tzwFHqxG7254CgXaKYvViN3tzwFHqxG7254CgXeORjtrLdr8xUOFpDfkJbiu3FQkBye7EbUAxlIU43x+1xCegmt09WI3enPAVCt+l4cq2RHHZBUlTLawFISQDujtqWZsWXEr5jj33UEXUmtU2+fOUoOSuVVEkOSHI8dMxkcoW1DdaUGVucmE53gFE9ArTk3mwae2eXO76DkTL0yxyiYKQ8uSt19ZCUpSpfFXtKzjo4EVqyNK2/K1NSfaJIWUpTknsJH/1ruNJwg1uIfUlHSAlAAH8BW7ju4iY33fM67xfpFnY07MuV3szlqbukZ+Tc0rQtTO4w5HceKckBSVLRvDiBk9Nals4uLNz0bbZUeM8y3uraSlx9T2d1ZTvJcVxWg4ylR4kYrRzpKGrO8+s54HKQc+PTQjScVACUSFgDgAEgAVNujMlheopj9Vo/enPAUeq0fvTngKjRcopj9Vo/enPAUeq0fvTngKBcopj9Vo/enPAUeq0fvTngKBcopj9Vo/enPAUeq0fvTngKBcopj9Vo/enPAUeq0fvTngKBcopj9Vo/enPAUeq0fvTngKBcopj9Vo/enPAUeq0fvTngKBcopj9Vo/enPAUeq0fvTngKBcopj9Vo/enPAUeq0fvTngKBcopj9Vo/enPAUeq0fvTngKBcopj9Vo/enPAUeq0fvTngKBcopj9Vo/enPAUeq0fvTngKBcopj9Vo/enPAUeq0fvTngKBcpJhf/H19/2IX8pVawdLxwM86c8BWXcgmLtJ1DHSoqCEwgCf9yqvbh38PiT0n3c/F8XR8/s0m1/q9FFr/V6K8XQ+Hv8ABNj/ABXadw/tVs/lu1+gh/8ApX5+/wCCc/VNp3/FWz+U7X6Anp/hSLXA6BWa7fLfCummbJAuWeZvaqsQfIWUYQJzZzvDBT0DjmtLBOBUS8Wa2X+3PWm8QmpcSQAHGXU5SrByPAgEHqoxGN7Rtm2m7FE09cUXO7TZDOrtOqiJmXBbqUK9JsAlKeGfYKu3hx6qdttNjavmzi8R+byHpDEcvRhHdWhwOjgCNwg5wTUqybJtEWK5NXWJaVOSY7nKsKkSXHwyrBGUBaiEnB6R0U4BIBzUuejTFZ+uNR7PY0tLsRDdkjv3K22thuI66tCmGcxgpXFSuUVvDPRwAzxqrvGv9oU66zIjN5FuRbr5ZFOFq1qcbbhOuJS62tZ6XCVZUAMJTg1v2BjFcboGeHT01ZcXNS8sRkm1iyNxdSwNa221SJNwgWydJ4OvFoOs8lySltoOFbuVqAxxwemlpraJrt272Cch1U63LXOgSb43BcbjchvxVJfLHTkrUtkdQ4q6M19A4FcBIxjFJfNZ6vn/AE5tM2y6pfdhpj2q2Oyrw7DG/GW65bm0xpTm64nhvHeYawrPHfx2U4bN9e6p1Pq16BfkJZacscO4NxmoqgI7i0ILiXHD0L3lKwjH2RmtQ3Rx4dPTQACScdNNsjkffmua4wKMUHNFcYoxQc0VxijFBzRXGKMUHNFcYoxQc0VxijFBVak/U2P+MjfzU0kazut8ia2WzNjXiRZWbQ68xBgxA4zcHClwPNur6UKADYSOveNOeqlFu2IWk+0mUwoffygqpkaokxIzsyW+20yykuOOKGEoSOkk9lBjaZO0G1QdNN7PmX7PbbhdpEq4Jctr3JsvlTITHS1glDBRvneOAVZPCtA1hqKTfZTF40BMFxdtUO4odVDIeLLiks7o3egrwFlKT0kU0J1DcFJCgUFKgCMI6jxB/GoVrms29tw2mJBjpdWS4Y7CEBShwOd3pIrOuXXNqTa5ZbJnbSS5arrBlakWEszI1tkrto5eWrlGFsolI6GklYdSVe4AeFfQ7RcU0kuoAXgbwByAccaV/WC4YxvI8tcjUNxxjeR5a1pmENOP3fxrnJ7KVfWG4++jy0esNx99Hlq4U1ZPZRk9lKvrDcffR5aPWG4++jy1A1ZPZRk9lKvrDcffR5aPWG4++jy0DVk9lGT2Uq+sNx99Hlo9Ybj76PLQNWT2UZPZSr6w3H30eWj1huPvo8tA1ZPZRk9lKvrDcffR5aPWG4++jy0DVk9lGT2Uq+sNx99Hlo9Ybj76PLQNWT2UZPZSr6w3H30eWj1huPvo8tA1ceysg2vXHaNb9J6aRoF5UVDziEzpSI6n1spDYLY3EgkpUvgr5U6jUFxJxvo8tVh1iix2uELhPYjtuJQw0XeG8rczgfPCSf4Vm8xn0abtVs921Km1t3N93lZ0hyOuFiMhpW6pD0dROVuFW/hHZw6q2HRDq39JWx1cy4S1Kjgl+4M8lIc6eLiP2VfKquDq164xG58GSzIjvDKHUDKVAHHA/fXaTquTCbU5JkNNBCN87yeITkDOOnGSB/GtzeRnkcKKU1aguecZTnOPs9dVMrabbIFz9CzL7Canckp8sKPtBAGST2cBnj1VGmhUUptaknvtpeZcQtC0haVBPApIyDUR7XCWJUeC7coyZEpZbZbJG84oZykdpGDw+VA70UpI1HcHCUpcQopVuqATndPYew12F/uR4BSfJQNdFJK9ablwbtS58dMx1BcQwcb6kjpIFSxqG5EFQUkgDJ9nqoGuilUX+5noKe37NAv9zJCQQSroG500DVRSHA2iQrm+7Gt95hyHWWEyXEIUCUtKUpKVn5EtrGf3TUmBrJy6QWLlbpjMmLKbS6y82MpcQRkEHsNA50Uq+nrnjJwP+SuPWC58TkcOn2KBropMn6xXaoblwuU1iNGaTvLdc4JA++uts1oq829m62uY1JiSBvNvISd1QzigdaKVfWC5DrT5ahXHW6LS2Xrnc4sZAUlJLhAwVAlIP3hJ8KB3opCk7Q4cK8xtPSrxEbuUtBcYjK4LcSOsD+B+/Fcp2gxVzzaxd4hmJXyZYBG+FYJxjtwDQPlFKnp+5DrT0Z+x1VFl60VBW23MmssqdSpbYUOKwnG8R243hn76GDrRSqb7dejhnoHsddQ/XNSbkm0LnRxNWjlEx+G+U9oHZQO1FJMLW4uUZ2ZBnsPsMOONOOIGUpWg4WCflg5+6vePqmXKjtSoz7brL6QttaU5C0niCO3NA30Uky9bCA7HYmz47LkpfJsIXwLiuxPaal+sNx99HloGpX2TWLyv86OpfuhfyTT96w3H30eWs6aeXJ2iagfcI3lphE4/3Kq9uHPo130n3c/F8XR8tMtf6vRRa/1eivF0Phn/AAUjb7sXaaGJHJYlWzPsb2f0blffpiTs/wCUz0fCFfA/+Cb/AFbad/xVs/lO192XbVFttM5q2uokvyXEham47JcLaCrdC14+ynIIz8jUi1K5pP8A70P0RXPMrh/eh+iK9DOhJQ44ZjG4yd1xXKDCT2Hsrwt1/tV0TIVDmNq5o66y6CoApLailRx2ZB49FViO3Mrj/ep+kKBCuHXdT9EVMaeafbS8y4lxCxlKknII+RrvRpB5nP8A70P0RXBhXDqup+iKn0UEDmVx/vU/SFc8zn/3ofoip1FBB5nP/vQ/RFHM5/8Aeh+iKnUUEAwrh1XU/RFHMrj/AHqfpCp9FBA5lcf71P0hRzK4/wB6n6QqfRQQOZXH+9T9IUcyuP8Aep+kKn0UEDmVx/vU/SFHMrj/AHqfpCp9FBA5lcf71P0hRzK4/wB6n6QqfRQQOZXH+9T9IUcyuP8Aep+kKn0UC1qaLMbtYU7P5VIkM+zyYH+kHXWQ640zqW+Xq4NsxJciFJsrkSC81ODTMOQpDgWXWj/WFZLe6egbtbZqcBVubSRkGXGGP/mpqumXrTETUrWkzEU7cHI4lKS00FBpoubiVLOfZyrOPuNJzGAap0NtRYRCtmj5szmcK4icxIM8F1Cg2zltze+0yVJd4dIJGOFPmzfTL2krZdbW9HkNh69z5jK3ZXLcq086VpWnPFIwcbp6CK02XN0jBYdkzJtuaaYacfcUp1ICUNj21dPQB01IaXpxz+qdhHLRf4OJ/qxjK+no4jj0UnLcuc5hYBHaaMjqJpoSvTqkMupeglEj+qUHU4X/ALJzx6D0VygWBwRyhcNQl55AhwHlcDJ3ePtcOyoZyVs/M0Z+Zpy9F2/ujfhR6Lt/dG/CqE3PzNGfmacvRdv7o34Uei7f3RvwoE3PzNGfmacvRdv7o34Uei7f3RvwoE3PzNGfmacvRdv7o34Uei7f3RvwoE3PzNGfmacvRdv7o34Uei7f3RvwoE3PzNGfmacvRdv7o34Uei7f3RvwoE3PzNGfmacvRdv7o34Uei7f3RvwoE3PzNGfmacvRdv7o34Uei7f3RvwoE3eAwcnppUv7AflaUVIjqfhmWph9HJ74BcjqCVHsGQRn51rptVvPTEb8KVrlqHTWlbXZEXGFIfk3JCWo8eJHLrrhS2FLVuj9lI4k9VJzlS7zEY5qrSO0X15tkrRKk2yywIfIN8m8kR1FxDnKco2eO8lakFOB0A541Dd0Hq5Xo27W+1XWFdGLU/BWZF4DvJuqksOqcUehSXEodCfdyK+hYs7SU1C3I0uA4lqUqEopdTwfHS30/a+XTUp5vT8ZkyJBiNtJAJWtSQkAnGck9vCpNMmLejXexdnzrrPRe1SfYpcC03+aUtT0sMCLIQmRJgAurCwV4AcCltpOTxS186tLbpzV1ut17sEiyJnqvSHnzenH2kuJcVGSgIeT076VDAKfZwa3jm1jXJMLcjF8J3+SyN7d6M7uc44ivX0Xbe5teWpZbLPNM9Xy7qXZ/tQiWWLY9HzppbZkMTGpBuA5Vp5EdAKTvcCyXUq3k9WeA404aZ0KbNbL6mZaHFznLvcZ1vkOS+UUoPjeSptR4tcVKT8jk1uItVuP9ka8K7ei7f3RrwrduebMzt5R86p2dalTerq5EfuEJiZPlXAvekipLq128NsgjpAQ+Pa6iQDVVqXTW2jUttbSyu4Wrdfhh+NEnMqkLS3GUhTiVEhIBe3VkZyRivp/wBF27OeaNeFceibdjHM2vCkuFuejHrtbJl70vLlW2GpGoEQnIsSU9hDxcTgFW8OCQvdPy40qXHSe07UMiXe3XZlpUBNkwIKLin9HIVJiqjpc3eCglpEgY6OOOuvo30XbuuI34VwLVbx/ZG8fdWZJJhqasZ25vmnUOgtpsuXaH7ZqC7tsru02XcBFlNlaAZRVGUAsgckljCSgdtQ42ktrabneZd1auD9um3NiWu2xrmhtS0JceCkx3M5Q3ulhZCsE7qhX1F6Kt3dG/Cj0Vbu5teFalwl3fMOnNlms7WIcgc3jPv26FZbkovhSjCK31yN0jpWkrb3T17yq8oWzrajFutpZbu1zi2q32RENhi2vshtlYYdQttQUcqJWW1JUBgFI+dfUnou3d0a8K49F27ujfD5VJ9OMeRM4x6vmKNpbarFi2tbUB9cmNYpUF1l65/om3ipzcVnOVPKCk5J9kY4Glq4W3aLpi2WuyXi73R+5uFTdsbFzSl9oKntqy6lOQ6eQKkcDwAPbmvsP0Vbu5teFdFWS0LWl1dtjKcRncWWwVJz2HpH8KswZw+aLdoTabHvd2vd5lyrxza+IuMeBIfa5pMabef3Es9aFJbcbwFjG82Pvq8uVp13ddSW+6M2qXbkKVDcbKLigM28JczJQ8yng6pxI4EcBn5Vv3oq38f8Ub4/KuPRNu7o14UziyxLPJ85Q9M7Srw5CtupFzoMGKmLFkuM3FO/MQh14uOgp4pCkqbHbw+VT9F7P5sTUEydrG3uXHntqtrS3n5XLN8tHDiCktn9vdKDvdeTW/C1W4f2RvwoFqt/dG/CpNkxbc2vnp7S+pot8dnvWQvQ3Z8O7uTFykuuxkxEuJ5BI+0ouZSU44AKUD0Uwaq0tJuCod00vDjwrpyrj7slQCVJUqK4lBJ691ak+Ga2U2q39UVvPbij0VA7q34VjXM4k88//G851XVXyzetE7WZlhZhaej3O2JM1EhDTt2Q9JjuIbGVKWThTLjmcp6QAMDjVl6l7RX9Um7OsyBIaMvemquCSy+HXWijkWv9EEtpUg9pHzr6U9FW7ujfhR6Kt/E80b8K1yuZ6/8AbN3m/p/0+Zr5prVmmrO9cbnfrg7Dkc3duzblz5NTpEt0qbZcIw1lpTQyOpGOmmLQtpkXPQVrvFwhyXrs7kpeXI3ZQjmRlILpGf6oD7wMddbq5ZrU+2W34DDiD0pW2FA/wPCu6bVbUJCREaAHAADFJstua+WouzTaNZJmmYFjcfZtVsS+Zn+PBaHg+/ILyHEq4nCFtFGOvez0UStCbVGrfdYNpdmMIch25pLgmo5RSW91LzEZOd1Cd0H2lYOfka+pTarcTnmjfhXHoq3d0b4/KqXf+fzmyLS9rdOnbfCv8J+ddrG0htD88I5VchLYVkKT7OclKSocM/dVvarhqGS6gXawtQ0KTlakyQ5unkm1YwP31OJ/+WD+1Wj+i7f3Vvs6KBbLeP7K34UoTvZ7RSRD/wDj++/7EL+SqtoNst4GRFb8KyF9CG9p2pG20hKUiFgD/cmvbh38PXPSfdz8XxdHz+zRrX+r0UWv9XorxdD4e/wTf6ttO/4q2fyna+4J1lvzGpnL5ZJMMtTo7EWW1JSrKQ2pZC0EdeHFDB4cAa+H/wDBN/q207/irZ/Kdr9BD006LebJIuybVDF0n3aRdLdK51LRJXEdDnISSku+0tI+ycOJwBwyjjXvdNjsyW3Pct90ahybgq4qeW0Vp5QPutLbbJ91PJqSf9rhWp8CcVQa31nadBWFzUF4Ky0H2YrTaCAp195wNtNjPAFS1AceFTFrPJ30Pp5Wl9NRbMpKUqZ3yUodU4lJUonCVK4449HVV9Wbt7YTAuFriar0q/Z2LxOZt0SSZrL4U+8rdaSUoORvKIT95rQpMuPDjrlSXkNMtpKluLUEpSO0k8AKqvaivGJLizo7cuFJafYdTvIcaWFoUO0EcDXbl2eW5vyqOUKd/c3hvbucZx04zwoPSiio0S5W+4JUuBOjyUoWW1qZdSsJWOlJweB+VBJorjI7aMjtoOaKKKAooooCiiigKKKKAooooCiiigqtSHEFo/63G/mppZv+zlu7axVq+O7FZkqRbGi5uHlS3GlLeWneB6FBQGPlTDq3/JI/4lj+Yms/uOr7izfEWC0WOZc3WUMvznG3ktoisuqUlBJV9pR3FHdHHAzSc5SzKpc2Bv8AJxrYwq0Jh+qz9inuuoW6uS8tBG8AThIKiFKV0qwAakubFLqlD91tsy0wL0+6+rfbQtTKGF2zmojgE/1YdCXMfLPTXNp2n2C8OQmo1wbDst2c2tkSEqcjiIVBxS0g5AO4cVVK2s3aXFtcuyaKuM1NxnKtpQuY2wth7JKQsK6lNgOAj9lQpOvq13rh1s39HCVHs0SBcrtGcMNqQmOgOurTGLtwblYQokHAQhbYP73ZmrGRsGl+t2nbxHurZtdlkuOtQkyXGUxU87W+gtBOQTuqCFA8CE46KvL1rCxabZac1BemLel/PJl94p3sAFQHbjIz2UsX/a4myzn4kexzJzUFb6pjzclCQ0y1ye84kE5X/WpwkcTilu+7M3bqFDH2k+NBWn3k+NZNJ2jaNiKKJWq4LRTJMMhT54PDpR946+odeKgX3avpiyT3LUq5mZMZbdW9Hir33G1IKAG8dalKcQAB1njQbPvp95NG+n3k1kreuGbdDbf1qE6ckSHyw1HlS0rKz1EKTw+/s666TNpOmId/Rp1d6ZMlKJDkrD3CMlpvfO+fmDjh10m+w17fT7yfGjlE+8PGs5tV+gX2E1dLNcW5cOQCWnWnN5KgDg4/jUzlnfeV4mgeuUT7w8aOUT7w8aReWd95XiaOWd95XiaB65RPvDxo5RPvDxpF5Z33leJo5Z33leJoHrlE+8PGjlE+8PGkXlnfeV4mjlnfeV4mgeuUT7w8aOUT7w8aReWd95XiaOWd95XiaB65RPvDxo5RPvDxpF5Z33leJo5Z33leJoHrfT1EeNZ/rTSd01bpK1Q7P6PRLZShaJMhTiHIp3AOVaUjiFpPUeB6DXty72Rha859414wnnUxGAlSgOTT+0ewUsztSEXUH9H27XKfGdizLaIrN6k3N1ppxyMZJfLKy+vcz+mQppYTjhuuGpWtNgd11DZJFri39DjbVwSuFEdecbaMAcooR3FJyokOOlWf3EdlO/Kve+rzGjlXvfV5jVzthMdUDTWydmwakiamExCpcd9wrcU4tbi45iNMJaKieICmgv5nj05rRsjH2hSRyr3vq8xo5V731eY1mbSTK+dPAUB+0nxrnfHvJ8aRuUd99XmNHKve8rzGqHnfHvJ8aN8e8nxpG5V73leY0cq97yvMaB53x7yfGjfHvJ8aRuVe95XmNHKve8rzGged8e8nxo3x7yfGkblXveV5jRyr3vK8xoHnfHvJ8aN9PvJ8aRuVe95XmNHKve8rzGged8e8nxo3x7yfGkblXveV5jRyr3vK8xoHnfHvJ8aN8e8nxpG5V73leY0cq97yvMaB53x7yfGjfHvJ8aRuVe95XmNHKve8rzGged8e8nxo3x7yfGkblXveV5jRyr3vK8xoHnfHvJ8a4Kgf20+NI/Kve8rzGjlXveV5jQO+R76fGu2+PeT40jcq97yvMaOVe95XmNDB53x7yfGjfHvJ8aRuVe95XmNHKve8rzGged8e8nxo3x7yfGkblXveV5jRyr3vK8xoHhSxg+0nxrGZX+dHUv3Qv5Jpu5V731eY0jwyVa/vpVknchdP+5VXtw59Gu+k+7n4vi6Plp9r/V6KLX+r0V4uh8Pf4Jv9W2nf8VbP5TtfoIemvz8/wToIjbTs95tn8p2v0DPTSLXNZnt5jQpGmLOq6R23bexqeyvzeURvNpYRMQVqWPdA4k9VaZSHtc19B0FZYDky2x5y71O9GsMyX0MsFXIOvK5RagQBuMLwMcTgUZI2udM7K7c1YPVGLaV3WRqywLZEZ7lnQEXFlbikjeVugNhZJ4YSDWgbUrbNuFotrrNpeusKFdI8q4QGeK5EZIVkBP7eFFCtz9rdxWD6f/pIaLtMi2XmJs0sEBu52xq9uPQ7mwt9qMtxpsjdCclwcun2B04Ir6jn3KDabdJutykojQ4bS3n3lnCW0IBKlH5AAmi1i2oLltRTqnT3/htpm42q0NxSpcKRGSiK7ygd/rAP6lSFhs46wvh0VXuWfabJlwdVWZ7UqJ0GzOhwT2EIdkyOfNKMdSQccnucoRjpTit9jSY0uM1LiupdZeQlxtaeIUlQyCPkQa85txg25DTk2QhlLzzcdsq4bzjit1CR8yTikz1XPRmOzRW0+ZqLWDevZMlUNTzqIcUxeTbQnlFhBYdz7SS1uZ/eOaTbZYtfQPRK9OWq/Qo1mnykRQqI3HXMUuCtLZmIB9tCHUoTyvSreya+g4sqPMjNTI6t5p5AWg7pGUno4Gukm5Qoqi28+lK08nlI4qG+rdScDjgnIz8qdcpLtise00Nq0x2KFydRItbcwyVm4MttTHtyMpSmVY4JbLwQlJH73VSLL1VtstGjLhO1LPv1vQiROkQHObtCWV8zC2GXAo+00l3lASOJwnqNfURIxn+FL2s1aOjW+PddZNwzGhPh1hUhrlMO44bicElXDoA6qZzSbEPZxK2tzNolwe1fMkt2bmSObxjDwwocm0UOJdz/AFm8Xd5OOr5Vr4qNb58W5w2bhCd5ViQgONrAI3kkZB49Fct3GE5NdtqJCDJZaQ840OlKFkhJP3lKvCnNIk0VxmuaKKKKKAooooCiiigKKKKCm1YCbSAOnnLH8xNZ7cNE3lzUI1FZbzLtq322GJ7IjB1ElppSijGf6tY31DeHUcdVaNqRIVAaB73G/nJqpv8AtK0vpq/xtN3J2Vzp/kN5TUdS22S85ybIcWOCd9QIGew0Nsbs2e2JWZVqTAixVxH1ekkvzI8dKH3kTFKLiSsDPALIB+4172TZBC07I37W9dCwJ8e5JYkOl/DzTSmvtq4gKSUgj9wUxRv6QezSfGlSbXc5U/msvmnJxoq3FvK5NSwWwPtJKW1nP7pr3l7edmMG6qs71/zJTbzciEMqUA0Gg7u5H7fJqCt3pxTOLL5E3mGfah0LtI1xd7Q5d7bBsbUBq4sqfjETSW5DKW8bqxgEgEA9XTVrH2L6eRe4l4mwXpogrccjMyEFSW1KDIB4HiRyKenI4mmi57bdOMOzrVbmpKrxDgx7jzSUypreYccaQTntTyqSR0itFHHr6DTXpmrFwt4meXlhhlx2OLkR249tuciEpXpBEpZgtu8uzMeDjqRvfZVkABfTiojuwpuRMc5W7zhBb50YTDcZCHYyn1tuFXLfaWUrbSU56sg1v4H71H/NSfTyS/VMVh132Xalvkdg3PVj7k3kZEOTI9Ft7r0V4gqbSg8EKyMhY48TVRcP6P0W5sv2yRdpptZblNxIxiJK2OXCd4rd+07gpBwerIr6I/5qMfvVJtLKlmcMr0Tog6M0/GsEVltYYU4tS2InIIUpayokIycdPbV9zOZ3dfkp2/5qP+aqpJ5nM7uvyUczmd3X5Kdv+aj/AJqBJ5nM7uvyUczmd3X5Kdv+aj/moEnmczu6/JRzOZ3dfkp2/wCaj/moEnmczu6/JRzOZ3dfkp2/5qP+agSeZzO7r8lHM5nd1+Snb/mo/wCagSeZzMjEdzp92vCDElmIwoMLILSSDu/Kn4ffSlOvtytMDT1vtUWPJlXEbgbdWU/o0MKWojHXkJHHhxoIpiTO7OeSuOaTO7OeQ11XtVstjuFq07rJKrZe7nEelpYQC40EthainfH7W6gkDrqN/wCOWiFwOeN+k3FrcShmMiAsvuhTRdQtKOkpUhKyD17ih0igl80md2c8hrnmkzuznkqoY2yR5N5u8CPDadiNphOWiWlZ3JyHkNLcGepSUvJUB1pOeo1NXtx0C1Ku0Ay5q5lmnJt8iOiKpTinlJWpO4B9oENucej2TQSuZzO7r8lHM5nd1+Sq+Zt/2awLE7qGZdJLUVt9phAXFWHH+UbLja209KklCVKB7Ensq4Z1de33H3Y9lbehzEoNlkNuEiZvNKdBX7g3U9J6yB10Efmczu6/JRzSX3ZzymrCz3jWkqU21ddNR4rKoSnlrTI3imQN3DeOw5Vx+VU0va7ZdLP2u0bQFt2i73eSWY0Vol39GXQ224oj7KVKUlOe00yJPNJfdnfKaOaS+7O+U11tW2XQ13WUR5slsbxShx+OptDg5N1zeST0pww6Ae1OOyurO2HSKZAjS5ywtwzHE7kdeG2YxbDinM9GC62PmVDFCb8npzSX3Z3ymjmkvuzvlNRZG2/RMS3onyvSbJUtxK464S+XaS2kKWtaOlKQhQVnsokbb9CR7rItHLXBbsaQqOtaIa1N5Q6lpxQV0FKFrQFHq300PVK5pL7s75TRzSX3Z3ymoX/jzs3VOulri3d6VLtTzcdxuPHUsuOLcLYS3j7Z5Qbh7DVZfdtD82DdToS2h6RbLGxqHl7mw6iK7HXygLQUniHQW8Y6jnspkMHNJfdnfKaOaS+7O+U15jalZrHaEuatmNouMdbrE1uEw4pCHW1NhQSD7WP0zQGekrFeD+3XZ1Gds8SZdH48q9PrjMxnY6g60tLvJKDqf2ByhCcnrIoJXNJXRzZ3ymueaS+7O+U129atYCC7HOlW/TQUXGooePJKjgpTvlfQFbx+z2DNeL22XRUOTcosx+a0q1Jd5dwxV8mtbSgl1ttX7akkjIFB6c0l92d8po5pK7s75TXVe2TRbUqRGkvTYwjMrdU49FUltS0J3lspV+06nrQOOeFQrRtH1Bqtcx7TOmsxIsxcVxc3eZcbxHQ4krb6ftLAwOrjT1OuE/mkvuzvlNHNJfdnfKaYNJX4am0vadQFnklXGGzJU2DkNqUkEpz8jkfwq3/gacgkc0l92d8po5pL7s75TTv/AANH8DQJHNJfdnfKaOaS+7O+U07/AMDR/A0CRzSX3Z3ymjmkvuzvlNO/8DR/A0CRzSX3Z3ymjmkvuzvlNO/8DR/A0CRzSX3Z3ymkSKlSNoF+QtJSoIhZB/3Kq3FXQeBrGJX+dHUv3Qv5Jr24d+jXPSfdz8XxdHy0W1/q9FFr/V6K8XQ+IP8ABPHMbab/AMTbP5TtfoEemvz9/wAE8kiNtOOOBlW0Z+5t2v0CPTSLXNZD/SMhX1216Tu1jtyZYtGoDJlb0DniW2VwJjO8WelXtvIHDo3s9Va9SPtf1nc9D6RFyssNUmfMuMG2R0pb5QoXJfS1vhHDf3Qoq3c8cUZfHcWwbQbnadN2BrS4VJ9TGLAUeqymSiRy8Q7inDwSrDSzynVuk19mbSrBqXUun2bJp2XEjF+c05MXKb5RCoyFlam9z9rfKUpI7Cay5jazqa1XezFu9XDUEabe4FqnMv2MxExUyn0shwOcPsqWk4456Outk1dq2Do21IudwiTJXKvtxmmIjXKOuOrzhKQSB1HrpVYnF0NtKYvVk0xNcMqRZ4LHIz48xTEeOlNxWpDvJftq5D2CjsGOg1J0JonW94Ee9SW3Y7KrixJeMqcp1Uss3JxwOBB/qtxoBIHXkdQraLLqew36FCnwZzP+PxkymW3FBDpbIzkoPEY6/uNcRtV6ek3D0ZFuUd1ZZQ8laFpLSgpwoACgcFW8kjHTUzczIyN/QG0pu23CO9DRcLk9ZIsFieq6FKW0hLaX2Q2eG+SHFJcPDJGa8dKbJtfWh6HPmyFLunoqFb3bgueVKQiNcHXEoUnoUTHW2CodaCOutan61sFt1LE0pLlBM6XCfuHEpCGY7RAU44SRupJVgHtzVm3d7O4GA3dIaucgKYw+k8qCcAp4+0M9la06sYsZ1ZuzG7Hss1lMbTCvy5MGA7LjKubbd1W4qepCXuVfChxQlwqb9gY6PlTNJ0vrKBp3R0pplq73XTIIkxXpASJW8ypreDiuAcSMEKP73bT+9dLVGbDr9yitIUd0KW8kAnJHST2gj7wa8p1/sluYfdmXaG0mMQl0LfQClRzhJyeBODgdeKnquMsd1DoXa7fNcSNSWx5qztLsz0NDbM7LRUtj2UqT08ol3OFgYwQamW/ZVfFSYl9iQnbHKhMQW4cY3NT4ZU3JdU+Vn/SBTbnDP3VoFy19ZrdabbdI8adcF3hoPQYkNjlJDyN0LKgnIwAkgkk1cMXq2PpJE1lpaGQ+6y4tKXGUEZytOcpx86mNsNXnln2xDRutNJR7x66XSdNlTJDat5+Sh1takhQU62E8UBeRlJ7B2VqNUsLV+nZ13cskW5x1ykssyEAOJ3XkOhwpLZz7fBpZOOyrONNizUqchyWX0JWUKU0sKAUOkHHWOyqnN70UUUBRRRQFFFFAUUUUFRqdYRbm1qOAmXGJ+7lU1nmt9HetWu7XeYlzTEtyVRHrluyHAqUYrxcaQWgN1Q4kbxPDePyp/wBX5FmJAz/jDH81NZpftfM2S6y4KrTIfYtkFM64SUOoSmOhW9yaQg+0sqKCOHRwzTqei/01s+0BpVDbVrel8iw+t6O047lMcKaU2UIwAQgJWQAc4rwRsy2ctzH5rLkxsSoaYT7CXcNuhLYbDhGM8puJSN7PVSZL2vLiNux3dG3A3KLyq5UNElpfINIZS9yhcHsnLZyAOORiq647cBYYl1n3nTL3Nod8VbY3ISULceihttZk7mMgDlUZHVvCpjfKSTTMRo72zbZ5Kvtw1FIdmuSblynKIVIUW0coptS9wY9nKmUEjOOHDpp5TerYOl/iengaxWTtNuTy7a9Y9KuS7fPvaLWiWqW2jlWyFhbqUdIwpGMHiRT6P/SrNWYXTim703bPj/hR6ctnx/wpSoopt9OWz434Gj05bPjfgaUqKBt9OWz434Gj05bPjfgaUqKBt9OWz434Gj05bPjfgaUqKBt9OWz434Gj05bPjfgaUqKBt9OWz434Gj05bPjfgaUqKBt9OWz434Gj05bPjfgaUqKBt9OWz434Gj05bPjfgaUqKBt9N2w4w/19hpaeTDnN6cms3BLLtpdQ6reb3t9BZUhaPlneBz+7UfopZv1wurHoC22aW2w/PdUlSnG95JQhhSin5ZUU/PgalmbEvKrrU+z3Reo767qtcqSi6hgNs/pjyAcQ2tDayjtAcUOB4iqZjZNp9mPZmU6puyHoZSZc1MxYkuJRGU022hzHstp314TjoWrrNLtz2qo0fd7ZpPU8ZU25SYi3n5UIgNIcCFuNtqT0pK0I4EmudR7V5cOVCgadsvO0yFOIkPrfQBHBtxltrA/a6gR99XTV1bb1oStB7ODBbtzbCmmGJcOayltak8k5FQhtrd7E7jYSR1gnPTUWx7M9nNgnO3GFImrecXv5ekKXuActhI4Z3Rzh3Gc9I48KQYG2CW5bGUP6OnuXjkm3lxC+03vsmMl8vhROBlKvsdOeFTY+1Nm6SN612mYI7c0w2nVrbbRKcEUvlHtfYATjKj11m7zf+Q7mORzu+zfZ1eYseO8/LZXEEUMPsvFLjXN2ltN7pII+w4tJ4cQabVO2RaYCRMcSLcsLa3VFO9htSMKx0jCicdoB6qxKPtpYXcLBbZ+lpkWTqHfS23zltzkVErDAWUjADvJkpV2V56e2tXG42uBKlaZkOXe5Q4brVrbkNJQlTrbjhIePADcbJwePQO2t75wksu7c7hcY8pDKItzMfcfbW4Up4qQk5Uj5Z6Puqk1BpfRuor/btTzX5DVwtqeTQ4wsJ5RvfC+TcBB3khQzjhWawNqbWqJ0ayWa3T4KLkuPDbuyghSI0l9gOtp5M8VHG8CejI+dVOktpV8t9ltz2qVyL87KbZmTZrTbUdEFl18sNgIzlzKsE44geFZskjXK4jV5mhtn822C0voeLAjx4w/SK3ghl1TreD27yzntBIrs7ovQT0mdJeQ6pdwamsu/pFY3ZTjbjuOw7zLZHZu1j8f+kBDg6UTe5tnm3J/nztsAiJA5aS2t4upSnBICG2wckYUeimCNtJkagujtgs9llQXnly40KdL3eTXIjJQ46gtj2hhtROT1gitYu8Jbpzg9W/QeiILLzTk64znpLMiO/JmSVOvOtuoShQUrHHCUgJ7K9hozQ6GlspU+lK0S0HDquAkvNvO4/wCdlBHZg0oKuOrYzUeXNkxG2bPk3pe5nnKUt76lMgfZ6cYPHhSlB2mar1Jf5OnGGBp9UoQeauOhuQ6yhyG5IVu4O6pxe6kJSej2unFY7s1SzpTFx6Tdqlo2f6BslwfuEB6WgOzU3BEcu/oWXg4pzKBjIBUpRIyc5r3b0XodtMlpD8wMS7Yu0vM8urcWwpxbmSPeBcXhXUFEVkendrF3Rc2bfdYky4QnY1saXOWwiMuPJkyJbILrYJySphCd1J4YJ668xt4EKJb7dJtpeukuwouPOkkc35xySFrbWAMowF7/AE/ZBrV+kst+qtGveh2dQL1O/Nu7Ed29vQWo6mVKBZjRnELznqdXu8SPdR2VNY2a6AYuNsvDc248/tq3VmSqRvOS+Ud5VQfJHtgrwerorKrzq3W1pkJsDWpLpPmqvTEZb8eytKXzdcZx3LCd7C2yUD2jggA01Stp7EV1FvjWSbNuAkGG5FC0NkPh7kkpUpXBO8AVg+6M0zyyl3a3zi0C4i5iW7yoYMfc3zye6VBWd3ozkdPZSRA2daWM25zr7dpc5c6ZJkNM84VyMYOvBZ3EfsrIACj18e2ssi7S9UXzT6716WctPosl6U3FgokvPoVNfaHskgBtCGgFKTxzk1fx9R3+06kulzuGqfSWmoUhuC8jmrbYjPuuDK98HKm2UkBZ7VfI1NXDk1fGF9Kfrns70DdrhPnzpU9xM7lXOamSrkGHnAAt9pH7Dhxne7eNWNksdm0xZbrAst4luyrmpx9cue6X3FPloNhaicZwEJ4fKs7b2rsvQ7ldGdMzlwbVFS/Jd5VsLC1BKkNJbPEqUhaVA9HtAUv6m2x3RNgvabfpy4Wq5RGZKGXF8nI/xmO80282lAxvFIeSQTwJOOqptumrRLjVemW7aVFr03py26fbm8qm3RGoocKcFe4kDeI7TjP8atfTtt+P+FfN0fajqiCqxKuSHZEIs3F6U8W22X31NSER2GHWj/VOFTid7BwDjqq+vWpdZNahs0SKXLcbxEfaMN9pt5lmUGlqbHLJPtOlSU+zjdKcnOa3c6rlnTJJidG5+nbb8f8ACj07bfj/AIVgze19pKHLw9Dedtxitx2G2EgrcuKWC88yD1q6GwPeCuyp7u1eK+ZBsVhlXFESI/NfdDyEIbZQlW4sA8VhS0qSN3j7KjUa5NrF8tp6JA8KPTdu7wPCvm6frLXEKK8lWoX3nJTNulrksWpC2IMaQo8o7HwSXtw7qCCOGc1YWHbSg6Sh3O+2qUueppK1pbQEcs2UkpkAH7KFKATx6FKFC7PoH03bu8Dwo9N27vA8K+dWdZ641Pf2rHHubell+kbgy8lxtqSppEeJHdCCrO6creUSodX3VYWDa+/dSzBd084HssRX5wdSIwlPNKUyQn7ZbWUjJH2QoGriwm+MdW9em7d3geFHpu3d4HhWN7OdSXG4W2XH1Rdgu7xH0iWw+0hkxipG8EJ3ThbZ6Ur6x04p0bWlxO+haVjJGUkEcOmokudzgb1bsfrA8KyN11D203UbzZyhQhEH/wCSabj/AN8KSYfDX98+aIX8pVe3Dn4eu+k+7w4vi6Plp9r/AFeiuLV+rD+FFeLofG3+CxiIj6Z1o+Ptypcd08OlOFJT/wChr7tPTXxt/g67cxY9J3xbq0tB5MRI3iACQglX4qNfYPpCCf7Yz5xWeHq72nK6pi2VJpI2s2W8XfT8CRZIJmyLRe7bdjGSQFvNx5KXFoQTw3ikHHzpu9Iwe+MfUFcekYOf1xjH+8FaZZjqS83PaELRYbNo69xSzfrTPmSJ7AZaYaizG5C+OTvEhopAHWRTLtU0VL13pti1QjBLsefHmhucHCy6GlElCuTIUAc9INNAnW5JyJbGf94K7ekYHfGPqCisPlf0e9STrvZZcrV7PJWizG2IfbbWl9O9HdbcQMHdLZU4lQz7QCMVdW/Y9fGr1YNQyp1ojPWhkRXbdBjrRCcQXlLLqUk5S6EnKVdSt7trVvSEDvjH1BR6Rgd8Y+oKuUwzPUmxViepqTaJTCpMS1ej2HLmlUhS/wDHG5O66v7Sm1bikEdiqhwNhclDEqVLuUNu4u25TMRUdpSWoEnni5SFMgnIbSooGOk7p7cVq/pC398Y+oK59IwO+MfUFTpgmc5Ypqn+jzeLtpm4act2o4wYmSUqSiShZCGS0srwpJ3grnTq3h1dCTwqfc9hc521uoiTrXLnP3STNfVcI61tOoeZ5IFQByXG+lHVxPbWuekYB/tjH1BR6Rgd8Y+oKXeYals2hFe0Jqa12zTDul7rARdtO270WszGVKjyWFIQF5CTvJO80hQx8waUtQbCdU6g1pd9XStTQQqdbzDaSGVjlE/oVBp5IO6psLaV0e0UrOeitn9IwO+MecUekYHfGPqCrblmTDMJGxd25Ppusx+3Qbhza2sJXb2VITFEfnAcDGTlIUJGB93GrPYvsxe2Y2WbbJLkZ12VIS6p1hx1XK7qAnfUHCcLOMnd4Zp89IwO+MfUFHpCB3xj6gqKk0VG9IwO+MfUFHpGB3xj6goJNFRvSMDvjH1BR6Rgd8Y+oKCTRUb0jA74x9QUekYHfGPqCgk0VG9IwO+MfUFHpGB3xj6goK/VaSu0hsdK5MdI/i6mlq47L7Tdbo1eblaocia0wuMl5ROS0oEKQoDgoYJ6ejJpi1BMiPRGW25DSyZkbASsEn9KmlHUlxakbSEWu/aul2OJCjw5NsjMv8gm4PrccS4FH/S43W08mPez10Lye1s2R2GzxOY22yQmWN11BRkqyHEhKwSeJykAfcMVGnbFNKXGQuVO05AedcdDy1EqG8sNpbyQD7iEJI6DujPRSva9puvLXEj3fUdoX6Lir1A8H25PKOTRHcdDLXJAZBOAB8wB11W2mbedZtWyDddS6vgT4F/ahSByq4S34slpb6VKQAchKwpsK7G8Vcf8UnLvtB/8IdPh6Q8myxEqlSWpju6pQBebOULAzhJB7Onjmr86cmk53m8k56aoNquv5WgWotyjQVSlM22fM3FvlttSmuQSAvHSDypOerFI+qttGoja2UxIzzs63SpMx12wtKlRpTMYoKW97qQ6VqQo8cFCsdFMLjEy1b1cne8340erk73m/Gss1HtuvKdUw3rQuAq1xHZ60xEPq5zJQ3b3HW1vJx7DRUUqB7E541zZtsur4797lOQ7de22pU+WvmMha2kxolshPFuMce0VrdXjORvE0xea4rUvVyd7zfjR6uTveb8azbT+3fVNyiadlXXTlohIvM9+IVouCXgvdSktBsIOQpRUQongndyemtC2W6zk670oi+zmojUnnDsd9uKorbbWg4KQs8F46N4cD1UxYj39XJ3vN+NHq5O95vxpooqBX9XJ3vN+NHq5O95vxpoooFf1cne8340erk73m/GmiigV/Vyd7zfjR6uTveb8aaKKBX9XJ3vN+NHq5O95vxpoooFf1cne8340erk73m/GmiigVzpuecbqmh95qnVod68MWacZJbVAcRLaKFY3iWykpV2ghXH7hWgUh63cukfQECdabtIgOxXre4osAZdQXW0qbJPQk73HHVw66zdXd+q9DGdkebsrs069o1BMs8J64toS2H1ZzupBCcjoOASATxAJFRouxXSkGC3bomnYDTDT4lIQCrg6EFAVnOfsEp+7hSfK11LY1zq46uvsmFbW2pkRDcWcpt2Cwytrk3SjG6gu7xCHOnKsfcwSrvc3NkDiIesVm7QmBLVJiyEyHeR5chCFOjgolKdxShxJSqmJp/nmmr6ua2uuyHT97YTHuligyEJ5MgKyCNxG4niMHATwx2V7y9l1nnRXoUmzwVx5C1uON4IClLb5NR4dZR7P3UobQdV37TmrtQytNXaRJlp05KdRAEwPNNyGkIKVKYxljdCid4/b6OqpFh1Dcbpsmv0CLqWSzdbamatm4MSTIVIabVvB5pxY4oP2PkQcdFLJp0XPLqveuZIt7ZsQ0lZpcSdbtOQWZEHd5u4FrUW90kpxk8cFSsZ6MnFdndiulJFtVaHdOwFRFKSvk8qGCkqKcEHIxvrxjqUR0Uq3vVOorbtGZE69Tm4K4iH3VNTE8hGtogKU844z9oPB5KlBZ4Y3QOur3Stzen7OLtBtutZC33W5ki2yudply2IyQMbznQVg56eKd4Dqq9+afqMZs0mKNs6gwyyYtshNc3dZfa3E43FtICG1D5pSMD5VCe2Q6fkP26U9YYCnbSMQ1YI5Ib2+BjoICvaAOcHjThpOQ/M0tZpcl1Tjz1vjuOLUclSi2kkn55q1q3fmuazWdsX0xcWFx5WnYBQ5uFW4VNklBUUnKSCD7a+PSQog1aMbPokZ5uVHgREOtOPPIWM7yXHUhLis9qgACeuneirNVnJPUno0YpvnJSzHHPF8o/18ordCcn/lAFULWxHSTFtftLOm7eiJJW2t1CSrKlNghB3s7w3QSBg8AcVp1FZkxMHTDP4eyyzwY7caLZoKGmxHSlOCcBhals9PTuKWsj5qNR2djmm4043JjT1uRJLHNt/BI5Pk+T3d3o+x7OcZxwrSKK1m3mubjDPLLsmsWnkoRaLNDjBt/nAwpSiHNwo3gVEn7KiPuNRGNjkR5m8ovwj3Vd8mIlyStHJj9GkIZSnd6NxKRxHEnJ6602uaiMzkbFdLSmYEZ3Tlv5K2EmIhJUkNZWVkcDxBWSrByMkmusXYhpOE7PejadhIVc0OtzP0iyl5Lqt5wKSTj2jxNadRTfmM8f2UWWRcF3R6zQlSnIyYa18RvMpxupIHA43Rg9PAV7SNmdslcpy9pgr5Vbzi95P2lOqSpwn5qKEE/wCyKfaKk2yl3mKQZWzC1TjLMu0QXTO5USd5P9Zyu6XM/wC0UIJx1pFeFu2R2O1T49zg2eK3KisiOy6XFqLbY6AMnp4nj01otFVSI1s1tzDDUZm1QW2mZZntoSnARIKiouD97eJOfnXgjZPZG37fJbskFDlqCkxFIynkkqJKk4HAglRODkZJrQqKZGZNbFNLsRpsRiwRGmbgUmQlDq07+6oqSBg5SASTgYFdhsjYdvM26XARpTUq2ptDMQthLTEMK31N4H2ipfHPTgAdVaXXGKTa5gy5WwnRzkFm3O6agmPGeVIaSFrBS4pISpW9nJJSlIOekAV3i7GLRG1NL1SuDEdlyOQDOU4TGS3HDIShI4cUjs4ZOK0+itd4lsmGbQtjWm7eyuPCsMBttalLUMqJJVjPEnP7I4dWOFXsXSDsJhMaI2w02kqUEpJxlSion+JJNNlFZCudNzutbXiazdthcbaNf2HCCptMIHHR/VGtvV9k1i0r/OnqX7oX8k168O/RrnpPu5+L4mj5aLav1YfcKK4tn6sPuFFeUdDFf6HdnYt+k1pMVP8AjUZuUQpOcb7i8fhivonmkTOObM+QVjf9HiOqFz+3bgSIkOKwAOrdBFNOrdXX60a5g2yI6UW7k4a5O9HCm8PSVtKK3OlBwE7uOk9NcfYtX4Gn1dPbJ3eNqh85nE7q15BXURIZPCMz5BSNA2uW66zHrZbrNNfnIlhhpgKSA+2UlXLIUeBRhJ++vCy7VxNZkx02x6fNj3V21brG6gKkBxZDXHrS0jeKujqGTXY5Whczh91a8go5nE7q15BSLE2tRJ7AeiWC4Ob7UYoBKRvPPrUhtofPKFEnoFTYu021SGHlLhSmXYrkZl5tWCUOuvrZ3M9e6pByR1UU28zid1a8go5nE7q15BSND2rszm2kM6buHOphZVCjqUgKkNOJcVygPQkANLyDx4DtrxXrDUc3QNj1NEUpozEh+e6ywlxxlndUSpLZ4KwQne7BkigfuZw+7M+QVzzOJ3VryCkD/wAYrOX50eJbLjPRAaGZbLWGXnctgoSTwB/SJI7eNTXtpUNXJsKiy4khmUGZqN1KzGPKhASv/bHEEdXGgcuZxO6teQUczid1a8gpFl7XIcSJbpS9OXRw3YqdiNspDi1xhu/psDoHtpOOmmPS+qG9TJmqRCeimHIUwW3yA4QM4UU9KQcZGekUFvzOJ3VryCjmcTurXkFe1FB48zid1a8go5nE7q15BXtRQePM4ndWvIKOZxO6teQV7UUHjzOJ3VryCjmcTurXkFe1FB48zid1a8go5nE7q15BXtRQePM4ndWvIKOZxO6teQV7UUFFqZuPFtqX247YKJMdXBIB/rU1Dl3SBPcYem2eNIcjL5RhTiApTSu1JI4H5ip2rgDZjn47H8xNYXtMv2tmrxc9O6emymG39PPyIy4kEOqZkI3lFxa1DsSAlKeJOc9VLZOY2g3qKUpQbUyUpJIGBgEnJPR1njXZd9YcXyi7c2VHHtdfDOOPyyfE188TdoW0tWp5lrsjT8m3ptjSGXpFt3FCThg8vgDihYcWAnPAoVwGK8NT6o2taTm3eDa7uJ5Xf1JEuXbcNRo/N2lNpSEA7yXFcoMj7JT1ZoTyvRsMfR2lGbNcbG5AlPxbmUl8PS1OL4KCsJKskDKRkDpxTRGu0GA0GINnjMNAFIQ0gJSE5JwAB0ZJ8axWyXrVl52qWxN1dkpZhJu7T8NMFTbMQbiAweW6Hd8AqB6s8MVq5ABIFXG27WeicJloD6pQ09CDy0ckpwNJ3ijd3d0nGcYJGOyu8S4WyC2lmFZIsdtAKUpabSkJBABwAOGQB4Cq09FA6KRjOKmMOWGKGRH0zb2hHUtTQQwhPJlX2inA4E9eOmpUK9RbbHTEgWliMwj7LbSQhKfuAGKqaKir31pX3Qeaj1pX3QeaqKigvfWlfdB5qPWlfdB5qoqKC99aV90Hmo9aV90HmqiooL31pX3Qeaj1pX3QeaqKigvfWlfdB5qPWlfdB5qoqKC99aV90Hmo9aV90HmqiooL06pXwAhjj+9USBfkm1xozkFLiG2Wx7RyDgDB/Cq3oIPYaQteyNRwFaVm2K5SIzLch5MtpqKHhIzFXySFdaUlwAZ6qXFxL1uGpOsabKm2mUuQuTYITypbaW5BcaSouoSchKsj2gOoGiNcbbDjiJFsURlnd3OTbbSlO7knGAMYySf41jMXW2u7ci2Wu7RXZt1uUa0Smw3bylsh1BMtCiOCNxWE8eIzmrDYxqbW2qLLOm635sl9MhAaaaYU2pjKMraVkDO6rACh08eNO75s6sad2sJudvRKfuCLJFEiUgNvOhtO+4kdAUrGSPka5j3WBFjiNGs0ZllDZaS22gJSEZzugAYxk9FVg6KKlmdqSLBdxtrjzsldjiKdfZ5u6stpKlte4o4yU/I8KIM61W1ox7fYIcVs59hlpKE8engB11X0UszscuS8RqUNoDbcJKUpGAAcACuTqleeEQeaqKiqLz1pc7mPNR60udzHmqjooLz1pc7mPNR60udzHmqjooLz1pc7mPNR60udzHmqjooLz1pc7mPNR60udzHmqjooLz1pc7mPNR60udzHmqjooLz1pc7mPNR60udzHmqjooLz1pc7mPNR60udzHmqjooLz1pc7mPNR60udzHmqjooLz1pc7mPNR60udzHmqjooLz1pc7mPNR60udzHmqjooLz1pc7mPNR60udzHmqjooLw6pcIxzQeasxTI51tK1DI3d3fTCOOz9CacqR4P8AnBvv+xC/lKr24c/D4l9J93PxfF0fP7NQtn6sPuFFFs/Vh9worxjoJGxKPyN0vJJOVttHj/tKrR5+l7Bc7pHvM+1svzIwSlp1YJKQlRUkY6DhRJGeg0g7HTm53Q9rLf8A7lVqZ6a4+wfptHs6+3z/APTr9y23s50Sy0WGdOREJLiHvZBBC0ghJBzkYBPAcONR9QbPLNcITjdrt8KJKdcSsvKY38kLK8kZHHeUTnp4mmze40n7XNVai0Xs+vWpNLWpidcYEKRJbEhe6y0G2VuFxzHEpG5jA4kkCuzk5E21aB05bdPNadXAakMJZZZcU4Pad5MkpJx0EKJIx0Zr1Og9IFcV02CLvQQkRzg+xhRWOvjhRJ49ZNKlr2g6nevOh7TerKzCkagYnqnJSvfSFR2G1pW0etCiskZ444dVMW0PW6dB2Ju8ej0TFvS2YjbbkpMZvecJAKnFAhIGOnFTG2F3tTZOi9LzGER5FkjLbaQ22gYI3UtlRQARxGN5Xia7SNI6clWiPYX7QwYEUAMxxkJRgEADB+ZqstW0zSs9i1c8uTNum3a3ek2oUpYS5yISVKVnoISAST2DNdIO1HSdwuDMSNc2lR5LKHI8okpQ6tTqmw2kEZzlBOejHHoq8tmfVaI0XphuQ9Kbs0dLkhKEu4BAUE7pTlPRw3U9XUKkOabsbsl+a5a46n5TrLzzhTxWtr+rUe0p6qpYu1XQE5sPRNVQXEF9qMN1RyXXN7cSBjJ3txRGOkJJ6Kl2vaBo68vrjW3UMOQ63ITFUlCzxdVvbqR72dxWCMg4PGmMDsjQOkG22mkWKOlDDpfaCSobizjJHHgOA4dHCrG2WK0WZcl22QW465jnKvqTnLi+jJJqsa2haLfuDNqZ1JBXLkNl5poOfaQEqVnPQPZQo8epJ7KrIW1bTd1t2orrZXOfxdOxBKdcaVwdHJLc3UggEHCOvgcg1OS8zrRSJpna3p+7Wa03G/TLXaJN7d5OFFFybk8rwGMLSAM+0BjqPDprvA2x6Fulii3uBd0uCeiUqIwpKkuvFgqCwBjgMoIyeFUPFFUWkNZWLW1rTdbFOakN4QHUoVktLUhK90/PChx6D1Ve0BRRRQFFFFAUUUUBRRRQU+qEBy2JbV0Kkxwf4upqBcWdM2l+LEud5ZiuzXA1GbefShTyz+ykHiT91WOpM8ya/wCLjfzU0o323yYG0cXuVpJy+R7lGhw4khsIV6OW246XCsK+wghxKt9PHKcdlOR0Mjdqsr3Jhq5BfKrWlsJdB3lIJCgO0gg57MVVT7xs/s4YNw1hb4ol73IFyahPKbqt1W7k8cKyDjr4UgQdB7S7BCbudvu8mbLbVfVRLe+G0sxXpDjvN17w9oj2wT8ia9NM7OdSQhEtOptN2Z6Pbr9HuEZ2MnlG0xlsLD6f0uVA8sCsjoJcyKmZ3pIkuJlq503BxvB53B/eo9XYIzlx3I4njWUbRtfPaluNhtmz283eah1FxTJas/6JwvIZTyG8Vgeylw5OOoHpFVV/Xtti6mvtyky5sO0t21DEotutoZO5yBU9GWo+w6sGSnBwEkJ7a1JldWZvW1rsFubQXHH3EpSkkknAAHSTVPaLhoS/lQseqIM/cXyahHlocIVgnBwenCSf4Gsdsj+13UsrTVwtV+vaNNm4ykhRZalOuNplFKUyFEgckWPZChnjvHj002XPZ3f02G5WWw29NuF0vF7U8qIEMr5s9FkiOQpIyP0imsdYzWZctXRvitMastrfW421KUpTKglwJVkoUQCAew4IP3EV6+rcL4jnjWFXjTu1qJboB0u/fbbFkzozkpaW25M47kFhtBcCiAUhxDgXx6k9NfRDe9uIS4reUEjePRk9tW7bsS9FZ6twviOeNHq3C+I541bYA66Mjtoqp9W4XxHPGj1bhfEc8atsjtoyO2gqfVuF8Rzxo9W4XxHPGrbI7aMjtoKn1bhfEc8aPVuF8Rzxq2yO2jI7aCp9W4XxHPGj1bhfEc8atsjtoyO2gqfVuF8Rzxo9W4XxHPGrbI7aMjtoKk6ahZB5RzxqDbrNbDBgJdklDsllO4krAUshIJwOvA40yE9nbWd6mXdLevRWoINinXVq3rcEhqEEqcQl2MUBWFEZAJ48aGTYNOQhkB53tPtV5+g7UX+bGWsu7nKbhV7W7nG9jszWP3p3ahEc1JOU7foTLaHVTnnZbSGFMl9stcxJOG1hnlASrHEjOTg16aSa2jaqszUmLdbu1BlXB1hEpbyDITBF0Vj2x0/4sMbw6uPTxpN5b0LMtddslqYU2h2UUF5fJthSwN9WCcDtOATj5GqgXPQSrq7ZBquB6QYyHYvO0cqjHTvJzkVSIj32LbNAw9ROPPTo2onGluPKCnFtpYmpaWsjpUWwgk9pqLrXQMy63DVMy0WplmTcrRbY8eW002HeWRJeU6QcZyEKScnp4U1fT/3/ANM55NA9XYA4cq7414OWuyNKeS5cEpMdKVvBToHJpPQT2A4OKyedY9skLWGnoEfUN59ARLjI/TIabkOOo50FJElSiDyZYKkgjJHZkVb620DrG+ai1Rc7RfZkKJLg29lqI0htTcxTallwKKuKeBA4dtXG2TvfVhpB07A63XeHzqK7AsLMiNEeuIbflqUhhtTgCnVJGVBI6yB09lZdZ4O2K4ap1KifJu0G0TLxELKd9ALDCJDoeDC8kltbPJEk4IJIA4VWW7ZxrK1b1zgr1EudZRqJuOZMxLnK84nNuNqb3s8VMb4QTjCumpN8+jV2xG3ersEjPKu+NRZEDT8OLJnSrohmPCBVJdceCUsgAE75P2eBB49RrNIlr2pSrQ9IgzNQRWI8Ga5bY0yQky1OFaA2l9XEFYTypRx6056K806W1TcNj+u7d6NvPPL0t523s3FxDk1aORZSkL/Z3soVgE9QzUzldM70yf4lx0JOfgRYeqoDz10QpyGhExBVISkkEoGfaAII4dYNS4jemJ9xlWiFeWX5sIAyI7b6VOMg9G8kcR/GsWOj9Xy9X6RukCw3dLTMGGyVS4cdlLa2rg464X9w5bIbVvJCOCiEg9JrStmkSZaGnbHM0Y5b7hb2VNv3RSUFqcsrUQtKx7S97O8rPR0Val2uDBeGdMaeiCffb0zb4xcDQdkvpbSVnoSCrhk4PCpiNP29xCXG33FJUAoEKyCD1188StK7XrppZStYPX+5zGNSMSnmGYEcqZTzeQ26qMFEpcaUXG+nBSOI405wTtVhW9rSrlsucJUWCpxU2DybrLKPRwQhlkKOVrTISSAeHEHNOsjVmLhqQsdrU6pgSVlxCQtSd7iEnIBI7OB8K9PV2D0cq529NZVZrFtRvNqs8S5ybzZ2nmGUTVolJVKCUplE7yzkhSiY5I44JwKqY9v25u6inLvV9vUdgafDccQ4jTranObIBJUSP8YD4cVjGCCONM52Z6ZbWNOwep10549NQWmdMSLs7YmLyyu4sN8q7FS+kuoR1KKekCkjZyjaKnVVte1FEvCYStPoD7cmRvNRnws4GckuuLGCre+zjAJqJJg63tmndQ6f07pRcfVDSJEhq/7ja25SVv73sKJ3lOltRG4eAUOmpSbtQ9XYPAco7x+dcDT0BWCl5w56MGsr0pp/aoYlpmXHU1/d5gIhQ1JQ3HU6FS3A8H0JJ3imOpI6eOAemqHT2mtrdin6OtEW5aijWm3vSESeVQ3JU89zt7eLy1KyGVNFsoIyRk8M0u17tPVtc+2WS1xHJ1xn82jtY33XXAlKckAZJ7SQP417p09BUN7lHfGkG66E1Hfdmdgsd4uV0lXMXS13G4rMgBwlD6FvJJ6CgAH2flVFarZtYnSeZrf1HDZXcoabo7IkI9rDznLqikfZZLe4OrqwMg1uacno0yWnStvuUWzTb2wxPmgmPGdkJS66M49lJ4njw4V6W+Lpy7Kkt227NyVw3SzISy8lZaWP2VY6D99JusNnt91RtGhXZEhhm1RbVHS6pTCVPOvtSlOoQhw8W+ITvEdIJFIekNKbR4E6ZDTY7rEYvLUtM2S8tschcy25uBvdOTDy64Qr7QUU8Kzt3ZqZ729ja7W1pi9mQLReWZpiOFl/kH0ucksfsqx0H5VIi2uyzm1PQpwkIQ4tpSmnAoBaDuqScdYIII6iKXtKyZ0fSNzFo2fO2K4wYoZajuJbSmTIQ3gFJT9tG9jC1cTxrNHrftF2fWB+FqMNw7U5NjXCZJsUzkXHVLaWl9CVPHgpTyWnFYPFO91k09Gpu3P1cg9HKu9vTXHq9AyByzmT0cemsJtLe3W7Tbfc/T93bjyNNJciBuM0ttx1cZWeXWSCl3ld1QIGMADhk1fXjRuuY19tslN31NKbtr10bjSW30uLSmRAQUOOIOA4EvpcCQeglI6KTdNd7lxWtDTkIjIcc8aPVuF8Rzxqr2Xi/I0HaUaliy2LklpQeRLe5R4+2rdK1e8U4JHVnHVTTk/Kiqo6bhAZ5RzxrKCwiNtN1EwgkpQIQGf9ya2tSjg1jEr/ADqal+6D/JNevDv0a/afd4cXxNHy0S2fqw+4UUWz9WH3CivKPcl7E3FOT7oVDBDTefMqtZPTWT7Ff8oXXKSDyTf/ALlVrB6a4+w/ptHs7O3/AKnX7up6aqNa2D1r0hfdLc45A3m2SreHSnPJ8s0pG9jrxvZq3PTSrtO1LcdM6Y5ezJZFyuEyJaobjyctMvSX0socWOtKSreI68Y667HGV79sWmXrWentRs64ucOFamVNS4DJG7IJZbb/AEaulreDad4D7Q/jTfrrRqda2dm2C5KguxpjM1p7m6HwHG1EgFtwFKhxPA0moiar2TmLNuWsJWpY9/1VHYkpnJSlcduXuR20MBPABLuFke6pfZTDtY1lO0Pphq52/myXpE6PD5WQy4620HFEFZQ37asY6B21KQqyv6OVhmz7fIl6juLzNut/MW21JQVjLLjSlJcxvJSrlSooHs5CeyrKVsVjT5sC+3nUUubdbfCdtvLtsNsB6K4VFxotpG6CoEDeAyCARxrvB246WYFhhalUq3zrzZzdgUjfYSlCFKWkLBzkBCvZxnhjpr3a2yWf01Ft1wt82AmbCEtlmUxuSQkOrS44tvJ3WkJSFFWeAUOvhVs3TnC9sv2WXlq4L1DrAuociuxW4MdxDJVyTDD7SSvk0hPQ+rBHH2cnpq0j7EBEaZcZ1jNE23KjJtcnmrOYjTKlqSgpxh3O+QVK44xU+37a9KXBTbLNuvSJD78dlqO5AKXHA+lxTbgGfsFDTit44wBx48Km2fa3pW8zW4DLdwYckyG2IhkRS2JSF7+483k8WzuK9o46uHGk25JhVwtiGnotratT06S+EljfeUEpcWGmnG8ZA4ZDqs1LsOypFqtF/tlw1DJuDmoYiYTz5YbZLbSGFMp3UoATkJVxPWRmuWNtGiX57MVLs1LbzQdVKVGIYay24tKVrzwUpLS8Dj0fMUab2mu6sZ1G/Z9PTkrtEVl6NFlMll+StxpbiU7pOAFbqcHP7XHBqS3CznlEuOw7TUu86bvUTkIy9PMssBowmnEPNtuJcHAj2F7yAd9PGu8LY8i3yUuRNTSEMGPIgvMqitKDsVxx1xDYJGUlCnnPbHFQIz0VxpXavbpFkQ/qCW0uaQlZTDjOIAK3ktBrcc9oOJWtIIPUQocDXrG22aTmw1yocS7urLjSIscQiHpiXEqUlbKCRvIw24SeGNw1rkuDDpfRlv0q6+5AdUQ+xEYKd1KQAw1yaTgdZHTTBx7a6tL5VtLgSpIUkKwrgRkdddv++moOaKKKAooooCiiigKKKKCl1atTdoLiDhSZDBB+fKJqmXebiF8ZJGejgKuNX/5HPZy7H8wVh2ttnOp7/tIgaoi3RwW+NB5FptEws82e3XQpRQB+kSvfRkfuUGtC83AkgSj2noqBP1p6LWyifPcRzghKFBGU5KkpAJ6iStIHbx7KySPsevVlc5/Y57Amtc35Bcl91xGeYOtSQoE8Q4+WlntCO2o+ktkWr7Ta4FunXVkMxJj8hMdUlTobQt+K4lAV+1u8i7js3x861dObhLs2tuU6wsFpKELG9hQQnIycHBxXd+4SZbLkaWUPsuDdW26gKSodhB4GvF077hUBjJJ/Gug6TTbqvJKj3CTEZRGiqSy02MIbbQEpSOwAcAK9PTFx7yqoVFS3Nyck30xcejnBx91Hpm5d5VUKioJvpm5d6VR6YuXelVCooJvpi5d6VR6YuXelVCooJvpi5d6VR6YuXelVCooJvpi5d6VR6YuXelVCooJvpi5d6VR6YuXelVCooJvpi5d6VR6YuXelVCooJwvFxyMylVDj3uXDtja3JRSyywFE4zhITk/gK69Y++kDaLpK7astFqYt0aHMbZDodiypC2UKU4xuNugo4ktq4gHtoYy0FF8Te7ch5LzcuDMZQ5uuICkONqAUnKT0ggjpryb1UzAlx7GzJEdxYKI7KWd1JCUb5CMcMBPZWGtbINei4z3n5sZUVzTjdlS3HnLZ5xuNMJQVe4QttzK+sLx21dsbMNXvxoZnXOCzJhtJca5qpaG2nkRkIQEAngnlEce1JNTVZpmSbtjXd5iigrkbxB3kZAOD2jsPE+NdXdSPsKaS/cUtqedSy2FEArcVnCR8zg8Kxl7Zvr71107qdi4wlJtLXKyFGQtPLvOpeL7SkftNlxaN0/spRiuFbK79N1BIvVxt9rkJGorfe2W1ynFLUpsKDx3/ANkAL9hH7vzqzN0pjeNr9NTlnAlHhx6K5N5uA6ZZ4DJrCNNbH9a2ZieuRqN1dzkTPblLmqcRJYdC0Pr3Mfo17igUj3gOyvRvY1qJeqL1NnXZ96DOuMJxB9ILAXBalsuKYLY+yQ02tAOeO8e2pL3to13ba1XVG1Kz6LYbk6ivSmA8cIShorWrjjOB1ZIGT1kVbW7VZu0Bi5225B+NKRvtOJHBQ/j0HqIPQQawnU2zDWkCzw2LPbol4LTT8HklOBRYY5Z9TO6HOCt1D6cZ6FNpqHrbS1+tjFghyEtT7nPZKWmWeWbTClOSkOOOtBv2fsZQd8jgFHrxV0Xnb54TF6eWX0Um9T+9H7sVEuGrXLXGXKnzVoYb3itaUbwSEoUtROOgBKSc1kitjtxMx67IuKeeKzISvnLhxLFxU8hzGcezHIbHUOI6Krrdsm12LjqOdLucRpm9SnHjHbkKU1vFuW3vBP7AIfZyn/yz8qTfknKxujN/lvtNPsSypt5CXGyB0pUAQfA16embh086PhWUztGarlXOzyX27dIag29UBtfOVoVAcSkpTKbSOC1kYBB6McKorZsf1DIt6It1RCgRA6VrhRZ7zjbrohPM8uVE53lurbcI6PZz00tbnJuXpmeQf8YPD5UembgTnnJ8KSNA6Of0axcIrkjlGpS4r6QXVOHlUxW231Eq61upUr55z1008OyrjGyWZTxeLiOiSrwo9MXHvB8KhUYpkzE0Xi4jiJJ8BXHpe45zzk8fkKh0VETRd7iOiSfAUemLj3g+FQqKHom+mLl3lXhQLxcR0ST4VCooJvpi495V4CuPS9w7wfAVDooJovFxH9pPhXhMlOXFnm9wbZlNZCuTfaS4nI6DgjFeNFBLRdJ6AEpkEAcAABwHZXb0xceuQfAVCoock4Xm5Doknwo9NXLvKqg0UE03m5kcJKqz5h1b+0a/uuKypSYRJ7f0Rp0pHhf5wb7/ALEL+UqvfheHxPj7ufi+Lo+f2ahbP1YfcKKLZ+rD7hRXhHQVdkKiq43LeTg8i3nzGtPPTWUbFpBfn3TJJCWm+n/aVWrnprj7D+m0ezq7b4+r3dT01X6ksVo1LZJdlvsdL0KS3h1JVukYOQoK/ZIIBB6iAasD00gbapC1adtdjD6m279f7ZapCUK3VuxnZCeXQCOIy0lecfshVdjlVWltK6dveurjqCZtJd1UuJdFXG2W0zELYtZLKWhuoT9rdwrCjnG+eunzVmkrXrC2Itl0clNJafblNOxXyy6262cpUlQ4gjNIu0ex6c0pAsGpdPQYdtkWe/Wljl4yUt7kR+Y0xISsjpRyTqs56MA9VMO1K+aksdmt69JrY9ISrtEjJQ8kFLqFKJU38ioJKQeonNM4Ff8A+A+zhU2NMVbHyIsRMNDJkKLRSGltBRT1q3HV8e056akq2PaQUIj8lqZOmwGlR2JcqUtx4slSiplS+ktq3iFJ6xw6qXmttpMeZNg2Zy5oRIku8kHkR1RYsePHW+F732nELdUnd+XSBVVfttOqm7bqF+BZOSkwxdjaUh5BTJajsMLS45vDKFDlwQnrxg0u3Mm+0MOzXZErTEl676hliXODzJipbfdcQw00262hO84So+y8sY6AMVYN7EdEtRXIzZuYJWyqO7z5zlIgaUpSEMqzlCQVK4DtqDY9pctqa1p2VFenzYrkg3OTIfaYTFZZ3Erd4DCxvKPADoBJxwFLjX9ISbeFR/RelJEeOh+4s3Bx19IcZbZhc6ZeaBGFhxPEfKrm5ZuLM1oMPZToqBbG7SzbFLitFkhtx0qzySFoRnPT7LivvzXrprZxp7S0S4Rbc5cHTdEIbkvSJa3XSlCChACjxG6k4GOwUszdtce2Nyn39PTH4UZp9DMlD7ZXKksNBbjfJ9KOGcKJwSOrIqTbNrjkq+22wT9LSbdIlzJEGQt+SnkmHmyndbCwP0i1pWFBPDgD2VJnGGq9IuyaHC1HaZsaS45Atrj89wyXVvSZUxbfJJLizwKEowQOneCeyrGdsp0lMjRGQxKjOQGo7MWRGkqbdZSzv7m6ocRwdWD2hRFOKVbwyCK540ubgdWkBtpDYUohKQMqOScDrrvRRQFFFFAUUUUBRRRQFFFFBVakAVBZSQCDMjgg/wC9TVJcNaafha0Z0MiIl+4LiomPBKkAMtrd5NBUCcnJCsY90/KrvUhAgsknAEyP/NTS7qHQcC+6hVfzOYYeUm3oKkoTv7saSt4je6fa38fLFZtxZCpsjWekGbhGtwkxnC+9KYU6hSS2yuO1yjgcV0JwmvOz680RfHXW4VwhHcuJtjSi4jdkvBpDhDR/b4ODo681mVi/o4wrPZHrQ3eYLat6WlEhpo78hLkcNJL4UohSsjKsYCgSOura27HbpDvFuvS9Q2lqWi+O3eW5GhhvdQtphCmGRnCUq5BO8SCT8q9FxO7nq14RY2OEdHlFc81jfAR5RQX4+eL6PMK55xH+MjzCs1mOOaRvgI8oo5pG+AjyiueXjfGb84o5eN8ZvziiuOaRvgI8oo5pG+AjyiueXjfGb84o5eN8Zvzig45pG+Ajyijmkb4CPKK55eN8Zvzijl43xm/OKDjmkb4CPKKOaRvgI8ornl43xm/OKOXjfGb84oOOaRvgI8oo5pG+AjyiueXjfGb84o5eN8Zvzig45pG+Ajyijmkb4CPKK55eN8Zvzijl43xm/OKDjmkb4CPKKOaRvgI8ornl43xm/OKOXjfGb84oOOaRvgI8oo5pG+AjyiueXjfGb84o5eN8Zvzig4MSN8FHlFLitQaXsMWwQr3OhxJF4AjwkPEJLzga3yBn90E0yB+P1PN+YUjaj0ijVlr086zMiMv2w7+882HP0bkZTSwn3VYWCD1EVLd5F5meFddOT44kwrhb5DS1obStp1CklSjhIBHaejtrvbJtjvCXnLY/EkpYdUw4WiFbq09KTjoNZo1sdkw1Wm32zU0aNaY0W2MzWksDlXXISSlCm1A4RvA8fnVtsc2ZQ9ltpm2xL1vcXIdQS+wFJU8hCNxCnN5RyvGckYFanLLNaFzSN8BHkFHNI3d0eQVyHmB/pm/MK55eP3hvzCorrzSN3dHkFHNI3d0eQV25eP3hvzCjl4/eG/MKDpzOKf7OjyCueZxe7o8orty8fvDfmFHLx+8N+YUHXmkbo5ujyCjmkbu6PIK7cvH7w35hRy8fvDfmFB15pG7ujyCjmkbu6PIK7cvH7w35hRy8fvDfmFB15pG+Ajyijmkbu6PKK7cvH7w35hRy8fvDfmFB15pG7ujyijmkbu6PKK7cvH7w35hRy8fvDfmFB15pG7ujyijmkbu6PKK7cvH7w35hRy8fvDfmFB15pG7ujyijmkbu6PKK7cvH7w35hRy8fvDfmFB15pG7ujyijmkbu6PKK7cvH7w35hRy8fvDfmFB15pG7ujyijmkbu6PKK7cvH7w35hRy8fvDfmFB15pG7ujyijmkbu6PKK7cvH7w35hRy8fvDfmFB15pG7ujyijmkbu6PKK7cvH7w35hRy8fvDfmFB15pG7ujyijmkbu6PKK7cvH7w35hRy8fvDfmFB0MSNj9XR5RWOSEpTtS1IlIAAEHgP9ya2UvsYOH2/MKxqQQralqUpIIIhcR/uTXrw/wAmv2n3eHF8TR8tFtn6sPuFFFs/Vh9woryj3Iewd/l514OCMNtdJ+aq2E9NYp/R6JM295H7DP8A6qraz01ydh/TaPZ1dt/Uavd1PTVDrOy6KvltZj66jW96EzIS+zz1wIQh4AhKkkkYVhShwPWavj01im3a0G/7QNCWt6+wbXH5pe3yucw28yt1KIoQN1w7u9ha8HpxvY6TXW5XXS2xnYJYLhLkrulsuypLjfNmJlzQ6mOEuqcQlA3+J3lDicn2UjqFbPLgwpoaM2M27zd1L7e8M7jiehQ+Yya+U9o+i7NYtJXN2TtK0ol2RAltxktWaLvqdTHcWkBSMlJyngeHHHXWr6zm3g7KdL82bu0mRNetLUhqC+WZTyFNpK0hzqJxxJ+dOaw9T9nWh7qkpuGmLe+DMXPO830yFgBbhx0lW6nPbgZr3c0VpV2VKnOWKGp+cFCQstjLoUhKFZ+9KEA/JIrH7Ztf1zpy+xtAXC2RbnJhWtS5T7i18uiS20mQtCznCxyCsBYAClpIz01dyNrWuZUiNJsNgtTlsmOQjHefW7vuMTZi40dzCeHAJDqv3SAMZzS7c0mZdmiTdD6SuUtmdNsMN6Qw85IbcU37QccAC1fPewMg8DiocTZhoCFFahRdKW9thl8yG0BvglwtqbKvIpSfuOKzOLt71k/eoNqVo+CALc9InLVIU2XHm0PnMdKjlaApjBGCfa6eHGbC2l7QJ1403FuDNltqH7vGZn+y6UORpMBT7TaSTwcCwU5PAnd4Dop3elTLSBoDRnpGVdvVyDzyazyEh3k+LjeAN09XQlI/gK9X9GaXkXePfn7JEcuER1b7L5T7SHFgBSx1bxAHHp4Vn171Nr+Pqu/QoNuS7ZmL5a2jMMwocYaWhgupQ1uneHtHr47xqnsW3LWmqXrlAsNitK3mp5bhSHVOhlcUsSHUqWkHeS4DH3SnIxvDgOtnfPUs6N04JHDhXNfPmp9sWqbtOiQba5EtTZWCqMhTnPlhVsdf5TH2eR3ykA4zlHT1VJt+27XD8i+2+JpeGtNmisNR1ypRD7sguR2t9xse1ya+WUsKAHBPXmrirN+TeqK8YpkGM3zstl8JAcLYISVdeM8cZ7a9qgKKKKAooooCiiigKKKKCk1f/kfH+sM/zBWWXjaC1b9dt6LSwyCmJHlPvvlxI/TPck2hBA3VKJSrgT2fOtU1alS7RuIGVKkMgDtPKCkm57PE3i5qucuPLDv+J4CV4T/i7ynkcP8AaUc/Ks3nNjoWJO2XQbNvlz4l1dmJiW566qRHjOqKozY4qHs9B6EnrwcdFebW1y3uy7tGbtboETmzkJbiinnbbga38AjKVNl5OUnqINWL2xOC6uAlTt0THt9mXZm2ELSlKmlIKCpRHFSgCcZ4A8cVIk7H4kuGiPP9JSXxPjXIy1OAPKeZQhHEj9lSWwFDoOTW9O1svJbNphFm7Wdn8R64svX5HK2uabfJaDThcQ/haggIAySUtrIx7pro7tf2dxbS/fZGo2GoLDyGFOrStIUpaQtJSCMqSUneChwxk15WLYLarFdl3pK7tKkqlc7SX3EnBCXkpTwHEASHOJ49HZXa57BLPc7bFt5RcGlQURW4zqShSmwwwWE8FApOWzg5FZybHGLKYmxmpkVaXWHkJcbcSrKVpUMgg9YIINehKgeCfxr0i2KXEiMQ2YbgQw2ltPADgkADgOHVXqLVP6OZuVduib9UXeX7v40by/d/GpfoqeP7GuuPRc7ui6CLvL938aN5fu/jUr0XO7ouj0XO7ougi7y/d/GjeX7v41L9FTz/AGNdHomf3Nf4UETeX7v40by/d/Gpfomf3Nf4UeiZ/c1/hQRN5fu/jRvL938al+iZ/c1/hR6Jn9zX+FBE3l+7+NG8v3fxqX6Jn9zX+FHomf3Nf4UETeX7v40by/d/Gpfomf3Nf4UeiZ/c1/hQRPbJAAxx6c0naw1jM0lb7KmHAivKuUhMYvTHyzHZwgH21gcFKzupzwJBzT56Jn9zc/ClvUGgpWsNPx7W5LuEOO4hPLc1Kf07ZTxQreBGD2jiOqs22cgvf+NOgI4dFzuxtym7s9Z0plNrQVvtqSFFORxRlSfa6BkVPvG1TQlhtKb3ddRRmIbjaXEOHeO8lSygYGMn2kq4dOAT0Col12CW64z484v3RC4kp2RHSShxLSHQ3yjQCgfZUplCs9OR08a73zYNZL4zIQqPOjOvXL0m262UqLDm6pO4hKgUhGFuezjpWo16d3Zi6rKsrftB0hdrymwW29tSZq0FxKW0qKFAIS5wXjdJ3FpVjOcHNMWT21U2zZnGtUqPLjRJG/GlOTEj2QN9bCWTwHVuIGB1VfptdwKeMRzhU5yV6XmjZPbRk9tSDbLjnhDcrt6LuGM8zcqIi5PbRk9tSvRdw7o5R6LuHdHKCLk9tGT21JNruI6IblcejLl3JdBHye2jJ7akejLl3JdHoy5dyXQR8ntoye2pHoy5dyXR6MuXcl0EfJ7aMntqR6MuXcl0ejLl3JdBHye2jJ7akejLl3JdHoy5dyXQR8ntoye2pHoy5dyXR6MuXcl0EfJ7aMntqR6MuXcl0ejLl3JdBHye2jJ7akejLl3JdHoy5dyXQR8ntoye2pHoy5dyXR6MuXcl0EfJ7aMntqR6MuXcl0ejLl3JdBHye2jJ7akejLl3Jdci2XDrhuCgjZPbSNC/zg33/YhfylVoRtk/ujlZ/GbW1tFv7biSlSUQgQer9EqvfheHxPj7ufi+Lo+f2adbP1YfcKKLZ+rD7hRXhHQzz+j8jcnXoYI/Rs/+qq2g9NYr/R6zzu8neJBbZxn7zW1Hprk7F+n0ezq7b4+r3dT00rbRxoZuwc/13BiyocZwFlt1jlVreVwShpPSpaugAdNNJ6azvaYtq2aw0TqS8qCbHAly2pDqh+jiyXmQiM+vqSkEOI3jwBdB4dNdblK1pGx5dxjMXrZj6GblSUxosmdAa5AvZGG1KQpXJrJIACsceHTW1O81aaC3uTQ23ggqwAns6eisQ1TaEab0rrm2zb5brtH1jImP2KAy0DKVNl7u4lJCjvhLgSoKAG6BknhTPtS0/qG66HslmbgMXmcm428SWn1KSw9uA8oXCniEbwz4UDte9O2jUEGVDlI5MzWuRdfjq5N4tnpSFjiARkfcTU2JAt0SO1DiRmW2YyEMtISkYQlAG4kdmBjHZWAxbptn0jd5ei7fJiKh2azKTCC4LrypayylaXULxu+w6pSNxSslLY4cc1eaq1FtA009MitTJrYEopRcY1mTIXOeTDYU2haRwSlaytJUAPsYyOmrdJN8thXAtfKokORI3KNBQQtTacpBzvYPUOJz99eiokVeAuOyd0pUMoHAp+yfvHVXz9fr1tHvGq0KmQJinYDN0LlsTbsxo4MNAa/Tf6bfKlcCTx4YGOL9YrzqW+27WbN2fmCcwJLLNvVC5JEYbriWg06B+m3khCs5PE9XRU6ZTHRobfNXkF1rklpWclScEKI68/wrqzBt8UqLESO0Vq3juNpTlRzk8Ok8T+NfLGl79tE0Ps5hM6TtExqS/NZeUsW10R3C3Fa5WOGVgrbUpWfb4JKgo56KdNS6j2k3NaJUCHcH7pa9TMrVbDB5NqFE5GQnlUOf2j2FJXgnBVhPCrJvhdP1bRuZt1uU8JBhRy6EBG/ySd7dHQM46PlQLfAS+uSmFHDziQlaw0N5QGMAnGSBgeFYJdtpe0yHc5cG1zZT8tcGcq3w3rOEh5LMBLrD4VwJWt0neR0D7OBjJvrtqfadbNUSLFCmSp0qO3uMsG1JEeQyY5WZReAwFhz2Q2CM4AxxzVxc4MYmWzcAOnFcFaQrdKhk9VYZcdoW1DUMORO0mxMhRmWpb7a3rT+kdUzb2XUtBK+ICpKnEZxkgEDoBqTZ7xrW+7YLKq7Cc1HhLuJdh8wLceK2qMzyJ5b/AEhWSs8ScHIwMcc43wtljaUvNKcUylxJWjG8kKGU56MjqrtkZxmsCk3mboTWWqb5aoT8lmO7z+5TJENaHlNcshPNA4o7rueUJaKeKQ0UnpFWy75tstsqTJfUm483kOQUQ24CUoc//C25HLhfSQJBW2BkA4I6eNJvMp1w2cEHiDXNLWz+4v3TSkKbJu0u5OuBRXIlQuaOKO90FrA3cdHRTIOig5ooooCiiigqtRjMFn/jI/8ANTS/dLxqy5a4Vp7TsuBDiWlmJLuC5DRcckJeU6A2gA+wAlpXt9px1Gr/AFMpKLc24o4SiVHUfuDiaob7aNG3+8Qr7cIz/PYBSUOtKUgrSlW8EL3T7aQcnB4ZJodCpYturM6Q2zdLdLiNxF3lyfJdiKbjhiGpzBQ4TgndQM9vGq2HtD11q2HapGnNSafju+mfRFwS0yJSMuIL7SkqSrgeRKUqHvb3ZT3ItOhJdubtUm1B2GhUhQaKCUnl1lToPHiFEnI+Zr0atGhYs43GLZmo8hTrL5UyyEAuNJUlC8DhkBahnsqdYTN07c0TX+0OXou8WCO1aJNyjXJme7JREbC3UhhtCwoZIAABUT/AV1l7XbaHX2LPp+8XVxDiWWExmkf4wvkkvL3N5Q4JbWhRJ94AcarZGjbRqBtCNd36bqBUdxaoi1MIjKYQsbriMtY3kqGAc9QqyvOl9n99hG3y4DraDK54CwpTS0u7gbylSSCAUJCSOwUvotxLiO0fbLo6S4y2yuYTIDhbyzjJSGykdPAr5TCO0oX2VS3D+kPpO2Q40mXbbuHJdxehsxkxiuQWminlHi2nKkpG+OCgFHPCr5Vg2fcq076FQFMORHWiG8bqo2Qx5d44++qlOz7ZoMOpgy0yRPVcedB5YeLpAByvOSkhIG70cBRMvSftdEeXOkNWuSm2xkzoTLr7e5zifHAIQ3xJKVe0kcOJSag2jb9Y5D82yv226SrpbORjPCJDUWnphcSy402pWE+y8rdOT0AnoBpofgaLlx2Yci28o1GuIuzSVIJ3ZQWVhwfPeJP8aiRNNaFh3Wbd48N9L0+SiY6jeVyXLpXvhwIzgKKuJI6cmrjcnJFTtis635S5MafCatsyVGebdYSpx/kWFrUUpB3kjKCEkj2iOHA5rzk7a7dAikT9MX5mewp8yoJYQXY7bSG3VuLwrd3eSdSoYOTxHTUlOj9nipFwkv2tUh66PvPyVvFSyouNqaUMk8E7ilADqzwrm06P2d2iAu2x7a84hxqS04t5SnHFpfQlDgUsnJyhCE/IJFax5h8YfbkMofaVvIcSFJPaCMj/ANa75HbVRHvVpjMoYZC0obSEJG70ADAHgK9PWG3dq/LWaLPI7aMjtqs9Ybd2r8tHrDbu1floLPI7aMjtqs9Ybd2r8tHrDbu1floLPI7aMjtqs9Ybd2r8tHrDbu1floLPI7aMjtqs9Ybd2r8tHrDbu1floLOsw2iaw1BpeyaUjaec5N25vIYccTBVLUlKWd7AbBGMnpV1U9nUVtHElflpVu9n0jq+x2mLf0yCqAEPMLZdU0tCwjdOFJIOCMjFTO4r5+2ViBfVR3bLcRa2I09ZlKYGJjsdxhrdYwcnLrxT7WMn5V4y/wCkFpW3rtsG5Wq8x7hMmLhvQjEK3o5Qttta1BG8NwLebGR2k9Vety0HoJ5N4m263JFwukaQyFSN9xlBeKFLwgK9kKU2hR3cHKc1XaV2Z6QtFrtyby69IusKa9PVKjlbQK3VJUpH2iS37COCiclOTWpJbP8AtMJ2sdo2odP7SbZp9DTSLc+5DjojqjOKcmqkOFC1odHsIDJ3SUniRmoendo+r29E31/UbSGtTW2cxDXEejBpMYyFoSyTuqO+nCwoHIJxg4pvnwNJ3LUUTVExuQ7NgtFuPvLVyaM59sIzjfwSArp41VsaM2cx7a7azbnnWZCnlOqecUta1OJ3SSonJISAB2YGKk3lMWXd4u6z1hG2X329J9GP33T5nsPOKQpMd4xirecCQcjISOGeByK85GtdVL1U80zJtrFpcmP2RlLrZLjUpEMyecLVnG57JTu9mDmra3WDQ9stDlkjQFmK9DXAdSsqUXWllRXvEniVFaiVdJJqLddH7O7zcLhcp1tcXIucRUOQQtQCkFO4VAA4C9wBO8OOBikznF/nL/6esKidpW0Bm3Rn1rtznoth65TXlxVNG5REyAy2WkE5aKvaVk9ieHGmu9an1fB2lxrMtoxrBMicjDkmMHG35xbdXuKWFbyCAgEDGDx4iozOhNnLQtgciy33LQ+uRHU9IW4rKlJUUrJPtI3kpVunhkCpw0voU3Fq6GPKLzMRcJoKeWUtoUFBSkpzgLwtQ3unBose+ynU931Npx1++ONOToktcZxSY5jqUAlKgVtHJbVhXRniMHrp0yrsFKelo2lNHW30PZGXm2d8urU4ouOOLPAqUonKjgAZPUAKufWK3dq/LTCRZ5V2CjKuwVVnUdsSRvKXx/drn1jtna55KKs8q7BRlXYKrPWO2drnko9Y7Z2ueSgs8q7BRlXYKrBqO2HoLnko9Y7Z2ueSgs8q7BRlXYKrPWS19rnko9Y7YetzyUFnlXYKMq7BVb6xW3tc8lHrFbe1zyUFllXYKMq7BVYNR2s9CnD/AMlHrJbO1zyUFnlXYKMq7BVZ6x2ztc8lHrHbD1ueSgs8q7BRlXYKrPWS3dRc8lceslu7V+WgtMq7BRlXYKq/WS3dq/LR6yW7tX5aC0yrsFcgnrFVXrJbu1flo9ZLd2r8lBaKPsmsXlf51NS/dC/kmtUOo7cRjK/LWTqfbk7TtRPtElC0wiMj/wAk168OfRrvpPu5+L4mj5aRbP1YfcKKLZ+rD7hRXlHQQNgJBlXXGODTXR95rZD01jP9H4ASrvjraaP4mtmPTXJ2H9Po9nV239Rq93U9NQ725aWbNNfv3IC3NR3HJRfALYaSklRVnqABNTD01nW2CxXu8OWN1q0Sb3YYrzyrraIz4aXKJSnkVHOAtCVBWUE4O8D+zXW5UTQEzZK5qJtjTukl2e4yWlyITkuAWDKaGN5TJUTwAIJHA4OcVoN9v9m01bl3W+3KPBitqSkuvuBCd5RwkZ7SayTW9w1PruzG0xtk9+g3Roly03BUplkQZRSUoe30KKglOeIA4jI66b9oWltTai03ZrdbZcVVxj3KDIekuMBbSeTB5RZbPBQyTgfP5VKsmTtElRJ8VqbDkNvsPoDjbjagpK0noII4EV25zGVJMIPt8ulsOlveG8EEkBWOzIIrGjp3aPpabE0dp8XJ2ztcycRcWXmwGW0MvCQnkz+2p1SFBP2ejoxULTei9pq2bbf5si7xLlb4kZlCHrhvLlbs8qWZHE728yVEoyUjOB1VqzGzGW3JuNvNwVaRMZMxDCZBY3xygaUopC93p3SUkZ7RXMCfBucVE63SmZLDudxxpYUlWCQcEdPEEfwrL9baJ1lL2iO6w0qEIcVa4FmLrj26ObuPyucqAH7TYWy4ntIxSta9EbVNP3/TtqhXO7QNP26M80hq38ktsqLkgr5ffIJKgplSSM4PZWa1yzG/4B4VzujHyNYFZLbtghMWJ0wb9LejW24tOszLnhC1YXyTzqkqJLyzugJ4oQOjFKk6Xtc0zpm2ManvV8TKddlptbQubTcxTqpDJbLyAcvJShTiQlO9jr6cjWLbiLJOb6Ot+n9Lm9SdWW+3xjcZJUw9LTxWdw7ik56sFGDjsq6A41iy9LbW3bkm4pvFwbMGUhyNHTLCWXd69PqcLqR9sCCtAwfl1jNdNil31TP1neYlzu1xnRodtaRKU/cESmDcDLf31NbnBALYRhHAhIGQD0zcuzaynOeFAHGu1AHHNGcIlytFtu7TTN0hNSm2HkSG0uJyEuIOUqx2g1Kx8q7UVIrgDFc0UVQUUUUBRRRQUurM+ieA/wBOz/MFZbedYKjakkacQ5DhxYdu55PnvzEtux0OJXuqZaP9YU8mSo9AymtV1QguW1DYOCuSwnP3uJqknbObVdH0SblDgSn221tJcejBaghX2kgnqPWKDDUbWL3pSNZbW5b52qn7zLfejOqksB9u3pW0gcqoKCVPZWo7oOd3dB6KbNp+0qVoE2mLB05JvUy6uuhDLTiWgENbhWd5ZA3sODdHXg9lPjeybTKGGYabNaksxXucMITDSA26elaR1K4Dj8qiwtjVojsvR58uReUOPpkJF2dVL5FYBwW9/wCz09VLqxjC6cWbs7VtcuLBkKe0wyyh1brNsU9PCUvONyQwrljjDSMqCt7jwGKU07QNoN7vMBq3S7gJRRPcEa3lt+EVMz0tYfc6S0G98JI4k/OvoeTs9t0yOuLKiwXWXErQtC44UlSVHKgR2EgE9prmFoOFbEoTAYhxkNoLaQywEBKCclIx1Z44pp3l7zGq7SRjLe2J2QlL71qS2la2JcUQ7gl7lIyy8Ah/h+jWS1xR2H5VKg7SdWz7xp+3L07boRm3REach6dvFEd2CZLKkKwAV8CCntTgZzWqxdmtki8sYtttzPOHOWdDcVKQtzo3jjpOCePzNe72gYLykKcYhqLbjbqCWASlaBhCh2FIyAeoUkksq5zNleCRxBPH8KOPvGrsaXeAxztJ/wCSufVh7vSPJS7qozvjjk1wFK7VVe+rD3ekeSj1Ye70jyUTCkGT1mjB7TV36sPd6R5KPVh7vSPJRVJg9powe01d+rD3ekeSj1Ye70jyUFJg9powe01d+rD3ekeSj1Ye70jyUFJg9powe01d+rD3ekeSj1Ye70jyUFJg9powe01d+rD3ekeSj1Ye70jyUFJg9ppF1+3dfVyzv2jU91szhuMCI4qC4lJcbfebbUFbwPQFHHYa1X1Ye70jyVXwdJiXbIin3WXE7jbqUrbyAoYUk/eDgipZzsKxeXtYvuj495dvtkeuEODJuDUGSmQkvSFx3WUBCk4ASn9MDvZ6lZ6qjubVtbzIEu5RdGTUL9XVzFsIls7sGQh51HK5JO+khIUMHoHbW5v6DgymnGZDMN1tzlN9C44IVv8A28jr3sDPbgV0h7P7dBiiDCjwmY4a5Dkm44Snk+PsY93ieHzNXTy35mq2X6eTGpG295rUN105G0+mYuFzRuHIRKARJddlMxnEK60FC3gTwwQOFVlx2oa/jXxPpGDb2LfbL1dmpaIc/wDSuR4sMONoUCnoK1ZOcZABrdmtm9oYlPTWYFuQ/IUlbrojJCnFJIKST1kFKSPmBXodn1uL78oxYPKyVKW+vm43nFFO4So9eU+yflwremyfm/n82TV07v8AP5uyRva9c0SU2+TpuI5JjtTpU5UO4h9hDEeOh8lpYH6RRS4kbvUatdnerL5qi5X5N4ZhIMLmZZjwpiZTaA4yVkBxI6TwyOo1ocHZ3abZHbi26Hb4rbQcCEMxghKQv7YAHbgZ7cVVytjlmdbjs22XIszbDhcKLS6qIl1Wf2wjG90dfaaxb5NWYsrLUasvx0ijVsLVap92uD8NC7QHW0tQyqWG1NBGN5sgeyoq6eJribtwuDd1t1ga01HM6YJcWQlMzeEOc2p9LSTwBU2tUdeFAZx04rZ2tm9pZlSZrUG3IkS1JW+6mMkLdUk5SVHrIPEUHZvaDORc1QLcZbWdx8xU8onKio4V08SpR+8ntpL0ZfPFk2r6wlars8+9zVNQn7TbZMyFDktPRi4/DccWlDf9YVlwJ9v7KQCDTPH2rakuN1scGJZbQnnV1hNyli5B1oQ5LbykYcAwHwWTlHVlPbWuRNmFhgy2p8S1WpiQw3yLTrcRKVob4+yD1DieHzNdVbLbGLc9a48GBGjvOcuQxHDZS9xw6nHQsZyFdINXM6klmn1ZxrO+3qJtM0nY4s+dHhS4z78ltiUywhakvoSkuBzi4nCiN1HHjVMva7qyULWqFpmDE5/Ot6wZU/gqC9KdjrUTj2VhTXAdGFDrrVbfses0NEYSnl3d6G8X48m6qMt9lRx9ha+KRkA4HXVo5s9tz7IYfjQFtpCUhKowIASsrSMfJZKh2HjSbTNS6s6rJNmN6V203TV7jLVv0U81z67NQITkiWhCXGlocUpxQBJSpIaOUkDpHzrrYNttxvzdp5vpWNy99cgcybTc0rCW5AeOXyB+jWnkSd3pIPyrZIOzi02ySuZAhW5h5x4SFrbjBKlO8Rvkj9rClcfmag6X2RWLSNph2i0MxEohJaCXVMDlFrbRuJcUrrWASM/M9tZnJuSY3ZM9tx9FR5kibZnlx4trcuDOZKVyZSw9uFCEjgEpJGVKxw6M4NNdl1+5L2eva6v9ketRhsyXZEblUvH9EpQG4pJIUF4Tu9ftAdNPCdmVlD7ko2+2l15gxXF81TvLZJyUE9aflVejY5ambjHmxZsiNHjICEW5l5SIJAJPFgeyTk5+/BqS6rN+aVkVk2yzo9iERSmrrd2pryXnLgpVuTyAjiRk8okHOFFtAx7RQew16I/pAPyZ0tqDoaW/Fh25Mlx/nLaRzhTTbiW8E5KSHEpCwMZ+VaxrTY/E1rA5jJuYhFbiFPPMx21uOpSFAIJWDj7SsEcRk4qbD2V6fh8ktm22/lWYqIaXVRwXCygAJSVdJGAK1cXODlYzdjaZfJNxRp5vTcFF4YXKExh25BDeGlbqUsKIy6tRKDu44A0z6S1UjV0WTPiwVMxWVJbbcUrPKLDQU6nA6NxZKD80mme47OYFwUl9bcNMtpxb0eVzdKnY7yhjlUE9Cug5+QqoY2K2+NBtMCJf7rEbtOVJEaWtoSFqcLi1uhJwsqWpROe0ik3i8t2PaI2m6ub0PbbpJhy75crk3Ilq59dGSlDbEXl3CnkwdxJAIShXtZxmpl122zmp7M+JbY6bSwi4OlnnyBJkFiMFYcbxlobyspV19PQRW1wNmlltodTAtttiodUtSksRUoBKhuq4DtTwPyqHdNkGnrqzNbchQWXbgzzd+Q1HSl5SMAY3v9kAfdwqXrTGOTLZW2a4RW5TKrBbjMtZkOzgLqnkVsNBtR5s5j9M4Uup9gdCgRUv/wAU5jV2lRYlgckw4k5fO335YQpljnLbICE444LgO6egBXHNaidl2nlMRoptNr5GIvlWG+aJ3WlnpUkdRqYvQsJZWVNxCXSVOHkBlZKgo57faAP3imvr3TTjO5E2cajvuqNNKuWo4sJici4ToikQ3uUQEsyFtpyccFYSMg/f1008fdqziaJYgpcTA5vHS86t9wNtboW4o5Us46VE9J669/Vd/vaPLWtWM7M6c43UvH3aOPu1deq7/e0eWj1Xf72jy1FUvH3aOPu1deq7/e0eWj1Xf72jy0FLx92keF/nCvvDHsQv5Sq1I6XfAyZaPLWZIjmLtJ1DHUreKEwhnt/Qmvfh38PiT0n3c/F8XR8/s0q2fqw+4UUWz9WH3CivCOhU6A03K03cZSJTbSOXjoUkNnPQsjj409EjNU70RuXd20uKWAmISN1RT/pB2VK9DxfiP/WVSadGmY0TE8k72vVc8S5vmncO2uTunpqB6FifEkfWV+dHoWJ8SR9ZX50VO9gdAHhQcdtQfQsT4kj6yvzo9CxPiSPrK/OgmkA9lGPnUL0LE+JI+sr86PQsT4kj6yvzomE4YHXQcGoPoWJ8SR9ZX50ehYnxJH1lfnUsyqcABXi9CgyHWn5ERl1xg5aWtsKUg9qSRw/hUf0LE+JI+sr86PQsT4kj6yvzqiccdWK8IkGDBCxCiMMBxRWsNNhO8o9ZwOJ+deHoWJ8SR9ZX50ehYnxJH1lfnTAn5FGRUD0LE+JI+sr86PQsT4kj6yvzoJ+RRkVA9CxPiSPrK/Oj0LE+JI+sr86CfkUZFQPQsT4kj6yvzo9CxPiSPrK/Ogn5FGRUD0LE+JI+sr86PQsT4kj6yvzoJ+RRkVA9CxPiSPrK/Oj0LE+JI+sr86Dy1GRzJk/65G/mprKNsOvNU6Fuuoblp9C3X1220NwG3mFuRuW5S4LcScA7pUltCcjr3B1itK1BAYgwG5LS3SpEphQC3CQf0ia8F6hW+n9LCjrBwSFcfu6aLMdWVzdp+urnc5DUefGtCIlyszzoFudeSzDfwHG3V8P0hUrBAHsjdOeJx31FtW2k2SxXW5yoMFtctretW5CdKY7iZi2Qh8nPBSEpVvAcCesEVpx1EneWkRIxUspLgGMnsJH8OFdlahW6gpdgx1pVwIIyD/2ax9UuOjO3NmaNpW1m9Rm7jbrXbbey+hDAZkQXluNuG0tzVLPEZHKbzIH73aMG70ttI1rfdqatOTrRBhWcQA7uuKWJClFltwOoBTgp3lqQRnI3c06HUTx/sjIx+WP/AErgagUlYe5ixygG6FY4gdma1d7svnkzAezgdNdqWhqeTj9Wa/Gj1nk92a/GrCGWilr1nk92a/Gj1nk92a/GgZaKWvWeT3Zr8aPWeT3Zr8aBlopa9Z5Pdmvxo9Z5PdmvxoGWilr1nk92a/Gj1nk92a/GgZaKWvWeT3Zr8aPWeT3Zr8aBlopa9Z5Pdmvxo9Z5PdmvxoGWilr1nk92a/Gj1nk92a/GgZayXaWqwmDoxnVsuTHsbjqxKU0p1IKhFJb3i2CftdHVmnYamk92a/Gq2LqNDVqhszI8QthttCS6QAVbvADPXgGs53GZJ2h60t9101pCIqWIlwjOtSJEuKszGWHi6IkkKwd5SEIQVg4IOM8TUKyagmnSUW2WSHIcCH5yV3KOZCkPKSuIvlGuU9oJWHFJUlXQpKwK2ZOpQ8pD6YsVw4ISsHPD5Hsrj1lTFZyY0RppHWSEpGT4DiRW5d81ZjqzXW+1/XtksMl+32phu4Qpgt2HYjhakSmgtbyQRndStvktw8cqUU54VtNpmOXG2xZzrJaVIZbdLZGCneQFY/hnH8Ko3NQqcTuuwY6hvb2FDIz21Gb1/BdmG3tTbYqSnILCZSC6MdOUBW8PColOGB2UYpZGrXSFncj/AKP7ft/Z4Z48eHAg8e2gavUUJcxG3VnCVcpwUc44HPHjQM2KMUsq1Y+lxLZZYCl5wCricdPCu3rRJ62GeHzNAyYoxSx63r3VrxF3W/tnlOCfv48KG9XPOjLbUdQBwSlecHGeqmAz4oxS360Sc45BnxNeadYKcWW2+aqUkElIcBIAODkZ7eH38KBoxRilo6pkg4LDIGM8Sa8la0S03y7qobbOccqp0JTnOMbxOM5OPvoGrFGKWl6reQpKC0wCokAFXE46a5OqZORux2jn5mgZMUYpYTq55ZUENR1FBwoBecH59ldxqmUc/wCLtcPmaBkxRilSPrZuU+9Giuwnno6t15tt4KU2exSQcpP34r39aJOM8g1j7zQMm7xoxSyvVjrad5xEdCc4ypWB+JrsdUSR0sNeJoGTFGKXBqeUehho/wATXVeq3mwC42wkKOAVKxk/xNAy0caW/WmR1ss9OOmj1ok/AZ8TQMnGjjS360yejkWfE1wdVSEgKLLABOASrGT2UDLxo40tDVT6iQlpglJ3ThWcHs+/5V29Z5R6I7X40DErO6axeV/nU1L90L+Sa0b1mln+zN/jWZofVK2k6hkKSElaYRIH+5NevDn0a76T7ufi+Jo+WlWz9WH3Cii2fqw+4UV5R0LNv/LKP+E/+5VNedcN2rWEfTDjMRDaofPnn3pfJqS3vLB3Ebp38Bsk8RwNXLf+WUf8J/8AcqPcdKW25XCZcZIUXZtv9Gk4HsN5cOU9h/SHwFBHRtC0ctbDYvrCTJirms76VIDjCElSljIGQEgn7q6RdpOh5iyiPqKMd1tbqisKQEpQkKUSVAAeyQr5g5HCqiZsis865Nz37jM3GofNEM5TupHN1RyQcZGUKJIzje44zUq5bLdP3aM/FlreLUhwurCSBxMRMbs6koSfvoLK2a+0jen4kW03tmW9NDhZQ0FKOGzhZVgezg8Pax00wDPXSbbNnEa3ybTIF1eza3XHjyTDTPLqV1LKEg4+Q4HAzmnIdFBzRRRQFFFFAUUUUBRRRQFFFFAUUUUBRRRQFFFFAUUUUFLq0ZtAH+ssfzBWC7RWtbWrUlzuunJOolJl2ONFjIhNhxiM6JJ5R7dBBK0oUDuggqGeIxW+6mSF29tCugy4wP3cqmqq9XHRGn7hCtd2noYmXFYbjM5Wpa8nAJCQd1OSBvKwMnGc0n5peheT59sq9rAvFtuE9u8MXOdAtfO0IiIMN1aErTJU+ckpUElKkpHSrAz00/bK5eqJmlEuar9JqnIkuoL09AbcfQMYcDf+jSeOEEkjHSa06OjSs3m4iy0Oc7W80xuuH9IpokOAf7JSc/dS9c9e7KbM1Ccm39ARclONxVtoedS6tDhbUkFCSMhYIx08DU07acXmXGbY9QVHtoIJ6c01Cx2rdCuRUAej2jVNMuuh4F19CypoTN5diNyQS4o8o8CW05AIyQknp4DicCqK7BHVXOD2UwXOLp+z2+RdLgFtxoyC46sBaylI6ThIJP8AAVA0rctFa2tIvmmJRnQSsth5KXUJUoYzjfAJHHpHCgrsHsoweymn0Ja8Z5BXD95Vd/QFs+AfMaBTweyjB7KbPQFs+CfMaPQFs+CfMaBTweyjB7KbPQFs+CfMaPQFs+CfMaBTweyjB7KbPQFs+CfMaPQFs+CfMaBTweyjB7KbPQFs+CfMaPQFs+CfMaBTweyjB7KbPQFs+CfMaPQFs+CfMaBTweyjB7KbPQFs+CfMaPQFs+CfMaBTHDiaTNTRosyRpKJc0IVCkS1tLCs55VUZYbweo/b/AI1r5sFsP+hV5zSzPm6J0zYbXN1NKbjpk8k2zvha1LdKf2UpBPAdJxgDpIpjeF5MZ1D/AOJGndaWiybP7XMTYYUPcWw4jfiyFOIcVvlzPsKbc3Bggk5zwFQZUfXstq3XWFL1dLkG1SIzka4RWwgyudR1qDqOgJCOV5NXXu19Ks2izOpJZG+AooO6skAjpHCuwsdrBI5JXz9pVSTNmWsx86azmba49jlpskqSw7EuCYBlsROXedYBcXzpttKkk5BYbIz1LOMVA1jYdWWsXDU2m7EsahnWi1sG6wbeOWRJKpBfc5PO8elsKTnOFDJ4V9KxLdYZ7XLwzyre+43vJWrG8hRQsfeFJUP4VxLt1hgtpdlHkkLcS0lSlqAK1ndSPvJIFa02Tesas6seT5y0rD2gytUyWNQxry0xenWnLpGXHQmAthdrjNPr5QHeDvLJUkJHYrqp7a0jbi6q08xkKg2sMyLc06cMtvErcUUqB3lZXgqz0cMVrXoC2Ef1KvOa4NhtuODJ8xqbWcmtVltsfNpt20LUUK3Tk3TU0W8QnLq7KXIjNt8g+YR5NpjpBZU5upB68mqy9vbYr9Pv8aQvUMC2pZiPttRmAFtPsyY6lc3XnC0uN8qrcwMY3STX1ILDbh/oVec129AW0jHIq4/vmrmW5TMwy86c0wymZY+aOlOoQ7IkJUpWXN0J3io/sn2hw+/spCvsHWWmHbjF0uxe4sByW8qGbcyh5TjyY7KYyHd7iGCoLClfLjX0b6v2zOeb8cYzvGj1ftnRyB85rE04qXVl8zm8bZzfdQh5i8R7dyLICGIyXFxVoebDq4ilHdc32ytaU4GOjpArtpa07SEBqEw9d7YxOuD63570dsS+QdnPqK1dISot8krHVnPTX0sNP2wf6FXnNcer9tJJLKvOa9JZ3cdV6X3fMy9T69a1Lp+yX6dc2n57tviLiNttGPJjrQoS3HjnfS7kHGBgJwQeJph1foqYtNnsdgTc27ZCukO4OR2dwsu7q31OJUpWScncyDwGUkVta9B6TXdUX5Vljm5Nt8imWU/pUo90K6QKmnT9sP8AoFec1jF7s812718nyva3tsl2tL9wu/pVmVDmy37dJeglUiM07AcBRub2XNx07iSMZ4EDFW9uv21aPq6wSr0bjbtPNWxp+Ww/DMlTy9xfLcs6kgIdCg3u5T147a+khYLYMfoV8P3zXCtO2pYIUwog9IKzxqyzqnTEYFtPtusdO25mZsxD8F+63Au3aQxFVKeSA3lohoKBwVkhWDwFDDm2JVwFvemYYW4uCqamOlKU5HLJl7vSEgHkN3pBGa346fth/wBCvj++a49X7YP9Avzmou2z5dkIutg043ctPaSuNgvdgtT4uc92OjdkPqShGArJ5yVOHlAo8B/GvS43PbSqVZm7JcbyxaXJ7hMufa+VmuoC291EhtCkhDZSXcK49Cc19Nv6Ys0plTEmJyra+CkLUSD/AA/gK7jT1rHQyvzmk53PJGG2DT2pr069A19ImXCDOiqkKZdSlCI0hElxKG0FHHBZKSc9meuqrUEDaANSqn2e56iaL9tVDZSGmyw0pNyG8ojoChHUSgnpA48RX0P6v2vOeQV5zXJsFsPSyvzmrpxLudHzxqC97Wo0e8WjTsC5Ozrem5hqa/FSpuQjlGearbII5RfJFw44e0MdlX2ioEnVWlrdC129IuN2tziZK3n4q4q+KyWitBUTv7qQTxPUeutp9X7ZnPIr85rj1etYJPIKyek75qW81mMyvm+TdNoyrOX5UrWLMwzXxcBDgNKLDwbPIIjZ+1GK8byunt4ZrtqC2bX7rZruhy63NhybHlwkxYaW0pZHo9C0utqxnfMgLQDnHtEdhr6P9X7ZnPIr85o9AWzo5FfD981UfMMy77Y29STEWONqBy0tWdLYTLipLhdDbREhtRO7yxy8OTx9pPE8RUmTA1Q3enr4w9rG7whDs05qNOZSlS+QlOh/KeGH9xSVbn7Qr6U9X7Z8FfnNHq/bPgL85p0xVvOWPnaPM1tFv8G7wLbfWrZd77crhItyWAhamFIbDSn1EkI/q1EN9J308QQa0Wz3yRcXww7YrlD3kFW/ISkJBCG1YOD/AOYU/ehXyrRDp61npZX5zR6u2of6BXnNLu85NUpUG/2UkQ8/+IV9z7kL+UqtiNgtgGQyvzmslWyiPtO1Gy0MIQIQAzn/AEJr24d/D4k9J93lxfF0fP7NHtn6sPuFFFs/Vh9worxjoWbX+WEf8If5lWRqta/ywj/hD/MqyIzn7qCmg6y0xctQz9KQ73Fcu9s3edQ9/DrYUkKBwekYI4jNZ/8A0lds9/2IaEh6i0ps+uGs7xcroza4dqgkhxalNuuLXwBO6lDKya9rfsFsrG2W6bY7hcn5E2UppUOMjKEMFLKW1FWPtkhPXwGat9qjVyjy9HamhWaZc2NP35U2YxDSlTwZXBlMbyUkjewt9GRnoyeqg+VbN/T425+l4A1Z/RE1VaLK5LYanT1qcCYrK3EoU6cpxhO9k56ga+3pM+HCQ2uVJaZDrqWEFxYTvOKOEpGekk9ArHNpGrJuvtE3TR2n9n2qkT7wymGyqVBQ0ygqcRlS18od1IAJPA077TNIL1hZYEZm3xJr1tu8S6NsSlqQhfJO5PtDJB3SccDxFS3EysmTmHEHJCh7PA8eiuQQRkHIr5yvezPXNthqT6IiSFP3m3tPIjzXyLuBLUtT8kkZaG4d0gb3BRySnAra9n1huGmtJQLPclt8uyFkttrUtDCVLUpLSVK9pSUAhIJ4kD+Faxgxgx0UUVEFFFFAUUUUBRRRQFFFFAUUUUBRRRQFFFFBVaj4QWj/AK3G/mppautu1LbNervtrsEW7QrvHiQ33HJAadg8it0lQyk76CHQd0YO8k8ePBh1WSm1JIOCJLGD/wDMTVJ6RmHjzt3zUCND2Sa3s8QzbTqOY5cf/wAbDLEqYVxIi5bjhZcQjH7O+DgfMdean6Y2baxsa2Lddn7VMhQ75GuzDsVkshLXN1NvI5M5wd8JXnPtFaqafSU7qlOeNcekZ/XLc81Odlqcp3ShrWbcdqEJgaKhXWWzbXXGpLDrsi0qS+pH6F8KUgFxKCCSB25qI9sUvS9QydTszFJvC56pzc3nju7y/opMdLvJ53R+mBO70Yp6E+YM7slYz04Nci4zh/anPNU1adtubV5zBG2V7Mda2p6xvaxul2eZt3P3no8m58sDKWYvJqG6lIW2dyQrdVndK/nw8GrRqKyt2bRrM2ShyPYjIurcRat1jmqnFMbpAxl5ThSQOJDZ7BWgekp3enPGunP5ocKxIXlQAJz0gdH/AKmrbmbejEmLL5SsgTs72t3bRLCoE27wW5ioj8qGm8FcqSsMELkB5xJ5PKy2ot4/YPbX0db2nmYEZiS84662yhC3HCCpagkAlWOGSenFKaLlNAwZTg/jXPpGb3t3zVJ1rXSHPAHbRmkw3Gd1S3fNXHpGf3t3zVQ6ZozSX6Rn97d81HpGf3t3zUDpmjNJfpGf3t3zUekZ/e3fNQOmaM0l+kZ/e3fNR6Rn97d81A6ZozSX6Rn97d81HpGf3t3zUDpmjNJfpGf3t3zUekZ/e3fNQOlZrr/T17vOmrDK0xaVSLxB3VRJKJgYMRSkAFZylQcQQMKbI4ircXKcFAmW75qjwZ85ERhKZbmA2nHtfKlGaXjZZtKjymY+moyoYGpnb27NZuywFrWthWeTUDhrdD6S3npCDnBNXd22aa5ajzJcWZPnuXIvKucU3hxrnDYm8o000vBDOGTu5A6BunPTTv6Rn9Ut3zUekZ/e3fNWcXvd7JNphlUfZntei3TTgtoNui21q4KWW7stY3ZDkpXJO5TlxSeVYKVjGClWc4FWitl+t2rvptt5EmcxbhbHFTHby5ux+SKVSkqaIPLKWsKIUT1jsrQfSU/vbvmrg3GeQRzt3zVvOcLbtg6p6P41zSUm4zgMKlueauTcZvVKc81TGNmZcnSikr0jO7055qPSM7vTnmop1opK9Izu9Oeaj0jO7055qB1opK9Izu9Oeaj0jO7055qB1opK9Izu9Oeaj0jO7055qB1opK9Izu9Oeaj0jO7055qB1opK9Izu9Oeaj0jO7055qB1opK9Izu9Oeaj0jO7055qB1opK9Izu9Oeaj0jO7055qB1opK9Izu9Oeaj0jO7055qB1opK9Izu9Oeaj0jO7055qB0wOyjApL9Izu9Oeaj0jO7055qB1opK9Izu9Oeaj0jO7055qB0V9k1i8n/OlqX/AP4v5Jp09Izu9OeakGKtbm0O/LcUVKUiCST1/oVV7cOfRrvpPu5+L4uj5abbP1YfcKKLZ+rD7hRXjHQs2/8ALKP+E/8AuVZHr+6q1v8Ayyj/AIT/AO5Vkev7qDmuCAoYIyDXNFB0DTYOQgZrtgZziuaKDjHyrmiigKKKKAooooCiiigKKKKAooooCiiigKKKKAooooKXVv8Akkf8Sx/MFLeCOo+FNOo1YgN5Gf8AG4385NWXJN+4PCgRt37/AAo3fv8ACnrk2/cT4Ucm38NPhQIu79/hRu/f4U9cm38NPhRybfw0+FAi7v3+FG79/hT1ybfw0+FHJt/DT4UCLu/f4Ubv3+FPXJt/DT4Ucm38NPhQIu79/hRu/f4U9cm38NPhRybfw0+FAi7v3+FG79/hT1ybfw0+FHJt/DT4UCLu/f4Ubv3+FPXJt/DT4Ucm38NPhQIu79/hRu/f4U9cm38NPhRybfw0+FAi7v3+FG79/hT1ybfw0+FHJt/DT4UCLu/f4Ubv3+FPXJt/DT4Ucm38NPhQIpSfn09leMQHmjBx/o09XyFaBybfuJ8Kg2RtBs8IlCTmO31fuigUsHsPhRg9h8Ke+Tb+Gnwo5Nv4afCgRMHsPhRg9h8Ke+Tb+Gnwo5Nv4afCgRMHsPhRg9h8Ke+Tb+Gnwo5Nv4afCgRMHsPhRg9h8Ke+Tb+Gnwo5Nv4afCgRMHsPhRg9h8Ke+Tb+Gnwo5Nv4afCgRMHsPhRg9h8Ke+Tb+Gnwo5Nv4afCgRMHsPhRg9h8Ke+Tb+Gnwo5Nv4afCgRMHsPhRg9h8Ke+Tb+Gnwo5Nv4afCgRMHsPhRg9h8Ke+Tb+Gnwo5Nv4afCgRMHsPhRg9h8Ke+Tb+Gnwo5Nv4afCgRMHsPhRg9h8Ke+Tb+Gnwo5Nv4afCgRMHsPhRg9h8Ke+Tb+Gnwo5Nv4afCgRMHsPhRg9h8Ke+Tb+Gnwo5Nv4afCgRMHsPhRg9h8Ke+Tb+Gnwo5Nv4afCgRMHsPhRg9h8Ke+Tb+Gnwo5Nv4afCgRMHsPhSPC/zg33/Yg/ylVuSm290+wnwrGJKQNqWpCOGOY/yTXtw79Guek+7n4vi6Plols/VhRXNs4x80V4uhZN/wCWUf8ACf8A3Ksj1/dVa3/llH/Cf/cqyPX91BzRRRQFFFFAUUUUBRRRQFFFFAUUUUBRRRQFFFFAUUUUBRRRQFFFFBU6l/ye3/xcX+cmraqnUv8Ak9v/AIuL/OTVtQFFFFAUUUUBRRRQFFFFAUUUUBRRRQFFFFAUUUUBRRRQFFFFAVBsn+RoP/Dt/wDtFTqg2T/I0H/h2/8A2ignUUUUBRRRQFFFFAUUUUBRRRQFFFFAUUUUBRRRQFFFFAUUUUBRRRQFFFFAUUUUBRRRQFFFFBwr7JrF5X+dLUnzMH+Sa2hX2TWLyv8AOlqT74P8k168P8uv2/d4cXxNHy0W2cGKKLZ/UUV5Pd//2Q==;strokeColor=none;labelBackgroundColor=none;rounded=0;html=1;whiteSpace=wrap;" vertex="1" parent="1">
          <mxGeometry x="92" y="206" width="682" height="568" as="geometry" />
        </mxCell>
        <mxCell id="3" value="&lt;div style=&quot;font-size: 1px&quot;&gt;&lt;p style=&quot;align:left;margin-left:0;margin-right:0;margin-top:0px;margin-bottom:0px;text-indent:0;valign:middle;direction:ltr;&quot;&gt;&lt;font style=&quot;font-size:14.11px;font-family:Calibri;color:#41719c;direction:ltr;letter-spacing:0px;line-height:120%;opacity:1&quot;&gt;Text&lt;br/&gt;&lt;/font&gt;&lt;/p&gt;&lt;/div&gt;" style="verticalAlign=middle;align=left;vsdxID=3;fillColor=#ffffff;gradientColor=none;shape=stencil(XY9LDoMwDERP42VRYgvBns89kJI2UdsEhQDt7UnkBYHdjP3GH6BuMdOsAcUSg3/r3apogHpAtM7oYGNSQANQ9/RBv4JfnWI/T5nM6uu3POHHOZETKP7spGA/MvqxrkAfDVYtXXikupKyjCRxruIry979rFTil2g4AA==);strokeColor=#5b9bd5;strokeWidth=2;labelBackgroundColor=none;rounded=0;html=1;whiteSpace=wrap;" vertex="1" parent="1">
          <mxGeometry x="507" y="415" width="101" height="31" as="geometry" />
        </mxCell>
        <mxCell id="4" value="&lt;div style=&quot;font-size: 1px&quot;&gt;&lt;font style=&quot;font-size:14.11px;font-family:Calibri;color:#41719c;direction:ltr;letter-spacing:0px;line-height:120%;opacity:1&quot;&gt;Example&lt;br/&gt;&lt;/font&gt;&lt;/div&gt;" style="verticalAlign=middle;align=center;vsdxID=4;fillColor=#ffffff;gradientColor=none;shape=stencil(XY9JDoMwDEVP4y1ybZC6Z7gHEmkTAQkK6cDtieUFw+5/+30PwPVq+8UA4ZpiGM3PDckCN0DkvDXRpayAW+D6FaJ5x/Dxg/qlF1LUHL4y4a+5B6JkCLer7xSenD/DZVVUzwtfEhbij0gWxzK989y7H5ZL+hS3Ow==);strokeColor=#5b9bd5;strokeWidth=2;labelBackgroundColor=none;rounded=0;html=1;whiteSpace=wrap;" vertex="1" parent="1">
          <mxGeometry x="50" y="73" width="101" height="31" as="geometry" />
        </mxCell>
      </root>
    </mxGraphModel>
  </diagram>
</mxfile>
